<svg width="607" height="77" viewBox="0 0 607 77" fill="none" xmlns="http://www.w3.org/2000/svg">
<path d="M0.0868814 58V2H19.2069C25.7669 2 31.1535 3.17333 35.3669 5.52C39.6336 7.81333 42.7802 11.0667 44.8069 15.28C46.8869 19.44 47.9269 24.3467 47.9269 30C47.9269 35.6533 46.8869 40.5867 44.8069 44.8C42.7802 48.96 39.6336 52.2133 35.3669 54.56C31.1535 56.8533 25.7669 58 19.2069 58H0.0868814ZM10.3269 49.2H18.7269C23.4202 49.2 27.1269 48.4533 29.8469 46.96C32.5669 45.4133 34.5135 43.2267 35.6869 40.4C36.8602 37.52 37.4469 34.0533 37.4469 30C37.4469 26 36.8602 22.56 35.6869 19.68C34.5135 16.8 32.5669 14.5867 29.8469 13.04C27.1269 11.4933 23.4202 10.72 18.7269 10.72H10.3269V49.2ZM73.6019 58.96C70.1885 58.96 67.3885 58.4267 65.2019 57.36C63.0152 56.24 61.3885 54.7733 60.3219 52.96C59.2552 51.1467 58.7219 49.1467 58.7219 46.96C58.7219 43.28 60.1619 40.2933 63.0419 38C65.9219 35.7067 70.2419 34.56 76.0019 34.56H86.0819V33.6C86.0819 30.88 85.3085 28.88 83.7619 27.6C82.2152 26.32 80.2952 25.68 78.0019 25.68C75.9219 25.68 74.1085 26.1867 72.5619 27.2C71.0152 28.16 70.0552 29.6 69.6819 31.52H59.6819C59.9485 28.64 60.9085 26.1333 62.5619 24C64.2685 21.8667 66.4552 20.24 69.1219 19.12C71.7885 17.9467 74.7752 17.36 78.0819 17.36C83.7352 17.36 88.1885 18.7733 91.4419 21.6C94.6952 24.4267 96.3219 28.4267 96.3219 33.6V58H87.6019L86.6419 51.6C85.4685 53.7333 83.8152 55.4933 81.6819 56.88C79.6019 58.2667 76.9085 58.96 73.6019 58.96ZM75.9219 50.96C78.8552 50.96 81.1219 50 82.7219 48.08C84.3752 46.16 85.4152 43.7867 85.8419 40.96H77.1219C74.4019 40.96 72.4552 41.4667 71.2819 42.48C70.1085 43.44 69.5219 44.64 69.5219 46.08C69.5219 47.6267 70.1085 48.8267 71.2819 49.68C72.4552 50.5333 74.0019 50.96 75.9219 50.96ZM126.427 58C122.267 58 118.934 56.9867 116.427 54.96C113.92 52.9333 112.667 49.3333 112.667 44.16V26.88H105.867V18.32H112.667L113.867 7.68H122.907V18.32H133.627V26.88H122.907V44.24C122.907 46.16 123.307 47.4933 124.107 48.24C124.96 48.9333 126.4 49.28 128.427 49.28H133.387V58H126.427ZM159.299 58.96C155.885 58.96 153.085 58.4267 150.899 57.36C148.712 56.24 147.085 54.7733 146.019 52.96C144.952 51.1467 144.419 49.1467 144.419 46.96C144.419 43.28 145.859 40.2933 148.739 38C151.619 35.7067 155.939 34.56 161.699 34.56H171.779V33.6C171.779 30.88 171.005 28.88 169.459 27.6C167.912 26.32 165.992 25.68 163.699 25.68C161.619 25.68 159.805 26.1867 158.259 27.2C156.712 28.16 155.752 29.6 155.379 31.52H145.379C145.645 28.64 146.605 26.1333 148.259 24C149.965 21.8667 152.152 20.24 154.819 19.12C157.485 17.9467 160.472 17.36 163.779 17.36C169.432 17.36 173.885 18.7733 177.139 21.6C180.392 24.4267 182.019 28.4267 182.019 33.6V58H173.299L172.339 51.6C171.165 53.7333 169.512 55.4933 167.379 56.88C165.299 58.2667 162.605 58.96 159.299 58.96ZM161.619 50.96C164.552 50.96 166.819 50 168.419 48.08C170.072 46.16 171.112 43.7867 171.539 40.96H162.819C160.099 40.96 158.152 41.4667 156.979 42.48C155.805 43.44 155.219 44.64 155.219 46.08C155.219 47.6267 155.805 48.8267 156.979 49.68C158.152 50.5333 159.699 50.96 161.619 50.96ZM217.493 58V2H236.613C243.173 2 248.56 3.17333 252.773 5.52C257.04 7.81333 260.186 11.0667 262.213 15.28C264.293 19.44 265.333 24.3467 265.333 30C265.333 35.6533 264.293 40.5867 262.213 44.8C260.186 48.96 257.04 52.2133 252.773 54.56C248.56 56.8533 243.173 58 236.613 58H217.493ZM227.733 49.2H236.133C240.826 49.2 244.533 48.4533 247.253 46.96C249.973 45.4133 251.92 43.2267 253.093 40.4C254.266 37.52 254.853 34.0533 254.853 30C254.853 26 254.266 22.56 253.093 19.68C251.92 16.8 249.973 14.5867 247.253 13.04C244.533 11.4933 240.826 10.72 236.133 10.72H227.733V49.2ZM282.848 12.16C280.981 12.16 279.435 11.6 278.208 10.48C277.035 9.36 276.448 7.94667 276.448 6.24C276.448 4.53333 277.035 3.14666 278.208 2.08C279.435 0.959997 280.981 0.399998 282.848 0.399998C284.715 0.399998 286.235 0.959997 287.408 2.08C288.635 3.14666 289.248 4.53333 289.248 6.24C289.248 7.94667 288.635 9.36 287.408 10.48C286.235 11.6 284.715 12.16 282.848 12.16ZM277.728 58V18.32H287.968V58H277.728ZM315.536 58.96C312.123 58.96 309.323 58.4267 307.136 57.36C304.95 56.24 303.323 54.7733 302.256 52.96C301.19 51.1467 300.656 49.1467 300.656 46.96C300.656 43.28 302.096 40.2933 304.976 38C307.856 35.7067 312.176 34.56 317.936 34.56H328.016V33.6C328.016 30.88 327.243 28.88 325.696 27.6C324.15 26.32 322.23 25.68 319.936 25.68C317.856 25.68 316.043 26.1867 314.496 27.2C312.95 28.16 311.99 29.6 311.616 31.52H301.616C301.883 28.64 302.843 26.1333 304.496 24C306.203 21.8667 308.39 20.24 311.056 19.12C313.723 17.9467 316.71 17.36 320.016 17.36C325.67 17.36 330.123 18.7733 333.376 21.6C336.63 24.4267 338.256 28.4267 338.256 33.6V58H329.536L328.576 51.6C327.403 53.7333 325.75 55.4933 323.616 56.88C321.536 58.2667 318.843 58.96 315.536 58.96ZM317.856 50.96C320.79 50.96 323.056 50 324.656 48.08C326.31 46.16 327.35 43.7867 327.776 40.96H319.056C316.336 40.96 314.39 41.4667 313.216 42.48C312.043 43.44 311.456 44.64 311.456 46.08C311.456 47.6267 312.043 48.8267 313.216 49.68C314.39 50.5333 315.936 50.96 317.856 50.96ZM368.028 46.16C366.108 46.16 364.321 45.9467 362.668 45.52L359.708 48.48C360.615 48.96 361.841 49.36 363.388 49.68C364.935 50 367.441 50.32 370.908 50.64C376.188 51.12 380.028 52.3733 382.428 54.4C384.828 56.4267 386.028 59.2267 386.028 62.8C386.028 65.1467 385.388 67.36 384.108 69.44C382.828 71.5733 380.855 73.28 378.188 74.56C375.521 75.8933 372.108 76.56 367.948 76.56C362.295 76.56 357.735 75.4933 354.268 73.36C350.801 71.28 349.068 68.1333 349.068 63.92C349.068 60.3467 350.801 57.2533 354.268 54.64C353.201 54.16 352.268 53.6533 351.468 53.12C350.721 52.5867 350.055 52.0267 349.468 51.44V49.6L356.428 42.24C353.335 39.52 351.788 36.0267 351.788 31.76C351.788 29.0933 352.428 26.6667 353.708 24.48C355.041 22.2933 356.908 20.56 359.308 19.28C361.708 18 364.615 17.36 368.028 17.36C370.268 17.36 372.348 17.68 374.268 18.32H389.308V24.56L382.508 25.04C383.575 27.0667 384.108 29.3067 384.108 31.76C384.108 34.4267 383.468 36.8533 382.188 39.04C380.908 41.2267 379.041 42.96 376.588 44.24C374.188 45.52 371.335 46.16 368.028 46.16ZM368.028 38.32C370.108 38.32 371.815 37.76 373.148 36.64C374.535 35.52 375.228 33.92 375.228 31.84C375.228 29.76 374.535 28.16 373.148 27.04C371.815 25.92 370.108 25.36 368.028 25.36C365.841 25.36 364.081 25.92 362.748 27.04C361.415 28.16 360.748 29.76 360.748 31.84C360.748 33.92 361.415 35.52 362.748 36.64C364.081 37.76 365.841 38.32 368.028 38.32ZM358.428 62.88C358.428 64.8533 359.335 66.32 361.148 67.28C363.015 68.2933 365.281 68.8 367.948 68.8C370.508 68.8 372.588 68.2667 374.188 67.2C375.788 66.1867 376.588 64.8 376.588 63.04C376.588 61.6 376.055 60.4 374.988 59.44C373.975 58.48 371.921 57.8933 368.828 57.68C366.641 57.52 364.615 57.28 362.748 56.96C361.201 57.8133 360.081 58.7467 359.388 59.76C358.748 60.7733 358.428 61.8133 358.428 62.88ZM399.975 58V18.32H409.015L409.815 25.04C411.042 22.6933 412.802 20.8267 415.095 19.44C417.442 18.0533 420.188 17.36 423.335 17.36C428.242 17.36 432.055 18.9067 434.775 22C437.495 25.0933 438.855 29.6267 438.855 35.6V58H428.615V36.56C428.615 33.1467 427.922 30.5333 426.535 28.72C425.148 26.9067 422.988 26 420.055 26C417.175 26 414.802 27.0133 412.935 29.04C411.122 31.0667 410.215 33.8933 410.215 37.52V58H399.975ZM470.887 58.96C467.047 58.96 463.58 58.08 460.487 56.32C457.447 54.56 455.02 52.1333 453.207 49.04C451.447 45.8933 450.567 42.2667 450.567 38.16C450.567 34.0533 451.474 30.4533 453.287 27.36C455.1 24.2133 457.527 21.76 460.567 20C463.66 18.24 467.127 17.36 470.967 17.36C474.754 17.36 478.167 18.24 481.207 20C484.3 21.76 486.727 24.2133 488.487 27.36C490.3 30.4533 491.207 34.0533 491.207 38.16C491.207 42.2667 490.3 45.8933 488.487 49.04C486.727 52.1333 484.3 54.56 481.207 56.32C478.114 58.08 474.674 58.96 470.887 58.96ZM470.887 50.08C473.554 50.08 475.874 49.0933 477.847 47.12C479.82 45.0933 480.807 42.1067 480.807 38.16C480.807 34.2133 479.82 31.2533 477.847 29.28C475.874 27.2533 473.58 26.24 470.967 26.24C468.247 26.24 465.9 27.2533 463.927 29.28C462.007 31.2533 461.047 34.2133 461.047 38.16C461.047 42.1067 462.007 45.0933 463.927 47.12C465.9 49.0933 468.22 50.08 470.887 50.08ZM519.963 58.96C516.443 58.96 513.349 58.4 510.683 57.28C508.016 56.1067 505.883 54.5067 504.283 52.48C502.683 50.4533 501.723 48.1067 501.403 45.44H511.723C512.043 46.9867 512.896 48.32 514.283 49.44C515.723 50.5067 517.563 51.04 519.803 51.04C522.043 51.04 523.669 50.5867 524.683 49.68C525.749 48.7733 526.283 47.7333 526.283 46.56C526.283 44.8533 525.536 43.7067 524.043 43.12C522.549 42.48 520.469 41.8667 517.803 41.28C516.096 40.9067 514.363 40.4533 512.603 39.92C510.843 39.3867 509.216 38.72 507.723 37.92C506.283 37.0667 505.109 36 504.203 34.72C503.296 33.3867 502.843 31.76 502.843 29.84C502.843 26.32 504.229 23.36 507.003 20.96C509.829 18.56 513.776 17.36 518.843 17.36C523.536 17.36 527.269 18.4533 530.043 20.64C532.869 22.8267 534.549 25.84 535.083 29.68H525.403C524.816 26.7467 522.603 25.28 518.763 25.28C516.843 25.28 515.349 25.6533 514.283 26.4C513.269 27.1467 512.763 28.08 512.763 29.2C512.763 30.3733 513.536 31.3067 515.083 32C516.629 32.6933 518.683 33.3333 521.243 33.92C524.016 34.56 526.549 35.28 528.843 36.08C531.189 36.8267 533.056 37.9733 534.443 39.52C535.829 41.0133 536.523 43.1733 536.523 46C536.576 48.4533 535.936 50.6667 534.603 52.64C533.269 54.6133 531.349 56.16 528.843 57.28C526.336 58.4 523.376 58.96 519.963 58.96ZM554.314 12.16C552.447 12.16 550.9 11.6 549.674 10.48C548.5 9.36 547.914 7.94667 547.914 6.24C547.914 4.53333 548.5 3.14666 549.674 2.08C550.9 0.959997 552.447 0.399998 554.314 0.399998C556.18 0.399998 557.7 0.959997 558.874 2.08C560.1 3.14666 560.714 4.53333 560.714 6.24C560.714 7.94667 560.1 9.36 558.874 10.48C557.7 11.6 556.18 12.16 554.314 12.16ZM549.194 58V18.32H559.434V58H549.194ZM589.722 58.96C586.202 58.96 583.108 58.4 580.442 57.28C577.775 56.1067 575.642 54.5067 574.042 52.48C572.442 50.4533 571.482 48.1067 571.162 45.44H581.482C581.802 46.9867 582.655 48.32 584.042 49.44C585.482 50.5067 587.322 51.04 589.562 51.04C591.802 51.04 593.428 50.5867 594.442 49.68C595.508 48.7733 596.042 47.7333 596.042 46.56C596.042 44.8533 595.295 43.7067 593.802 43.12C592.308 42.48 590.228 41.8667 587.562 41.28C585.855 40.9067 584.122 40.4533 582.362 39.92C580.602 39.3867 578.975 38.72 577.482 37.92C576.042 37.0667 574.868 36 573.962 34.72C573.055 33.3867 572.602 31.76 572.602 29.84C572.602 26.32 573.988 23.36 576.762 20.96C579.588 18.56 583.535 17.36 588.602 17.36C593.295 17.36 597.028 18.4533 599.802 20.64C602.628 22.8267 604.308 25.84 604.842 29.68H595.162C594.575 26.7467 592.362 25.28 588.522 25.28C586.602 25.28 585.108 25.6533 584.042 26.4C583.028 27.1467 582.522 28.08 582.522 29.2C582.522 30.3733 583.295 31.3067 584.842 32C586.388 32.6933 588.442 33.3333 591.002 33.92C593.775 34.56 596.308 35.28 598.602 36.08C600.948 36.8267 602.815 37.9733 604.202 39.52C605.588 41.0133 606.282 43.1733 606.282 46C606.335 48.4533 605.695 50.6667 604.362 52.64C603.028 54.6133 601.108 56.16 598.602 57.28C596.095 58.4 593.135 58.96 589.722 58.96Z" fill="white"/>
</svg>
