<svg width="143" height="23" viewBox="0 0 143 23" fill="none" xmlns="http://www.w3.org/2000/svg">
<path d="M0.24195 22V0.999999H4.08195V19H13.382V22H0.24195ZM23.0054 22.36C21.7254 22.36 20.6754 22.16 19.8554 21.76C19.0354 21.34 18.4254 20.79 18.0254 20.11C17.6254 19.43 17.4254 18.68 17.4254 17.86C17.4254 16.48 17.9654 15.36 19.0454 14.5C20.1254 13.64 21.7454 13.21 23.9054 13.21H27.6854V12.85C27.6854 11.83 27.3954 11.08 26.8154 10.6C26.2354 10.12 25.5154 9.88 24.6554 9.88C23.8754 9.88 23.1954 10.07 22.6154 10.45C22.0354 10.81 21.6754 11.35 21.5354 12.07H17.7854C17.8854 10.99 18.2454 10.05 18.8654 9.25C19.5054 8.45 20.3254 7.84 21.3254 7.42C22.3254 6.98 23.4454 6.76 24.6854 6.76C26.8054 6.76 28.4754 7.29 29.6954 8.35C30.9154 9.41 31.5254 10.91 31.5254 12.85V22H28.2554L27.8954 19.6C27.4554 20.4 26.8354 21.06 26.0354 21.58C25.2554 22.1 24.2454 22.36 23.0054 22.36ZM23.8754 19.36C24.9754 19.36 25.8254 19 26.4254 18.28C27.0454 17.56 27.4354 16.67 27.5954 15.61H24.3254C23.3054 15.61 22.5754 15.8 22.1354 16.18C21.6954 16.54 21.4754 16.99 21.4754 17.53C21.4754 18.11 21.6954 18.56 22.1354 18.88C22.5754 19.2 23.1554 19.36 23.8754 19.36ZM38.4598 4.81C37.7598 4.81 37.1798 4.6 36.7198 4.18C36.2798 3.76 36.0598 3.23 36.0598 2.59C36.0598 1.95 36.2798 1.43 36.7198 1.03C37.1798 0.609999 37.7598 0.399999 38.4598 0.399999C39.1598 0.399999 39.7298 0.609999 40.1698 1.03C40.6298 1.43 40.8598 1.95 40.8598 2.59C40.8598 3.23 40.6298 3.76 40.1698 4.18C39.7298 4.6 39.1598 4.81 38.4598 4.81ZM36.5398 22V7.12H40.3798V22H36.5398ZM45.5879 22V7.12H48.9779L49.2779 9.64C49.7379 8.76 50.3979 8.06 51.2579 7.54C52.1379 7.02 53.1679 6.76 54.3479 6.76C56.1879 6.76 57.6179 7.34 58.6379 8.5C59.6579 9.66 60.1679 11.36 60.1679 13.6V22H56.3279V13.96C56.3279 12.68 56.0679 11.7 55.5479 11.02C55.0279 10.34 54.2179 10 53.1179 10C52.0379 10 51.1479 10.38 50.4479 11.14C49.7679 11.9 49.4279 12.96 49.4279 14.32V22H45.5879ZM64.7098 14.92V11.71H77.2798V14.92H64.7098ZM82.1502 22V0.999999H85.9902V19H95.2902V22H82.1502ZM104.914 22.36C103.634 22.36 102.584 22.16 101.764 21.76C100.944 21.34 100.334 20.79 99.9336 20.11C99.5336 19.43 99.3336 18.68 99.3336 17.86C99.3336 16.48 99.8736 15.36 100.954 14.5C102.034 13.64 103.654 13.21 105.814 13.21H109.594V12.85C109.594 11.83 109.304 11.08 108.724 10.6C108.144 10.12 107.424 9.88 106.564 9.88C105.784 9.88 105.104 10.07 104.524 10.45C103.944 10.81 103.584 11.35 103.444 12.07H99.6936C99.7936 10.99 100.154 10.05 100.774 9.25C101.414 8.45 102.234 7.84 103.234 7.42C104.234 6.98 105.354 6.76 106.594 6.76C108.714 6.76 110.384 7.29 111.604 8.35C112.824 9.41 113.434 10.91 113.434 12.85V22H110.164L109.804 19.6C109.364 20.4 108.744 21.06 107.944 21.58C107.164 22.1 106.154 22.36 104.914 22.36ZM105.784 19.36C106.884 19.36 107.734 19 108.334 18.28C108.954 17.56 109.344 16.67 109.504 15.61H106.234C105.214 15.61 104.484 15.8 104.044 16.18C103.604 16.54 103.384 16.99 103.384 17.53C103.384 18.11 103.604 18.56 104.044 18.88C104.484 19.2 105.064 19.36 105.784 19.36ZM120.368 4.81C119.668 4.81 119.088 4.6 118.628 4.18C118.188 3.76 117.968 3.23 117.968 2.59C117.968 1.95 118.188 1.43 118.628 1.03C119.088 0.609999 119.668 0.399999 120.368 0.399999C121.068 0.399999 121.638 0.609999 122.078 1.03C122.538 1.43 122.768 1.95 122.768 2.59C122.768 3.23 122.538 3.76 122.078 4.18C121.638 4.6 121.068 4.81 120.368 4.81ZM118.448 22V7.12H122.288V22H118.448ZM127.496 22V7.12H130.886L131.186 9.64C131.646 8.76 132.306 8.06 133.166 7.54C134.046 7.02 135.076 6.76 136.256 6.76C138.096 6.76 139.526 7.34 140.546 8.5C141.566 9.66 142.076 11.36 142.076 13.6V22H138.236V13.96C138.236 12.68 137.976 11.7 137.456 11.02C136.936 10.34 136.126 10 135.026 10C133.946 10 133.056 10.38 132.356 11.14C131.676 11.9 131.336 12.96 131.336 14.32V22H127.496Z" fill="black"/>
</svg>
