<svg width="89" height="23" viewBox="0 0 89 23" fill="none" xmlns="http://www.w3.org/2000/svg">
<path d="M0.117381 22V0.399999H3.95738V22H0.117381ZM16.3111 22.36C14.8111 22.36 13.4811 22.04 12.3211 21.4C11.1611 20.76 10.2511 19.86 9.59105 18.7C8.93105 17.54 8.60105 16.2 8.60105 14.68C8.60105 13.14 8.92105 11.77 9.56105 10.57C10.2211 9.37 11.1211 8.44 12.2611 7.78C13.4211 7.1 14.7811 6.76 16.3411 6.76C17.8011 6.76 19.0911 7.08 20.2111 7.72C21.3311 8.36 22.2011 9.24 22.8211 10.36C23.4611 11.46 23.7811 12.69 23.7811 14.05C23.7811 14.27 23.7711 14.5 23.7511 14.74C23.7511 14.98 23.7411 15.23 23.7211 15.49H12.4111C12.4911 16.65 12.8911 17.56 13.6111 18.22C14.3511 18.88 15.2411 19.21 16.2811 19.21C17.0611 19.21 17.7111 19.04 18.2311 18.7C18.7711 18.34 19.1711 17.88 19.4311 17.32H23.3311C23.0511 18.26 22.5811 19.12 21.9211 19.9C21.2811 20.66 20.4811 21.26 19.5211 21.7C18.5811 22.14 17.5111 22.36 16.3111 22.36ZM16.3411 9.88C15.4011 9.88 14.5711 10.15 13.8511 10.69C13.1311 11.21 12.6711 12.01 12.4711 13.09H19.8811C19.8211 12.11 19.4611 11.33 18.8011 10.75C18.1411 10.17 17.3211 9.88 16.3411 9.88ZM28.2107 22V7.12H31.6007L31.9307 9.13C32.4107 8.41 33.0407 7.84 33.8207 7.42C34.6207 6.98 35.5407 6.76 36.5807 6.76C38.8807 6.76 40.5107 7.65 41.4707 9.43C42.0107 8.61 42.7307 7.96 43.6307 7.48C44.5507 7 45.5507 6.76 46.6307 6.76C48.5707 6.76 50.0607 7.34 51.1007 8.5C52.1407 9.66 52.6607 11.36 52.6607 13.6V22H48.8207V13.96C48.8207 12.68 48.5707 11.7 48.0707 11.02C47.5907 10.34 46.8407 10 45.8207 10C44.7807 10 43.9407 10.38 43.3007 11.14C42.6807 11.9 42.3707 12.96 42.3707 14.32V22H38.5307V13.96C38.5307 12.68 38.2807 11.7 37.7807 11.02C37.2807 10.34 36.5107 10 35.4707 10C34.4507 10 33.6207 10.38 32.9807 11.14C32.3607 11.9 32.0507 12.96 32.0507 14.32V22H28.2107ZM62.6364 22.36C61.3564 22.36 60.3064 22.16 59.4864 21.76C58.6664 21.34 58.0564 20.79 57.6564 20.11C57.2564 19.43 57.0564 18.68 57.0564 17.86C57.0564 16.48 57.5964 15.36 58.6764 14.5C59.7564 13.64 61.3764 13.21 63.5364 13.21H67.3164V12.85C67.3164 11.83 67.0264 11.08 66.4464 10.6C65.8664 10.12 65.1464 9.88 64.2864 9.88C63.5064 9.88 62.8264 10.07 62.2464 10.45C61.6664 10.81 61.3064 11.35 61.1664 12.07H57.4164C57.5164 10.99 57.8764 10.05 58.4964 9.25C59.1364 8.45 59.9564 7.84 60.9564 7.42C61.9564 6.98 63.0764 6.76 64.3164 6.76C66.4364 6.76 68.1064 7.29 69.3264 8.35C70.5464 9.41 71.1564 10.91 71.1564 12.85V22H67.8864L67.5264 19.6C67.0864 20.4 66.4664 21.06 65.6664 21.58C64.8864 22.1 63.8764 22.36 62.6364 22.36ZM63.5064 19.36C64.6064 19.36 65.4564 19 66.0564 18.28C66.6764 17.56 67.0664 16.67 67.2264 15.61H63.9564C62.9364 15.61 62.2064 15.8 61.7664 16.18C61.3264 16.54 61.1064 16.99 61.1064 17.53C61.1064 18.11 61.3264 18.56 61.7664 18.88C62.2064 19.2 62.7864 19.36 63.5064 19.36ZM82.1709 22.36C80.8509 22.36 79.6909 22.15 78.6909 21.73C77.6909 21.29 76.8909 20.69 76.2909 19.93C75.6909 19.17 75.3309 18.29 75.2109 17.29H79.0809C79.2009 17.87 79.5209 18.37 80.0409 18.79C80.5809 19.19 81.2709 19.39 82.1109 19.39C82.9509 19.39 83.5609 19.22 83.9409 18.88C84.3409 18.54 84.5409 18.15 84.5409 17.71C84.5409 17.07 84.2609 16.64 83.7009 16.42C83.1409 16.18 82.3609 15.95 81.3609 15.73C80.7209 15.59 80.0709 15.42 79.4109 15.22C78.7509 15.02 78.1409 14.77 77.5809 14.47C77.0409 14.15 76.6009 13.75 76.2609 13.27C75.9209 12.77 75.7509 12.16 75.7509 11.44C75.7509 10.12 76.2709 9.01 77.3109 8.11C78.3709 7.21 79.8509 6.76 81.7509 6.76C83.5109 6.76 84.9109 7.17 85.9509 7.99C87.0109 8.81 87.6409 9.94 87.8409 11.38H84.2109C83.9909 10.28 83.1609 9.73 81.7209 9.73C81.0009 9.73 80.4409 9.87 80.0409 10.15C79.6609 10.43 79.4709 10.78 79.4709 11.2C79.4709 11.64 79.7609 11.99 80.3409 12.25C80.9209 12.51 81.6909 12.75 82.6509 12.97C83.6909 13.21 84.6409 13.48 85.5009 13.78C86.3809 14.06 87.0809 14.49 87.6009 15.07C88.1209 15.63 88.3809 16.44 88.3809 17.5C88.4009 18.42 88.1609 19.25 87.6609 19.99C87.1609 20.73 86.4409 21.31 85.5009 21.73C84.5609 22.15 83.4509 22.36 82.1709 22.36Z" fill="black"/>
</svg>
