<svg width="400" height="131" viewBox="0 0 400 131" fill="none" xmlns="http://www.w3.org/2000/svg">
<g filter="url(#filter0_d_135_184)">
<path d="M64.7812 66.3438V70H53.3281V66.3438H64.7812ZM54.8438 47.25V70H50.1562V47.25H54.8438ZM71.9375 53.0938V70H67.4219V53.0938H71.9375ZM67.1406 48.6875C67.1406 48.0312 67.3698 47.4896 67.8281 47.0625C68.2865 46.6354 68.901 46.4219 69.6719 46.4219C70.4323 46.4219 71.0417 46.6354 71.5 47.0625C71.9688 47.4896 72.2031 48.0312 72.2031 48.6875C72.2031 49.3438 71.9688 49.8854 71.5 50.3125C71.0417 50.7396 70.4323 50.9531 69.6719 50.9531C68.901 50.9531 68.2865 50.7396 67.8281 50.3125C67.3698 49.8854 67.1406 49.3438 67.1406 48.6875ZM80.0469 46V70H75.5469V46H80.0469ZM79.4062 60.9531H78.1719C78.1823 59.776 78.3385 58.6927 78.6406 57.7031C78.9427 56.7031 79.375 55.8385 79.9375 55.1094C80.5 54.3698 81.1719 53.7969 81.9531 53.3906C82.7448 52.9844 83.6198 52.7812 84.5781 52.7812C85.4115 52.7812 86.1667 52.901 86.8438 53.1406C87.5312 53.3698 88.1198 53.7448 88.6094 54.2656C89.1094 54.776 89.4948 55.4479 89.7656 56.2812C90.0365 57.1146 90.1719 58.125 90.1719 59.3125V70H85.6406V59.2812C85.6406 58.5312 85.5312 57.9427 85.3125 57.5156C85.1042 57.0781 84.7969 56.7708 84.3906 56.5938C83.9948 56.4062 83.5052 56.3125 82.9219 56.3125C82.276 56.3125 81.724 56.4323 81.2656 56.6719C80.8177 56.9115 80.4583 57.2448 80.1875 57.6719C79.9167 58.0885 79.7188 58.5781 79.5938 59.1406C79.4688 59.7031 79.4062 60.3073 79.4062 60.9531ZM102.719 66.1875V58.6562C102.719 58.1146 102.63 57.651 102.453 57.2656C102.276 56.8698 102 56.5625 101.625 56.3438C101.26 56.125 100.786 56.0156 100.203 56.0156C99.7031 56.0156 99.2708 56.1042 98.9062 56.2812C98.5417 56.4479 98.2604 56.6927 98.0625 57.0156C97.8646 57.3281 97.7656 57.6979 97.7656 58.125H93.2656C93.2656 57.4062 93.4323 56.724 93.7656 56.0781C94.099 55.4323 94.5833 54.8646 95.2188 54.375C95.8542 53.875 96.6094 53.4844 97.4844 53.2031C98.3698 52.9219 99.3594 52.7812 100.453 52.7812C101.766 52.7812 102.932 53 103.953 53.4375C104.974 53.875 105.776 54.5312 106.359 55.4062C106.953 56.2812 107.25 57.375 107.25 58.6875V65.9219C107.25 66.849 107.307 67.6094 107.422 68.2031C107.536 68.7865 107.703 69.2969 107.922 69.7344V70H103.375C103.156 69.5417 102.99 68.9688 102.875 68.2812C102.771 67.5833 102.719 66.8854 102.719 66.1875ZM103.312 59.7031L103.344 62.25H100.828C100.234 62.25 99.7188 62.3177 99.2812 62.4531C98.8438 62.5885 98.4844 62.7812 98.2031 63.0312C97.9219 63.2708 97.7135 63.5521 97.5781 63.875C97.4531 64.1979 97.3906 64.5521 97.3906 64.9375C97.3906 65.3229 97.4792 65.6719 97.6562 65.9844C97.8333 66.2865 98.0885 66.526 98.4219 66.7031C98.7552 66.8698 99.1458 66.9531 99.5938 66.9531C100.271 66.9531 100.859 66.8177 101.359 66.5469C101.859 66.276 102.245 65.9427 102.516 65.5469C102.797 65.151 102.943 64.776 102.953 64.4219L104.141 66.3281C103.974 66.7552 103.745 67.1979 103.453 67.6562C103.172 68.1146 102.812 68.5469 102.375 68.9531C101.938 69.349 101.411 69.6771 100.797 69.9375C100.182 70.1875 99.4531 70.3125 98.6094 70.3125C97.5365 70.3125 96.5625 70.099 95.6875 69.6719C94.8229 69.2344 94.1354 68.6354 93.625 67.875C93.125 67.1042 92.875 66.2292 92.875 65.25C92.875 64.3646 93.0417 63.5781 93.375 62.8906C93.7083 62.2031 94.1979 61.625 94.8438 61.1562C95.5 60.6771 96.3177 60.3177 97.2969 60.0781C98.276 59.8281 99.4115 59.7031 100.703 59.7031H103.312ZM119 53.0938V56.2812H109.156V53.0938H119ZM111.594 48.9219H116.094V64.9062C116.094 65.3958 116.156 65.7708 116.281 66.0312C116.417 66.2917 116.615 66.474 116.875 66.5781C117.135 66.6719 117.464 66.7188 117.859 66.7188C118.141 66.7188 118.391 66.7083 118.609 66.6875C118.839 66.6562 119.031 66.625 119.188 66.5938L119.203 69.9062C118.818 70.0312 118.401 70.1302 117.953 70.2031C117.505 70.276 117.01 70.3125 116.469 70.3125C115.479 70.3125 114.615 70.151 113.875 69.8281C113.146 69.4948 112.583 68.9635 112.188 68.2344C111.792 67.5052 111.594 66.5469 111.594 65.3594V48.9219ZM144.984 56.5156V60.1719H133.109V56.5156H144.984ZM134.5 47.25V70H129.812V47.25H134.5ZM148.328 47.25V70H143.656V47.25H148.328ZM161.25 66.1875V58.6562C161.25 58.1146 161.161 57.651 160.984 57.2656C160.807 56.8698 160.531 56.5625 160.156 56.3438C159.792 56.125 159.318 56.0156 158.734 56.0156C158.234 56.0156 157.802 56.1042 157.438 56.2812C157.073 56.4479 156.792 56.6927 156.594 57.0156C156.396 57.3281 156.297 57.6979 156.297 58.125H151.797C151.797 57.4062 151.964 56.724 152.297 56.0781C152.63 55.4323 153.115 54.8646 153.75 54.375C154.385 53.875 155.141 53.4844 156.016 53.2031C156.901 52.9219 157.891 52.7812 158.984 52.7812C160.297 52.7812 161.464 53 162.484 53.4375C163.505 53.875 164.307 54.5312 164.891 55.4062C165.484 56.2812 165.781 57.375 165.781 58.6875V65.9219C165.781 66.849 165.839 67.6094 165.953 68.2031C166.068 68.7865 166.234 69.2969 166.453 69.7344V70H161.906C161.688 69.5417 161.521 68.9688 161.406 68.2812C161.302 67.5833 161.25 66.8854 161.25 66.1875ZM161.844 59.7031L161.875 62.25H159.359C158.766 62.25 158.25 62.3177 157.812 62.4531C157.375 62.5885 157.016 62.7812 156.734 63.0312C156.453 63.2708 156.245 63.5521 156.109 63.875C155.984 64.1979 155.922 64.5521 155.922 64.9375C155.922 65.3229 156.01 65.6719 156.188 65.9844C156.365 66.2865 156.62 66.526 156.953 66.7031C157.286 66.8698 157.677 66.9531 158.125 66.9531C158.802 66.9531 159.391 66.8177 159.891 66.5469C160.391 66.276 160.776 65.9427 161.047 65.5469C161.328 65.151 161.474 64.776 161.484 64.4219L162.672 66.3281C162.505 66.7552 162.276 67.1979 161.984 67.6562C161.703 68.1146 161.344 68.5469 160.906 68.9531C160.469 69.349 159.943 69.6771 159.328 69.9375C158.714 70.1875 157.984 70.3125 157.141 70.3125C156.068 70.3125 155.094 70.099 154.219 69.6719C153.354 69.2344 152.667 68.6354 152.156 67.875C151.656 67.1042 151.406 66.2292 151.406 65.25C151.406 64.3646 151.573 63.5781 151.906 62.8906C152.24 62.2031 152.729 61.625 153.375 61.1562C154.031 60.6771 154.849 60.3177 155.828 60.0781C156.807 59.8281 157.943 59.7031 159.234 59.7031H161.844ZM178.391 65.3281C178.391 65.0052 178.297 64.7135 178.109 64.4531C177.922 64.1927 177.573 63.9531 177.062 63.7344C176.562 63.5052 175.839 63.2969 174.891 63.1094C174.036 62.9219 173.24 62.6875 172.5 62.4062C171.771 62.1146 171.135 61.7656 170.594 61.3594C170.062 60.9531 169.646 60.474 169.344 59.9219C169.042 59.3594 168.891 58.7188 168.891 58C168.891 57.2917 169.042 56.625 169.344 56C169.656 55.375 170.099 54.8229 170.672 54.3438C171.255 53.8542 171.964 53.474 172.797 53.2031C173.641 52.9219 174.589 52.7812 175.641 52.7812C177.109 52.7812 178.37 53.0156 179.422 53.4844C180.484 53.9531 181.297 54.599 181.859 55.4219C182.432 56.2344 182.719 57.1615 182.719 58.2031H178.219C178.219 57.7656 178.125 57.375 177.938 57.0312C177.76 56.6771 177.479 56.401 177.094 56.2031C176.719 55.9948 176.229 55.8906 175.625 55.8906C175.125 55.8906 174.693 55.9792 174.328 56.1562C173.964 56.3229 173.682 56.5521 173.484 56.8438C173.297 57.125 173.203 57.4375 173.203 57.7812C173.203 58.0417 173.255 58.276 173.359 58.4844C173.474 58.6823 173.656 58.8646 173.906 59.0312C174.156 59.1979 174.479 59.3542 174.875 59.5C175.281 59.6354 175.781 59.7604 176.375 59.875C177.594 60.125 178.682 60.4531 179.641 60.8594C180.599 61.2552 181.359 61.7969 181.922 62.4844C182.484 63.1615 182.766 64.0521 182.766 65.1562C182.766 65.9062 182.599 66.5938 182.266 67.2188C181.932 67.8438 181.453 68.3906 180.828 68.8594C180.203 69.3177 179.453 69.6771 178.578 69.9375C177.714 70.1875 176.74 70.3125 175.656 70.3125C174.083 70.3125 172.75 70.0312 171.656 69.4688C170.573 68.9062 169.75 68.1927 169.188 67.3281C168.635 66.4531 168.359 65.5573 168.359 64.6406H172.625C172.646 65.2552 172.802 65.75 173.094 66.125C173.396 66.5 173.776 66.7708 174.234 66.9375C174.703 67.1042 175.208 67.1875 175.75 67.1875C176.333 67.1875 176.818 67.1094 177.203 66.9531C177.589 66.7865 177.88 66.5677 178.078 66.2969C178.286 66.0156 178.391 65.6927 178.391 65.3281ZM190.438 53.0938V70H185.922V53.0938H190.438ZM185.641 48.6875C185.641 48.0312 185.87 47.4896 186.328 47.0625C186.786 46.6354 187.401 46.4219 188.172 46.4219C188.932 46.4219 189.542 46.6354 190 47.0625C190.469 47.4896 190.703 48.0312 190.703 48.6875C190.703 49.3438 190.469 49.8854 190 50.3125C189.542 50.7396 188.932 50.9531 188.172 50.9531C187.401 50.9531 186.786 50.7396 186.328 50.3125C185.87 49.8854 185.641 49.3438 185.641 48.6875ZM198.906 46V70H194.391V46H198.906ZM217.859 70H212.906L212.938 66.3438H217.859C219.089 66.3438 220.125 66.0677 220.969 65.5156C221.812 64.9531 222.448 64.1354 222.875 63.0625C223.312 61.9896 223.531 60.6927 223.531 59.1719V58.0625C223.531 56.8958 223.406 55.8698 223.156 54.9844C222.917 54.099 222.557 53.3542 222.078 52.75C221.599 52.1458 221.01 51.6927 220.312 51.3906C219.615 51.0781 218.812 50.9219 217.906 50.9219H212.812V47.25H217.906C219.427 47.25 220.818 47.5104 222.078 48.0312C223.349 48.5417 224.448 49.276 225.375 50.2344C226.302 51.1927 227.016 52.3385 227.516 53.6719C228.026 54.9948 228.281 56.4688 228.281 58.0938V59.1719C228.281 60.7865 228.026 62.2604 227.516 63.5938C227.016 64.9271 226.302 66.0729 225.375 67.0312C224.458 67.9792 223.359 68.7135 222.078 69.2344C220.807 69.7448 219.401 70 217.859 70ZM215.562 47.25V70H210.875V47.25H215.562ZM236.156 53.0938V70H231.641V53.0938H236.156ZM231.359 48.6875C231.359 48.0312 231.589 47.4896 232.047 47.0625C232.505 46.6354 233.12 46.4219 233.891 46.4219C234.651 46.4219 235.26 46.6354 235.719 47.0625C236.188 47.4896 236.422 48.0312 236.422 48.6875C236.422 49.3438 236.188 49.8854 235.719 50.3125C235.26 50.7396 234.651 50.9531 233.891 50.9531C233.12 50.9531 232.505 50.7396 232.047 50.3125C231.589 49.8854 231.359 49.3438 231.359 48.6875ZM249 66.1875V58.6562C249 58.1146 248.911 57.651 248.734 57.2656C248.557 56.8698 248.281 56.5625 247.906 56.3438C247.542 56.125 247.068 56.0156 246.484 56.0156C245.984 56.0156 245.552 56.1042 245.188 56.2812C244.823 56.4479 244.542 56.6927 244.344 57.0156C244.146 57.3281 244.047 57.6979 244.047 58.125H239.547C239.547 57.4062 239.714 56.724 240.047 56.0781C240.38 55.4323 240.865 54.8646 241.5 54.375C242.135 53.875 242.891 53.4844 243.766 53.2031C244.651 52.9219 245.641 52.7812 246.734 52.7812C248.047 52.7812 249.214 53 250.234 53.4375C251.255 53.875 252.057 54.5312 252.641 55.4062C253.234 56.2812 253.531 57.375 253.531 58.6875V65.9219C253.531 66.849 253.589 67.6094 253.703 68.2031C253.818 68.7865 253.984 69.2969 254.203 69.7344V70H249.656C249.438 69.5417 249.271 68.9688 249.156 68.2812C249.052 67.5833 249 66.8854 249 66.1875ZM249.594 59.7031L249.625 62.25H247.109C246.516 62.25 246 62.3177 245.562 62.4531C245.125 62.5885 244.766 62.7812 244.484 63.0312C244.203 63.2708 243.995 63.5521 243.859 63.875C243.734 64.1979 243.672 64.5521 243.672 64.9375C243.672 65.3229 243.76 65.6719 243.938 65.9844C244.115 66.2865 244.37 66.526 244.703 66.7031C245.036 66.8698 245.427 66.9531 245.875 66.9531C246.552 66.9531 247.141 66.8177 247.641 66.5469C248.141 66.276 248.526 65.9427 248.797 65.5469C249.078 65.151 249.224 64.776 249.234 64.4219L250.422 66.3281C250.255 66.7552 250.026 67.1979 249.734 67.6562C249.453 68.1146 249.094 68.5469 248.656 68.9531C248.219 69.349 247.693 69.6771 247.078 69.9375C246.464 70.1875 245.734 70.3125 244.891 70.3125C243.818 70.3125 242.844 70.099 241.969 69.6719C241.104 69.2344 240.417 68.6354 239.906 67.875C239.406 67.1042 239.156 66.2292 239.156 65.25C239.156 64.3646 239.323 63.5781 239.656 62.8906C239.99 62.2031 240.479 61.625 241.125 61.1562C241.781 60.6771 242.599 60.3177 243.578 60.0781C244.557 59.8281 245.693 59.7031 246.984 59.7031H249.594ZM267.703 53.0938H271.781V69.4375C271.781 70.9792 271.438 72.2865 270.75 73.3594C270.073 74.4427 269.125 75.2604 267.906 75.8125C266.688 76.375 265.271 76.6562 263.656 76.6562C262.948 76.6562 262.198 76.5625 261.406 76.375C260.625 76.1875 259.875 75.8958 259.156 75.5C258.448 75.1042 257.854 74.6042 257.375 74L259.359 71.3438C259.88 71.9479 260.484 72.4167 261.172 72.75C261.859 73.0938 262.62 73.2656 263.453 73.2656C264.266 73.2656 264.953 73.1146 265.516 72.8125C266.078 72.5208 266.51 72.0885 266.812 71.5156C267.115 70.9531 267.266 70.2708 267.266 69.4688V57L267.703 53.0938ZM256.328 61.75V61.4219C256.328 60.1302 256.484 58.9583 256.797 57.9062C257.12 56.8438 257.573 55.9323 258.156 55.1719C258.75 54.4115 259.469 53.8229 260.312 53.4062C261.156 52.9896 262.109 52.7812 263.172 52.7812C264.297 52.7812 265.24 52.9896 266 53.4062C266.76 53.8229 267.385 54.4167 267.875 55.1875C268.365 55.9479 268.745 56.849 269.016 57.8906C269.297 58.9219 269.516 60.0521 269.672 61.2812V62C269.516 63.1771 269.281 64.2708 268.969 65.2812C268.656 66.2917 268.245 67.1771 267.734 67.9375C267.224 68.6875 266.589 69.2708 265.828 69.6875C265.078 70.1042 264.182 70.3125 263.141 70.3125C262.099 70.3125 261.156 70.099 260.312 69.6719C259.479 69.2448 258.766 68.6458 258.172 67.875C257.578 67.1042 257.12 66.1979 256.797 65.1562C256.484 64.1146 256.328 62.9792 256.328 61.75ZM260.828 61.4219V61.75C260.828 62.4479 260.896 63.099 261.031 63.7031C261.167 64.3073 261.375 64.8438 261.656 65.3125C261.948 65.7708 262.307 66.1302 262.734 66.3906C263.172 66.6406 263.688 66.7656 264.281 66.7656C265.104 66.7656 265.776 66.5938 266.297 66.25C266.818 65.8958 267.208 65.4115 267.469 64.7969C267.729 64.1823 267.88 63.474 267.922 62.6719V60.625C267.901 59.9688 267.812 59.3802 267.656 58.8594C267.5 58.3281 267.281 57.875 267 57.5C266.719 57.125 266.354 56.8333 265.906 56.625C265.458 56.4167 264.927 56.3125 264.312 56.3125C263.719 56.3125 263.203 56.4479 262.766 56.7188C262.339 56.9792 261.979 57.3385 261.688 57.7969C261.406 58.2552 261.193 58.7969 261.047 59.4219C260.901 60.0365 260.828 60.7031 260.828 61.4219ZM279.688 56.7031V70H275.188V53.0938H279.406L279.688 56.7031ZM279.031 60.9531H277.812C277.812 59.7031 277.974 58.5781 278.297 57.5781C278.62 56.5677 279.073 55.7083 279.656 55C280.24 54.2812 280.932 53.7344 281.734 53.3594C282.547 52.974 283.453 52.7812 284.453 52.7812C285.245 52.7812 285.969 52.8958 286.625 53.125C287.281 53.3542 287.844 53.7188 288.312 54.2188C288.792 54.7188 289.156 55.3802 289.406 56.2031C289.667 57.026 289.797 58.0312 289.797 59.2188V70H285.266V59.2031C285.266 58.4531 285.161 57.8698 284.953 57.4531C284.745 57.0365 284.438 56.7448 284.031 56.5781C283.635 56.401 283.146 56.3125 282.562 56.3125C281.958 56.3125 281.432 56.4323 280.984 56.6719C280.547 56.9115 280.182 57.2448 279.891 57.6719C279.609 58.0885 279.396 58.5781 279.25 59.1406C279.104 59.7031 279.031 60.3073 279.031 60.9531ZM292.5 61.7188V61.3906C292.5 60.151 292.677 59.0104 293.031 57.9688C293.385 56.9167 293.901 56.0052 294.578 55.2344C295.255 54.4635 296.089 53.8646 297.078 53.4375C298.068 53 299.203 52.7812 300.484 52.7812C301.766 52.7812 302.906 53 303.906 53.4375C304.906 53.8646 305.745 54.4635 306.422 55.2344C307.109 56.0052 307.63 56.9167 307.984 57.9688C308.339 59.0104 308.516 60.151 308.516 61.3906V61.7188C308.516 62.9479 308.339 64.0885 307.984 65.1406C307.63 66.1823 307.109 67.0938 306.422 67.875C305.745 68.6458 304.911 69.2448 303.922 69.6719C302.932 70.099 301.797 70.3125 300.516 70.3125C299.234 70.3125 298.094 70.099 297.094 69.6719C296.104 69.2448 295.266 68.6458 294.578 67.875C293.901 67.0938 293.385 66.1823 293.031 65.1406C292.677 64.0885 292.5 62.9479 292.5 61.7188ZM297 61.3906V61.7188C297 62.4271 297.062 63.0885 297.188 63.7031C297.312 64.3177 297.51 64.8594 297.781 65.3281C298.062 65.7865 298.427 66.1458 298.875 66.4062C299.323 66.6667 299.87 66.7969 300.516 66.7969C301.141 66.7969 301.677 66.6667 302.125 66.4062C302.573 66.1458 302.932 65.7865 303.203 65.3281C303.474 64.8594 303.672 64.3177 303.797 63.7031C303.932 63.0885 304 62.4271 304 61.7188V61.3906C304 60.7031 303.932 60.0573 303.797 59.4531C303.672 58.8385 303.469 58.2969 303.188 57.8281C302.917 57.349 302.557 56.974 302.109 56.7031C301.661 56.4323 301.12 56.2969 300.484 56.2969C299.849 56.2969 299.307 56.4323 298.859 56.7031C298.422 56.974 298.062 57.349 297.781 57.8281C297.51 58.2969 297.312 58.8385 297.188 59.4531C297.062 60.0573 297 60.7031 297 61.3906ZM320.422 65.3281C320.422 65.0052 320.328 64.7135 320.141 64.4531C319.953 64.1927 319.604 63.9531 319.094 63.7344C318.594 63.5052 317.87 63.2969 316.922 63.1094C316.068 62.9219 315.271 62.6875 314.531 62.4062C313.802 62.1146 313.167 61.7656 312.625 61.3594C312.094 60.9531 311.677 60.474 311.375 59.9219C311.073 59.3594 310.922 58.7188 310.922 58C310.922 57.2917 311.073 56.625 311.375 56C311.688 55.375 312.13 54.8229 312.703 54.3438C313.286 53.8542 313.995 53.474 314.828 53.2031C315.672 52.9219 316.62 52.7812 317.672 52.7812C319.141 52.7812 320.401 53.0156 321.453 53.4844C322.516 53.9531 323.328 54.599 323.891 55.4219C324.464 56.2344 324.75 57.1615 324.75 58.2031H320.25C320.25 57.7656 320.156 57.375 319.969 57.0312C319.792 56.6771 319.51 56.401 319.125 56.2031C318.75 55.9948 318.26 55.8906 317.656 55.8906C317.156 55.8906 316.724 55.9792 316.359 56.1562C315.995 56.3229 315.714 56.5521 315.516 56.8438C315.328 57.125 315.234 57.4375 315.234 57.7812C315.234 58.0417 315.286 58.276 315.391 58.4844C315.505 58.6823 315.688 58.8646 315.938 59.0312C316.188 59.1979 316.51 59.3542 316.906 59.5C317.312 59.6354 317.812 59.7604 318.406 59.875C319.625 60.125 320.714 60.4531 321.672 60.8594C322.63 61.2552 323.391 61.7969 323.953 62.4844C324.516 63.1615 324.797 64.0521 324.797 65.1562C324.797 65.9062 324.63 66.5938 324.297 67.2188C323.964 67.8438 323.484 68.3906 322.859 68.8594C322.234 69.3177 321.484 69.6771 320.609 69.9375C319.745 70.1875 318.771 70.3125 317.688 70.3125C316.115 70.3125 314.781 70.0312 313.688 69.4688C312.604 68.9062 311.781 68.1927 311.219 67.3281C310.667 66.4531 310.391 65.5573 310.391 64.6406H314.656C314.677 65.2552 314.833 65.75 315.125 66.125C315.427 66.5 315.807 66.7708 316.266 66.9375C316.734 67.1042 317.24 67.1875 317.781 67.1875C318.365 67.1875 318.849 67.1094 319.234 66.9531C319.62 66.7865 319.911 66.5677 320.109 66.2969C320.318 66.0156 320.422 65.6927 320.422 65.3281ZM332.469 53.0938V70H327.953V53.0938H332.469ZM327.672 48.6875C327.672 48.0312 327.901 47.4896 328.359 47.0625C328.818 46.6354 329.432 46.4219 330.203 46.4219C330.964 46.4219 331.573 46.6354 332.031 47.0625C332.5 47.4896 332.734 48.0312 332.734 48.6875C332.734 49.3438 332.5 49.8854 332.031 50.3125C331.573 50.7396 330.964 50.9531 330.203 50.9531C329.432 50.9531 328.818 50.7396 328.359 50.3125C327.901 49.8854 327.672 49.3438 327.672 48.6875ZM345.328 65.3281C345.328 65.0052 345.234 64.7135 345.047 64.4531C344.859 64.1927 344.51 63.9531 344 63.7344C343.5 63.5052 342.776 63.2969 341.828 63.1094C340.974 62.9219 340.177 62.6875 339.438 62.4062C338.708 62.1146 338.073 61.7656 337.531 61.3594C337 60.9531 336.583 60.474 336.281 59.9219C335.979 59.3594 335.828 58.7188 335.828 58C335.828 57.2917 335.979 56.625 336.281 56C336.594 55.375 337.036 54.8229 337.609 54.3438C338.193 53.8542 338.901 53.474 339.734 53.2031C340.578 52.9219 341.526 52.7812 342.578 52.7812C344.047 52.7812 345.307 53.0156 346.359 53.4844C347.422 53.9531 348.234 54.599 348.797 55.4219C349.37 56.2344 349.656 57.1615 349.656 58.2031H345.156C345.156 57.7656 345.062 57.375 344.875 57.0312C344.698 56.6771 344.417 56.401 344.031 56.2031C343.656 55.9948 343.167 55.8906 342.562 55.8906C342.062 55.8906 341.63 55.9792 341.266 56.1562C340.901 56.3229 340.62 56.5521 340.422 56.8438C340.234 57.125 340.141 57.4375 340.141 57.7812C340.141 58.0417 340.193 58.276 340.297 58.4844C340.411 58.6823 340.594 58.8646 340.844 59.0312C341.094 59.1979 341.417 59.3542 341.812 59.5C342.219 59.6354 342.719 59.7604 343.312 59.875C344.531 60.125 345.62 60.4531 346.578 60.8594C347.536 61.2552 348.297 61.7969 348.859 62.4844C349.422 63.1615 349.703 64.0521 349.703 65.1562C349.703 65.9062 349.536 66.5938 349.203 67.2188C348.87 67.8438 348.391 68.3906 347.766 68.8594C347.141 69.3177 346.391 69.6771 345.516 69.9375C344.651 70.1875 343.677 70.3125 342.594 70.3125C341.021 70.3125 339.688 70.0312 338.594 69.4688C337.51 68.9062 336.688 68.1927 336.125 67.3281C335.573 66.4531 335.297 65.5573 335.297 64.6406H339.562C339.583 65.2552 339.74 65.75 340.031 66.125C340.333 66.5 340.714 66.7708 341.172 66.9375C341.641 67.1042 342.146 67.1875 342.688 67.1875C343.271 67.1875 343.755 67.1094 344.141 66.9531C344.526 66.7865 344.818 66.5677 345.016 66.2969C345.224 66.0156 345.328 65.6927 345.328 65.3281Z" fill="#F7F7F7"/>
</g>
<defs>
<filter id="filter0_d_135_184" x="0.15625" y="0" width="399.547" height="130.656" filterUnits="userSpaceOnUse" color-interpolation-filters="sRGB">
<feFlood flood-opacity="0" result="BackgroundImageFix"/>
<feColorMatrix in="SourceAlpha" type="matrix" values="0 0 0 0 0 0 0 0 0 0 0 0 0 0 0 0 0 0 127 0" result="hardAlpha"/>
<feOffset dy="4"/>
<feGaussianBlur stdDeviation="25"/>
<feComposite in2="hardAlpha" operator="out"/>
<feColorMatrix type="matrix" values="0 0 0 0 0 0 0 0 0 0 0 0 0 0 0 0 0 0 0.25 0"/>
<feBlend mode="normal" in2="BackgroundImageFix" result="effect1_dropShadow_135_184"/>
<feBlend mode="normal" in="SourceGraphic" in2="effect1_dropShadow_135_184" result="shape"/>
</filter>
</defs>
</svg>
