<svg width="256" height="30" viewBox="0 0 256 30" fill="none" xmlns="http://www.w3.org/2000/svg">
<path d="M0.0215596 29V0.999998H5.14156L18.3016 20.72V0.999998H23.4216V29H18.3016L5.14156 9.32V29H0.0215596ZM37.1697 29.48C35.463 29.48 34.063 29.2133 32.9697 28.68C31.8764 28.12 31.063 27.3867 30.5297 26.48C29.9964 25.5733 29.7297 24.5733 29.7297 23.48C29.7297 21.64 30.4497 20.1467 31.8897 19C33.3297 17.8533 35.4897 17.28 38.3697 17.28H43.4097V16.8C43.4097 15.44 43.023 14.44 42.2497 13.8C41.4764 13.16 40.5164 12.84 39.3697 12.84C38.3297 12.84 37.423 13.0933 36.6497 13.6C35.8764 14.08 35.3964 14.8 35.2097 15.76H30.2097C30.343 14.32 30.823 13.0667 31.6497 12C32.503 10.9333 33.5964 10.12 34.9297 9.56C36.263 8.97333 37.7564 8.68 39.4097 8.68C42.2364 8.68 44.463 9.38667 46.0897 10.8C47.7164 12.2133 48.5297 14.2133 48.5297 16.8V29H44.1697L43.6897 25.8C43.103 26.8667 42.2764 27.7467 41.2097 28.44C40.1697 29.1333 38.823 29.48 37.1697 29.48ZM38.3297 25.48C39.7964 25.48 40.9297 25 41.7297 24.04C42.5564 23.08 43.0764 21.8933 43.2897 20.48H38.9297C37.5697 20.48 36.5964 20.7333 36.0097 21.24C35.423 21.72 35.1297 22.32 35.1297 23.04C35.1297 23.8133 35.423 24.4133 36.0097 24.84C36.5964 25.2667 37.3697 25.48 38.3297 25.48ZM55.0156 29V9.16H59.5356L59.9756 11.84C60.6156 10.88 61.4556 10.12 62.4956 9.56C63.5623 8.97333 64.789 8.68 66.1756 8.68C69.2423 8.68 71.4156 9.86667 72.6956 12.24C73.4156 11.1467 74.3756 10.28 75.5756 9.64C76.8023 9 78.1356 8.68 79.5756 8.68C82.1623 8.68 84.149 9.45333 85.5356 11C86.9223 12.5467 87.6156 14.8133 87.6156 17.8V29H82.4956V18.28C82.4956 16.5733 82.1623 15.2667 81.4956 14.36C80.8556 13.4533 79.8556 13 78.4956 13C77.109 13 75.989 13.5067 75.1356 14.52C74.309 15.5333 73.8956 16.9467 73.8956 18.76V29H68.7756V18.28C68.7756 16.5733 68.4423 15.2667 67.7756 14.36C67.109 13.4533 66.0823 13 64.6956 13C63.3356 13 62.229 13.5067 61.3756 14.52C60.549 15.5333 60.1356 16.9467 60.1356 18.76V29H55.0156ZM100.917 29.48C99.2099 29.48 97.8099 29.2133 96.7166 28.68C95.6232 28.12 94.8099 27.3867 94.2766 26.48C93.7432 25.5733 93.4766 24.5733 93.4766 23.48C93.4766 21.64 94.1966 20.1467 95.6366 19C97.0766 17.8533 99.2366 17.28 102.117 17.28H107.157V16.8C107.157 15.44 106.77 14.44 105.997 13.8C105.223 13.16 104.263 12.84 103.117 12.84C102.077 12.84 101.17 13.0933 100.397 13.6C99.6232 14.08 99.1432 14.8 98.9566 15.76H93.9566C94.0899 14.32 94.5699 13.0667 95.3966 12C96.2499 10.9333 97.3432 10.12 98.6766 9.56C100.01 8.97333 101.503 8.68 103.157 8.68C105.983 8.68 108.21 9.38667 109.837 10.8C111.463 12.2133 112.277 14.2133 112.277 16.8V29H107.917L107.437 25.8C106.85 26.8667 106.023 27.7467 104.957 28.44C103.917 29.1333 102.57 29.48 100.917 29.48ZM102.077 25.48C103.543 25.48 104.677 25 105.477 24.04C106.303 23.08 106.823 21.8933 107.037 20.48H102.677C101.317 20.48 100.343 20.7333 99.7566 21.24C99.1699 21.72 98.8766 22.32 98.8766 23.04C98.8766 23.8133 99.1699 24.4133 99.7566 24.84C100.343 25.2667 101.117 25.48 102.077 25.48ZM141.654 29.48C140.16 29.48 138.854 29.2 137.734 28.64C136.614 28.08 135.707 27.2933 135.014 26.28L134.454 29H129.894V0.199999H135.014V12C135.654 11.12 136.494 10.3467 137.534 9.68C138.6 9.01333 139.974 8.68 141.654 8.68C143.52 8.68 145.187 9.13333 146.654 10.04C148.12 10.9467 149.28 12.1867 150.134 13.76C150.987 15.3333 151.414 17.12 151.414 19.12C151.414 21.12 150.987 22.9067 150.134 24.48C149.28 26.0267 148.12 27.2533 146.654 28.16C145.187 29.04 143.52 29.48 141.654 29.48ZM140.574 25C142.2 25 143.547 24.4533 144.614 23.36C145.68 22.2667 146.214 20.8533 146.214 19.12C146.214 17.3867 145.68 15.96 144.614 14.84C143.547 13.72 142.2 13.16 140.574 13.16C138.92 13.16 137.56 13.72 136.494 14.84C135.454 15.9333 134.934 17.3467 134.934 19.08C134.934 20.8133 135.454 22.24 136.494 23.36C137.56 24.4533 138.92 25 140.574 25ZM164.428 29.48C162.721 29.48 161.321 29.2133 160.228 28.68C159.134 28.12 158.321 27.3867 157.788 26.48C157.254 25.5733 156.988 24.5733 156.988 23.48C156.988 21.64 157.708 20.1467 159.148 19C160.588 17.8533 162.748 17.28 165.628 17.28H170.668V16.8C170.668 15.44 170.281 14.44 169.508 13.8C168.734 13.16 167.774 12.84 166.628 12.84C165.588 12.84 164.681 13.0933 163.908 13.6C163.134 14.08 162.654 14.8 162.468 15.76H157.468C157.601 14.32 158.081 13.0667 158.908 12C159.761 10.9333 160.854 10.12 162.188 9.56C163.521 8.97333 165.014 8.68 166.668 8.68C169.494 8.68 171.721 9.38667 173.348 10.8C174.974 12.2133 175.788 14.2133 175.788 16.8V29H171.428L170.948 25.8C170.361 26.8667 169.534 27.7467 168.468 28.44C167.428 29.1333 166.081 29.48 164.428 29.48ZM165.588 25.48C167.054 25.48 168.188 25 168.988 24.04C169.814 23.08 170.334 21.8933 170.548 20.48H166.188C164.828 20.48 163.854 20.7333 163.268 21.24C162.681 21.72 162.388 22.32 162.388 23.04C162.388 23.8133 162.681 24.4133 163.268 24.84C163.854 25.2667 164.628 25.48 165.588 25.48ZM182.273 29V0.199999H187.393V29H182.273ZM196.985 6.08C196.052 6.08 195.278 5.8 194.665 5.24C194.078 4.68 193.785 3.97333 193.785 3.12C193.785 2.26667 194.078 1.57333 194.665 1.04C195.278 0.479998 196.052 0.199999 196.985 0.199999C197.918 0.199999 198.678 0.479998 199.265 1.04C199.878 1.57333 200.185 2.26667 200.185 3.12C200.185 3.97333 199.878 4.68 199.265 5.24C198.678 5.8 197.918 6.08 196.985 6.08ZM194.425 29V9.16H199.545V29H194.425ZM215.329 29C213.249 29 211.582 28.4933 210.329 27.48C209.076 26.4667 208.449 24.6667 208.449 22.08V13.44H205.049V9.16H208.449L209.049 3.84H213.569V9.16H218.929V13.44H213.569V22.12C213.569 23.08 213.769 23.7467 214.169 24.12C214.596 24.4667 215.316 24.64 216.329 24.64H218.809V29H215.329ZM231.765 29.48C230.058 29.48 228.658 29.2133 227.565 28.68C226.472 28.12 225.658 27.3867 225.125 26.48C224.592 25.5733 224.325 24.5733 224.325 23.48C224.325 21.64 225.045 20.1467 226.485 19C227.925 17.8533 230.085 17.28 232.965 17.28H238.005V16.8C238.005 15.44 237.618 14.44 236.845 13.8C236.072 13.16 235.112 12.84 233.965 12.84C232.925 12.84 232.018 13.0933 231.245 13.6C230.472 14.08 229.992 14.8 229.805 15.76H224.805C224.938 14.32 225.418 13.0667 226.245 12C227.098 10.9333 228.192 10.12 229.525 9.56C230.858 8.97333 232.352 8.68 234.005 8.68C236.832 8.68 239.058 9.38667 240.685 10.8C242.312 12.2133 243.125 14.2133 243.125 16.8V29H238.765L238.285 25.8C237.698 26.8667 236.872 27.7467 235.805 28.44C234.765 29.1333 233.418 29.48 231.765 29.48ZM232.925 25.48C234.392 25.48 235.525 25 236.325 24.04C237.152 23.08 237.672 21.8933 237.885 20.48H233.525C232.165 20.48 231.192 20.7333 230.605 21.24C230.018 21.72 229.725 22.32 229.725 23.04C229.725 23.8133 230.018 24.4133 230.605 24.84C231.192 25.2667 231.965 25.48 232.925 25.48ZM251.811 29.28C250.878 29.28 250.104 28.9867 249.491 28.4C248.904 27.8133 248.611 27.1067 248.611 26.28C248.611 25.4267 248.904 24.7067 249.491 24.12C250.104 23.5333 250.878 23.24 251.811 23.24C252.744 23.24 253.504 23.5333 254.091 24.12C254.704 24.7067 255.011 25.4267 255.011 26.28C255.011 27.1067 254.704 27.8133 254.091 28.4C253.504 28.9867 252.744 29.28 251.811 29.28ZM251.811 14.72C250.878 14.72 250.104 14.4267 249.491 13.84C248.904 13.2533 248.611 12.5467 248.611 11.72C248.611 10.8667 248.904 10.1467 249.491 9.56C250.104 8.97333 250.878 8.68 251.811 8.68C252.744 8.68 253.504 8.97333 254.091 9.56C254.704 10.1467 255.011 10.8667 255.011 11.72C255.011 12.5467 254.704 13.2533 254.091 13.84C253.504 14.4267 252.744 14.72 251.811 14.72Z" fill="black"/>
</svg>
