<svg width="422" height="29" viewBox="0 0 422 29" fill="none" xmlns="http://www.w3.org/2000/svg">
<path d="M0.428672 22V0.999999H8.19867C9.87867 0.999999 11.2687 1.28 12.3687 1.84C13.4687 2.4 14.2887 3.17 14.8287 4.15C15.3687 5.13 15.6387 6.23 15.6387 7.45C15.6387 8.61 15.3787 9.68 14.8587 10.66C14.3387 11.62 13.5287 12.4 12.4287 13C11.3287 13.58 9.91867 13.87 8.19867 13.87H4.26867V22H0.428672ZM4.26867 10.75H7.95867C9.29867 10.75 10.2587 10.46 10.8387 9.88C11.4387 9.28 11.7387 8.47 11.7387 7.45C11.7387 6.41 11.4387 5.6 10.8387 5.02C10.2587 4.42 9.29867 4.12 7.95867 4.12H4.26867V10.75ZM26.2296 22.36C24.7296 22.36 23.3996 22.04 22.2396 21.4C21.0796 20.76 20.1696 19.86 19.5096 18.7C18.8496 17.54 18.5196 16.2 18.5196 14.68C18.5196 13.14 18.8396 11.77 19.4796 10.57C20.1396 9.37 21.0396 8.44 22.1796 7.78C23.3396 7.1 24.6996 6.76 26.2596 6.76C27.7196 6.76 29.0096 7.08 30.1296 7.72C31.2496 8.36 32.1196 9.24 32.7396 10.36C33.3796 11.46 33.6996 12.69 33.6996 14.05C33.6996 14.27 33.6896 14.5 33.6696 14.74C33.6696 14.98 33.6596 15.23 33.6396 15.49H22.3296C22.4096 16.65 22.8096 17.56 23.5296 18.22C24.2696 18.88 25.1596 19.21 26.1996 19.21C26.9796 19.21 27.6296 19.04 28.1496 18.7C28.6896 18.34 29.0896 17.88 29.3496 17.32H33.2496C32.9696 18.26 32.4996 19.12 31.8396 19.9C31.1996 20.66 30.3996 21.26 29.4396 21.7C28.4996 22.14 27.4296 22.36 26.2296 22.36ZM26.2596 9.88C25.3196 9.88 24.4896 10.15 23.7696 10.69C23.0496 11.21 22.5896 12.01 22.3896 13.09H29.7996C29.7396 12.11 29.3796 11.33 28.7196 10.75C28.0596 10.17 27.2396 9.88 26.2596 9.88ZM38.1293 22V7.12H41.5193L41.8493 9.13C42.3293 8.41 42.9593 7.84 43.7393 7.42C44.5393 6.98 45.4593 6.76 46.4993 6.76C48.7993 6.76 50.4293 7.65 51.3893 9.43C51.9293 8.61 52.6493 7.96 53.5493 7.48C54.4693 7 55.4693 6.76 56.5493 6.76C58.4893 6.76 59.9793 7.34 61.0193 8.5C62.0593 9.66 62.5793 11.36 62.5793 13.6V22H58.7393V13.96C58.7393 12.68 58.4893 11.7 57.9893 11.02C57.5093 10.34 56.7593 10 55.7393 10C54.6993 10 53.8593 10.38 53.2193 11.14C52.5993 11.9 52.2893 12.96 52.2893 14.32V22H48.4493V13.96C48.4493 12.68 48.1993 11.7 47.6993 11.02C47.1993 10.34 46.4293 10 45.3893 10C44.3693 10 43.5393 10.38 42.8993 11.14C42.2793 11.9 41.9693 12.96 41.9693 14.32V22H38.1293ZM76.245 22.36C75.125 22.36 74.145 22.15 73.305 21.73C72.465 21.31 71.785 20.72 71.265 19.96L70.845 22H67.425V0.399999H71.265V9.25C71.745 8.59 72.375 8.01 73.155 7.51C73.955 7.01 74.985 6.76 76.245 6.76C77.645 6.76 78.895 7.1 79.995 7.78C81.095 8.46 81.965 9.39 82.605 10.57C83.245 11.75 83.565 13.09 83.565 14.59C83.565 16.09 83.245 17.43 82.605 18.61C81.965 19.77 81.095 20.69 79.995 21.37C78.895 22.03 77.645 22.36 76.245 22.36ZM75.435 19C76.655 19 77.665 18.59 78.465 17.77C79.265 16.95 79.665 15.89 79.665 14.59C79.665 13.29 79.265 12.22 78.465 11.38C77.665 10.54 76.655 10.12 75.435 10.12C74.195 10.12 73.175 10.54 72.375 11.38C71.595 12.2 71.205 13.26 71.205 14.56C71.205 15.86 71.595 16.93 72.375 17.77C73.175 18.59 74.195 19 75.435 19ZM95.4253 22.36C93.9253 22.36 92.5953 22.04 91.4353 21.4C90.2753 20.76 89.3653 19.86 88.7053 18.7C88.0453 17.54 87.7153 16.2 87.7153 14.68C87.7153 13.14 88.0353 11.77 88.6753 10.57C89.3353 9.37 90.2353 8.44 91.3753 7.78C92.5353 7.1 93.8953 6.76 95.4553 6.76C96.9153 6.76 98.2053 7.08 99.3253 7.72C100.445 8.36 101.315 9.24 101.935 10.36C102.575 11.46 102.895 12.69 102.895 14.05C102.895 14.27 102.885 14.5 102.865 14.74C102.865 14.98 102.855 15.23 102.835 15.49H91.5253C91.6053 16.65 92.0053 17.56 92.7253 18.22C93.4653 18.88 94.3553 19.21 95.3953 19.21C96.1753 19.21 96.8253 19.04 97.3453 18.7C97.8853 18.34 98.2853 17.88 98.5453 17.32H102.445C102.165 18.26 101.695 19.12 101.035 19.9C100.395 20.66 99.5953 21.26 98.6353 21.7C97.6953 22.14 96.6253 22.36 95.4253 22.36ZM95.4553 9.88C94.5153 9.88 93.6853 10.15 92.9653 10.69C92.2453 11.21 91.7853 12.01 91.5853 13.09H98.9953C98.9353 12.11 98.5753 11.33 97.9153 10.75C97.2553 10.17 96.4353 9.88 95.4553 9.88ZM107.325 22V7.12H110.745L111.105 9.91C111.645 8.95 112.375 8.19 113.295 7.63C114.235 7.05 115.335 6.76 116.595 6.76V10.81H115.515C114.675 10.81 113.925 10.94 113.265 11.2C112.605 11.46 112.085 11.91 111.705 12.55C111.345 13.19 111.165 14.08 111.165 15.22V22H107.325ZM122.49 4.81C121.79 4.81 121.21 4.6 120.75 4.18C120.31 3.76 120.09 3.23 120.09 2.59C120.09 1.95 120.31 1.43 120.75 1.03C121.21 0.609999 121.79 0.399999 122.49 0.399999C123.19 0.399999 123.76 0.609999 124.2 1.03C124.66 1.43 124.89 1.95 124.89 2.59C124.89 3.23 124.66 3.76 124.2 4.18C123.76 4.6 123.19 4.81 122.49 4.81ZM120.57 22V7.12H124.41V22H120.57ZM134.748 22.36C133.468 22.36 132.418 22.16 131.598 21.76C130.778 21.34 130.168 20.79 129.768 20.11C129.368 19.43 129.168 18.68 129.168 17.86C129.168 16.48 129.708 15.36 130.788 14.5C131.868 13.64 133.488 13.21 135.648 13.21H139.428V12.85C139.428 11.83 139.138 11.08 138.558 10.6C137.978 10.12 137.258 9.88 136.398 9.88C135.618 9.88 134.938 10.07 134.358 10.45C133.778 10.81 133.418 11.35 133.278 12.07H129.528C129.628 10.99 129.988 10.05 130.608 9.25C131.248 8.45 132.068 7.84 133.068 7.42C134.068 6.98 135.188 6.76 136.428 6.76C138.548 6.76 140.218 7.29 141.438 8.35C142.658 9.41 143.268 10.91 143.268 12.85V22H139.998L139.638 19.6C139.198 20.4 138.578 21.06 137.778 21.58C136.998 22.1 135.988 22.36 134.748 22.36ZM135.618 19.36C136.718 19.36 137.568 19 138.168 18.28C138.788 17.56 139.178 16.67 139.338 15.61H136.068C135.048 15.61 134.318 15.8 133.878 16.18C133.438 16.54 133.218 16.99 133.218 17.53C133.218 18.11 133.438 18.56 133.878 18.88C134.318 19.2 134.898 19.36 135.618 19.36ZM148.132 22V7.12H151.522L151.822 9.64C152.282 8.76 152.942 8.06 153.802 7.54C154.682 7.02 155.712 6.76 156.892 6.76C158.732 6.76 160.162 7.34 161.182 8.5C162.202 9.66 162.712 11.36 162.712 13.6V22H158.872V13.96C158.872 12.68 158.612 11.7 158.092 11.02C157.572 10.34 156.762 10 155.662 10C154.582 10 153.692 10.38 152.992 11.14C152.312 11.9 151.972 12.96 151.972 14.32V22H148.132ZM185.202 22.36C183.222 22.36 181.492 21.91 180.012 21.01C178.532 20.11 177.382 18.86 176.562 17.26C175.742 15.64 175.332 13.76 175.332 11.62C175.332 9.46 175.752 7.56 176.592 5.92C177.452 4.26 178.662 2.97 180.222 2.05C181.802 1.11 183.672 0.64 185.832 0.64C188.292 0.64 190.332 1.23 191.952 2.41C193.572 3.59 194.622 5.22 195.102 7.3H190.812C190.492 6.32 189.912 5.56 189.072 5.02C188.232 4.46 187.152 4.18 185.832 4.18C183.732 4.18 182.112 4.85 180.972 6.19C179.832 7.51 179.262 9.33 179.262 11.65C179.262 13.97 179.822 15.77 180.942 17.05C182.082 18.31 183.622 18.94 185.562 18.94C187.462 18.94 188.892 18.43 189.852 17.41C190.832 16.37 191.422 15.01 191.622 13.33H186.312V10.45H195.492V22H191.952L191.652 19.24C190.972 20.24 190.122 21.01 189.102 21.55C188.082 22.09 186.782 22.36 185.202 22.36ZM202.406 4.81C201.706 4.81 201.126 4.6 200.666 4.18C200.226 3.76 200.006 3.23 200.006 2.59C200.006 1.95 200.226 1.43 200.666 1.03C201.126 0.609999 201.706 0.399999 202.406 0.399999C203.106 0.399999 203.676 0.609999 204.116 1.03C204.576 1.43 204.806 1.95 204.806 2.59C204.806 3.23 204.576 3.76 204.116 4.18C203.676 4.6 203.106 4.81 202.406 4.81ZM200.486 22V7.12H204.326V22H200.486ZM208.574 22V18.91L216.164 10.3H208.664V7.12H220.544V10.21L212.834 18.82H220.694V22H208.574ZM227.159 4.81C226.459 4.81 225.879 4.6 225.419 4.18C224.979 3.76 224.759 3.23 224.759 2.59C224.759 1.95 224.979 1.43 225.419 1.03C225.879 0.609999 226.459 0.399999 227.159 0.399999C227.859 0.399999 228.429 0.609999 228.869 1.03C229.329 1.43 229.559 1.95 229.559 2.59C229.559 3.23 229.329 3.76 228.869 4.18C228.429 4.6 227.859 4.81 227.159 4.81ZM225.239 22V7.12H229.079V22H225.239ZM242.636 22V0.399999H246.476V13.15L251.756 7.12H256.316L250.226 13.9L257.306 22H252.506L246.476 14.53V22H242.636ZM266.466 22.36C264.606 22.36 263.166 21.78 262.146 20.62C261.146 19.46 260.646 17.76 260.646 15.52V7.12H264.456V15.16C264.456 16.44 264.716 17.42 265.236 18.1C265.756 18.78 266.576 19.12 267.696 19.12C268.756 19.12 269.626 18.74 270.306 17.98C271.006 17.22 271.356 16.16 271.356 14.8V7.12H275.196V22H271.806L271.506 19.48C271.046 20.36 270.376 21.06 269.496 21.58C268.636 22.1 267.626 22.36 266.466 22.36ZM280.338 22V7.12H283.758L284.118 9.91C284.658 8.95 285.388 8.19 286.308 7.63C287.248 7.05 288.348 6.76 289.608 6.76V10.81H288.528C287.688 10.81 286.938 10.94 286.278 11.2C285.618 11.46 285.098 11.91 284.718 12.55C284.358 13.19 284.178 14.08 284.178 15.22V22H280.338ZM298.563 22.36C297.283 22.36 296.233 22.16 295.413 21.76C294.593 21.34 293.983 20.79 293.583 20.11C293.183 19.43 292.983 18.68 292.983 17.86C292.983 16.48 293.523 15.36 294.603 14.5C295.683 13.64 297.303 13.21 299.463 13.21H303.243V12.85C303.243 11.83 302.953 11.08 302.373 10.6C301.793 10.12 301.073 9.88 300.213 9.88C299.433 9.88 298.753 10.07 298.173 10.45C297.593 10.81 297.233 11.35 297.093 12.07H293.343C293.443 10.99 293.803 10.05 294.423 9.25C295.063 8.45 295.883 7.84 296.883 7.42C297.883 6.98 299.003 6.76 300.243 6.76C302.363 6.76 304.033 7.29 305.253 8.35C306.473 9.41 307.083 10.91 307.083 12.85V22H303.813L303.453 19.6C303.013 20.4 302.393 21.06 301.593 21.58C300.813 22.1 299.803 22.36 298.563 22.36ZM299.433 19.36C300.533 19.36 301.383 19 301.983 18.28C302.603 17.56 302.993 16.67 303.153 15.61H299.883C298.863 15.61 298.133 15.8 297.693 16.18C297.253 16.54 297.033 16.99 297.033 17.53C297.033 18.11 297.253 18.56 297.693 18.88C298.133 19.2 298.713 19.36 299.433 19.36ZM311.947 22V7.12H315.337L315.637 9.64C316.097 8.76 316.757 8.06 317.617 7.54C318.497 7.02 319.527 6.76 320.707 6.76C322.547 6.76 323.977 7.34 324.997 8.5C326.017 9.66 326.527 11.36 326.527 13.6V22H322.687V13.96C322.687 12.68 322.427 11.7 321.907 11.02C321.387 10.34 320.577 10 319.477 10C318.397 10 317.507 10.38 316.807 11.14C316.127 11.9 315.787 12.96 315.787 14.32V22H311.947ZM337.699 17.56C336.979 17.56 336.309 17.48 335.689 17.32L334.579 18.43C334.919 18.61 335.379 18.76 335.959 18.88C336.539 19 337.479 19.12 338.779 19.24C340.759 19.42 342.199 19.89 343.099 20.65C343.999 21.41 344.449 22.46 344.449 23.8C344.449 24.68 344.209 25.51 343.729 26.29C343.249 27.09 342.509 27.73 341.509 28.21C340.509 28.71 339.229 28.96 337.669 28.96C335.549 28.96 333.839 28.56 332.539 27.76C331.239 26.98 330.589 25.8 330.589 24.22C330.589 22.88 331.239 21.72 332.539 20.74C332.139 20.56 331.789 20.37 331.489 20.17C331.209 19.97 330.959 19.76 330.739 19.54V18.85L333.349 16.09C332.189 15.07 331.609 13.76 331.609 12.16C331.609 11.16 331.849 10.25 332.329 9.43C332.829 8.61 333.529 7.96 334.429 7.48C335.329 7 336.419 6.76 337.699 6.76C338.539 6.76 339.319 6.88 340.039 7.12H345.679V9.46L343.129 9.64C343.529 10.4 343.729 11.24 343.729 12.16C343.729 13.16 343.489 14.07 343.009 14.89C342.529 15.71 341.829 16.36 340.909 16.84C340.009 17.32 338.939 17.56 337.699 17.56ZM337.699 14.62C338.479 14.62 339.119 14.41 339.619 13.99C340.139 13.57 340.399 12.97 340.399 12.19C340.399 11.41 340.139 10.81 339.619 10.39C339.119 9.97 338.479 9.76 337.699 9.76C336.879 9.76 336.219 9.97 335.719 10.39C335.219 10.81 334.969 11.41 334.969 12.19C334.969 12.97 335.219 13.57 335.719 13.99C336.219 14.41 336.879 14.62 337.699 14.62ZM334.099 23.83C334.099 24.57 334.439 25.12 335.119 25.48C335.819 25.86 336.669 26.05 337.669 26.05C338.629 26.05 339.409 25.85 340.009 25.45C340.609 25.07 340.909 24.55 340.909 23.89C340.909 23.35 340.709 22.9 340.309 22.54C339.929 22.18 339.159 21.96 337.999 21.88C337.179 21.82 336.419 21.73 335.719 21.61C335.139 21.93 334.719 22.28 334.459 22.66C334.219 23.04 334.099 23.43 334.099 23.83ZM366.848 22.36C365.728 22.36 364.748 22.15 363.908 21.73C363.068 21.31 362.388 20.72 361.868 19.96L361.448 22H358.028V0.399999H361.868V9.25C362.348 8.59 362.978 8.01 363.758 7.51C364.558 7.01 365.588 6.76 366.848 6.76C368.248 6.76 369.498 7.1 370.598 7.78C371.698 8.46 372.568 9.39 373.208 10.57C373.848 11.75 374.168 13.09 374.168 14.59C374.168 16.09 373.848 17.43 373.208 18.61C372.568 19.77 371.698 20.69 370.598 21.37C369.498 22.03 368.248 22.36 366.848 22.36ZM366.038 19C367.258 19 368.268 18.59 369.068 17.77C369.868 16.95 370.268 15.89 370.268 14.59C370.268 13.29 369.868 12.22 369.068 11.38C368.268 10.54 367.258 10.12 366.038 10.12C364.798 10.12 363.778 10.54 362.978 11.38C362.198 12.2 361.808 13.26 361.808 14.56C361.808 15.86 362.198 16.93 362.978 17.77C363.778 18.59 364.798 19 366.038 19ZM383.928 22.36C382.648 22.36 381.598 22.16 380.778 21.76C379.958 21.34 379.348 20.79 378.948 20.11C378.548 19.43 378.348 18.68 378.348 17.86C378.348 16.48 378.888 15.36 379.968 14.5C381.048 13.64 382.668 13.21 384.828 13.21H388.608V12.85C388.608 11.83 388.318 11.08 387.738 10.6C387.158 10.12 386.438 9.88 385.578 9.88C384.798 9.88 384.118 10.07 383.538 10.45C382.958 10.81 382.598 11.35 382.458 12.07H378.708C378.808 10.99 379.168 10.05 379.788 9.25C380.428 8.45 381.248 7.84 382.248 7.42C383.248 6.98 384.368 6.76 385.608 6.76C387.728 6.76 389.398 7.29 390.618 8.35C391.838 9.41 392.448 10.91 392.448 12.85V22H389.178L388.818 19.6C388.378 20.4 387.758 21.06 386.958 21.58C386.178 22.1 385.168 22.36 383.928 22.36ZM384.798 19.36C385.898 19.36 386.748 19 387.348 18.28C387.968 17.56 388.358 16.67 388.518 15.61H385.248C384.228 15.61 383.498 15.8 383.058 16.18C382.618 16.54 382.398 16.99 382.398 17.53C382.398 18.11 382.618 18.56 383.058 18.88C383.498 19.2 384.078 19.36 384.798 19.36ZM399.382 4.81C398.682 4.81 398.102 4.6 397.642 4.18C397.202 3.76 396.982 3.23 396.982 2.59C396.982 1.95 397.202 1.43 397.642 1.03C398.102 0.609999 398.682 0.399999 399.382 0.399999C400.082 0.399999 400.652 0.609999 401.092 1.03C401.552 1.43 401.782 1.95 401.782 2.59C401.782 3.23 401.552 3.76 401.092 4.18C400.652 4.6 400.082 4.81 399.382 4.81ZM397.462 22V7.12H401.302V22H397.462ZM406.511 22V0.399999H410.351V13.15L415.631 7.12H420.191L414.101 13.9L421.181 22H416.381L410.351 14.53V22H406.511Z" fill="black"/>
</svg>
