<svg width="94" height="30" viewBox="0 0 94 30" fill="none" xmlns="http://www.w3.org/2000/svg">
<path d="M10.9802 29.48C8.92682 29.48 7.07349 29.08 5.42016 28.28C3.76682 27.4533 2.44682 26.2133 1.46016 24.56C0.500156 22.9067 0.0201556 20.8133 0.0201556 18.28V0.999998H5.14016V18.32C5.14016 20.5067 5.66016 22.1333 6.70016 23.2C7.76682 24.2667 9.23349 24.8 11.1002 24.8C12.9402 24.8 14.3935 24.2667 15.4602 23.2C16.5268 22.1333 17.0602 20.5067 17.0602 18.32V0.999998H22.1802V18.28C22.1802 20.8133 21.6735 22.9067 20.6602 24.56C19.6468 26.2133 18.2868 27.4533 16.5802 28.28C14.9002 29.08 13.0335 29.48 10.9802 29.48ZM37.0867 29.48C35.3267 29.48 33.7801 29.2 32.4467 28.64C31.1134 28.0533 30.0467 27.2533 29.2467 26.24C28.4467 25.2267 27.9667 24.0533 27.8067 22.72H32.9667C33.1267 23.4933 33.5534 24.16 34.2467 24.72C34.9667 25.2533 35.8867 25.52 37.0067 25.52C38.1267 25.52 38.9401 25.2933 39.4467 24.84C39.9801 24.3867 40.2467 23.8667 40.2467 23.28C40.2467 22.4267 39.8734 21.8533 39.1267 21.56C38.3801 21.24 37.3401 20.9333 36.0067 20.64C35.1534 20.4533 34.2867 20.2267 33.4067 19.96C32.5267 19.6933 31.7134 19.36 30.9667 18.96C30.2467 18.5333 29.6601 18 29.2067 17.36C28.7534 16.6933 28.5267 15.88 28.5267 14.92C28.5267 13.16 29.2201 11.68 30.6067 10.48C32.0201 9.28 33.9934 8.68 36.5267 8.68C38.8734 8.68 40.7401 9.22667 42.1267 10.32C43.5401 11.4133 44.3801 12.92 44.6467 14.84H39.8067C39.5134 13.3733 38.4067 12.64 36.4867 12.64C35.5267 12.64 34.7801 12.8267 34.2467 13.2C33.7401 13.5733 33.4867 14.04 33.4867 14.6C33.4867 15.1867 33.8734 15.6533 34.6467 16C35.4201 16.3467 36.4467 16.6667 37.7267 16.96C39.1134 17.28 40.3801 17.64 41.5267 18.04C42.7001 18.4133 43.6334 18.9867 44.3267 19.76C45.0201 20.5067 45.3667 21.5867 45.3667 23C45.3934 24.2267 45.0734 25.3333 44.4067 26.32C43.7401 27.3067 42.7801 28.08 41.5267 28.64C40.2734 29.2 38.7934 29.48 37.0867 29.48ZM54.2623 6.08C53.329 6.08 52.5557 5.8 51.9423 5.24C51.3557 4.68 51.0623 3.97333 51.0623 3.12C51.0623 2.26667 51.3557 1.57333 51.9423 1.04C52.5557 0.479998 53.329 0.199999 54.2623 0.199999C55.1957 0.199999 55.9557 0.479998 56.5423 1.04C57.1557 1.57333 57.4623 2.26667 57.4623 3.12C57.4623 3.97333 57.1557 4.68 56.5423 5.24C55.9557 5.8 55.1957 6.08 54.2623 6.08ZM51.7023 29V9.16H56.8223V29H51.7023ZM70.6064 29.48C68.8997 29.48 67.4997 29.2133 66.4064 28.68C65.3131 28.12 64.4997 27.3867 63.9664 26.48C63.4331 25.5733 63.1664 24.5733 63.1664 23.48C63.1664 21.64 63.8864 20.1467 65.3264 19C66.7664 17.8533 68.9264 17.28 71.8064 17.28H76.8464V16.8C76.8464 15.44 76.4597 14.44 75.6864 13.8C74.9131 13.16 73.9531 12.84 72.8064 12.84C71.7664 12.84 70.8597 13.0933 70.0864 13.6C69.3131 14.08 68.8331 14.8 68.6464 15.76H63.6464C63.7797 14.32 64.2597 13.0667 65.0864 12C65.9397 10.9333 67.0331 10.12 68.3664 9.56C69.6997 8.97333 71.1931 8.68 72.8464 8.68C75.6731 8.68 77.8997 9.38667 79.5264 10.8C81.1531 12.2133 81.9664 14.2133 81.9664 16.8V29H77.6064L77.1264 25.8C76.5397 26.8667 75.7131 27.7467 74.6464 28.44C73.6064 29.1333 72.2597 29.48 70.6064 29.48ZM71.7664 25.48C73.2331 25.48 74.3664 25 75.1664 24.04C75.9931 23.08 76.5131 21.8933 76.7264 20.48H72.3664C71.0064 20.48 70.0331 20.7333 69.4464 21.24C68.8597 21.72 68.5664 22.32 68.5664 23.04C68.5664 23.8133 68.8597 24.4133 69.4464 24.84C70.0331 25.2667 70.8064 25.48 71.7664 25.48ZM90.6523 29.28C89.719 29.28 88.9457 28.9867 88.3323 28.4C87.7457 27.8133 87.4523 27.1067 87.4523 26.28C87.4523 25.4267 87.7457 24.7067 88.3323 24.12C88.9457 23.5333 89.719 23.24 90.6523 23.24C91.5857 23.24 92.3457 23.5333 92.9323 24.12C93.5457 24.7067 93.8523 25.4267 93.8523 26.28C93.8523 27.1067 93.5457 27.8133 92.9323 28.4C92.3457 28.9867 91.5857 29.28 90.6523 29.28ZM90.6523 14.72C89.719 14.72 88.9457 14.4267 88.3323 13.84C87.7457 13.2533 87.4523 12.5467 87.4523 11.72C87.4523 10.8667 87.7457 10.1467 88.3323 9.56C88.9457 8.97333 89.719 8.68 90.6523 8.68C91.5857 8.68 92.3457 8.97333 92.9323 9.56C93.5457 10.1467 93.8523 10.8667 93.8523 11.72C93.8523 12.5467 93.5457 13.2533 92.9323 13.84C92.3457 14.4267 91.5857 14.72 90.6523 14.72Z" fill="black"/>
</svg>
