<svg width="192" height="29" viewBox="0 0 192 29" fill="none" xmlns="http://www.w3.org/2000/svg">
<path d="M6.3752 22L0.825195 0.999999H4.9352L8.7152 17.71L13.1552 0.999999H17.3852L21.7052 17.71L25.4852 0.999999H29.6252L23.9252 22H19.3652L15.1952 6.43L10.9052 22H6.3752ZM36.9489 22.36C35.6689 22.36 34.6189 22.16 33.7989 21.76C32.9789 21.34 32.3689 20.79 31.9689 20.11C31.5689 19.43 31.3689 18.68 31.3689 17.86C31.3689 16.48 31.9089 15.36 32.9889 14.5C34.0689 13.64 35.6889 13.21 37.8489 13.21H41.6289V12.85C41.6289 11.83 41.3389 11.08 40.7589 10.6C40.1789 10.12 39.4589 9.88 38.5989 9.88C37.8189 9.88 37.1389 10.07 36.5589 10.45C35.9789 10.81 35.6189 11.35 35.4789 12.07H31.7289C31.8289 10.99 32.1889 10.05 32.8089 9.25C33.4489 8.45 34.2689 7.84 35.2689 7.42C36.2689 6.98 37.3889 6.76 38.6289 6.76C40.7489 6.76 42.4189 7.29 43.6389 8.35C44.8589 9.41 45.4689 10.91 45.4689 12.85V22H42.1989L41.8389 19.6C41.3989 20.4 40.7789 21.06 39.9789 21.58C39.1989 22.1 38.1889 22.36 36.9489 22.36ZM37.8189 19.36C38.9189 19.36 39.7689 19 40.3689 18.28C40.9889 17.56 41.3789 16.67 41.5389 15.61H38.2689C37.2489 15.61 36.5189 15.8 36.0789 16.18C35.6389 16.54 35.4189 16.99 35.4189 17.53C35.4189 18.11 35.6389 18.56 36.0789 18.88C36.5189 19.2 37.0989 19.36 37.8189 19.36ZM52.4634 4.81C51.7634 4.81 51.1834 4.6 50.7234 4.18C50.2834 3.76 50.0634 3.23 50.0634 2.59C50.0634 1.95 50.2834 1.43 50.7234 1.03C51.1834 0.609999 51.7634 0.399999 52.4634 0.399999C53.1634 0.399999 53.7334 0.609999 54.1734 1.03C54.6334 1.43 54.8634 1.95 54.8634 2.59C54.8634 3.23 54.6334 3.76 54.1734 4.18C53.7334 4.6 53.1634 4.81 52.4634 4.81ZM47.5134 28.6V25.33H48.6834C49.3434 25.33 49.8134 25.2 50.0934 24.94C50.3734 24.68 50.5134 24.24 50.5134 23.62V7.12H54.3534V23.62C54.3534 25.42 53.8934 26.7 52.9734 27.46C52.0734 28.22 50.8434 28.6 49.2834 28.6H47.5134ZM64.6907 22.36C63.4107 22.36 62.3607 22.16 61.5407 21.76C60.7207 21.34 60.1107 20.79 59.7107 20.11C59.3107 19.43 59.1107 18.68 59.1107 17.86C59.1107 16.48 59.6507 15.36 60.7307 14.5C61.8107 13.64 63.4307 13.21 65.5907 13.21H69.3707V12.85C69.3707 11.83 69.0807 11.08 68.5007 10.6C67.9207 10.12 67.2007 9.88 66.3407 9.88C65.5607 9.88 64.8807 10.07 64.3007 10.45C63.7207 10.81 63.3607 11.35 63.2207 12.07H59.4707C59.5707 10.99 59.9307 10.05 60.5507 9.25C61.1907 8.45 62.0107 7.84 63.0107 7.42C64.0107 6.98 65.1307 6.76 66.3707 6.76C68.4907 6.76 70.1607 7.29 71.3807 8.35C72.6007 9.41 73.2107 10.91 73.2107 12.85V22H69.9407L69.5807 19.6C69.1407 20.4 68.5207 21.06 67.7207 21.58C66.9407 22.1 65.9307 22.36 64.6907 22.36ZM65.5607 19.36C66.6607 19.36 67.5107 19 68.1107 18.28C68.7307 17.56 69.1207 16.67 69.2807 15.61H66.0107C64.9907 15.61 64.2607 15.8 63.8207 16.18C63.3807 16.54 63.1607 16.99 63.1607 17.53C63.1607 18.11 63.3807 18.56 63.8207 18.88C64.2607 19.2 64.8407 19.36 65.5607 19.36ZM78.0752 22V0.399999H81.9152V9.4C82.4152 8.58 83.0852 7.94 83.9252 7.48C84.7852 7 85.7652 6.76 86.8652 6.76C88.7052 6.76 90.1252 7.34 91.1252 8.5C92.1452 9.66 92.6552 11.36 92.6552 13.6V22H88.8452V13.96C88.8452 12.68 88.5852 11.7 88.0652 11.02C87.5652 10.34 86.7652 10 85.6652 10C84.5852 10 83.6852 10.38 82.9652 11.14C82.2652 11.9 81.9152 12.96 81.9152 14.32V22H78.0752ZM105.966 22V0.999999H113.736C115.416 0.999999 116.806 1.28 117.906 1.84C119.006 2.4 119.826 3.17 120.366 4.15C120.906 5.13 121.176 6.23 121.176 7.45C121.176 8.61 120.916 9.68 120.396 10.66C119.876 11.62 119.066 12.4 117.966 13C116.866 13.58 115.456 13.87 113.736 13.87H109.806V22H105.966ZM109.806 10.75H113.496C114.836 10.75 115.796 10.46 116.376 9.88C116.976 9.28 117.276 8.47 117.276 7.45C117.276 6.41 116.976 5.6 116.376 5.02C115.796 4.42 114.836 4.12 113.496 4.12H109.806V10.75ZM130.878 22.36C129.018 22.36 127.578 21.78 126.558 20.62C125.558 19.46 125.058 17.76 125.058 15.52V7.12H128.868V15.16C128.868 16.44 129.128 17.42 129.648 18.1C130.168 18.78 130.988 19.12 132.108 19.12C133.168 19.12 134.038 18.74 134.718 17.98C135.418 17.22 135.768 16.16 135.768 14.8V7.12H139.608V22H136.218L135.918 19.48C135.458 20.36 134.788 21.06 133.908 21.58C133.048 22.1 132.038 22.36 130.878 22.36ZM152.04 22.36C150.52 22.36 149.18 22.03 148.02 21.37C146.86 20.71 145.94 19.79 145.26 18.61C144.6 17.43 144.27 16.08 144.27 14.56C144.27 13.04 144.6 11.69 145.26 10.51C145.94 9.33 146.86 8.41 148.02 7.75C149.18 7.09 150.52 6.76 152.04 6.76C153.94 6.76 155.54 7.26 156.84 8.26C158.14 9.24 158.97 10.6 159.33 12.34H155.28C155.08 11.62 154.68 11.06 154.08 10.66C153.5 10.24 152.81 10.03 152.01 10.03C150.95 10.03 150.05 10.43 149.31 11.23C148.57 12.03 148.2 13.14 148.2 14.56C148.2 15.98 148.57 17.09 149.31 17.89C150.05 18.69 150.95 19.09 152.01 19.09C152.81 19.09 153.5 18.89 154.08 18.49C154.68 18.09 155.08 17.52 155.28 16.78H159.33C158.97 18.46 158.14 19.81 156.84 20.83C155.54 21.85 153.94 22.36 152.04 22.36ZM169.068 22.36C167.788 22.36 166.738 22.16 165.918 21.76C165.098 21.34 164.488 20.79 164.088 20.11C163.688 19.43 163.488 18.68 163.488 17.86C163.488 16.48 164.028 15.36 165.108 14.5C166.188 13.64 167.808 13.21 169.968 13.21H173.748V12.85C173.748 11.83 173.458 11.08 172.878 10.6C172.298 10.12 171.578 9.88 170.718 9.88C169.938 9.88 169.258 10.07 168.678 10.45C168.098 10.81 167.738 11.35 167.598 12.07H163.848C163.948 10.99 164.308 10.05 164.928 9.25C165.568 8.45 166.388 7.84 167.388 7.42C168.388 6.98 169.508 6.76 170.748 6.76C172.868 6.76 174.538 7.29 175.758 8.35C176.978 9.41 177.588 10.91 177.588 12.85V22H174.318L173.958 19.6C173.518 20.4 172.898 21.06 172.098 21.58C171.318 22.1 170.308 22.36 169.068 22.36ZM169.938 19.36C171.038 19.36 171.888 19 172.488 18.28C173.108 17.56 173.498 16.67 173.658 15.61H170.388C169.368 15.61 168.638 15.8 168.198 16.18C167.758 16.54 167.538 16.99 167.538 17.53C167.538 18.11 167.758 18.56 168.198 18.88C168.638 19.2 169.218 19.36 169.938 19.36ZM188.878 22C187.318 22 186.068 21.62 185.128 20.86C184.188 20.1 183.718 18.75 183.718 16.81V10.33H181.168V7.12H183.718L184.168 3.13H187.558V7.12H191.578V10.33H187.558V16.84C187.558 17.56 187.708 18.06 188.008 18.34C188.328 18.6 188.868 18.73 189.628 18.73H191.488V22H188.878Z" fill="black"/>
</svg>
