<svg width="91" height="44" viewBox="0 0 91 44" fill="none" xmlns="http://www.w3.org/2000/svg">
<g filter="url(#filter0_d_42_2116)">
<path d="M12 16.5C11.1716 16.5 10.5 17.1716 10.5 18C10.5 18.8284 11.1716 19.5 12 19.5V16.5ZM80.0607 19.0607C80.6464 18.4749 80.6464 17.5251 80.0607 16.9393L70.5147 7.3934C69.9289 6.80761 68.9792 6.80761 68.3934 7.3934C67.8076 7.97919 67.8076 8.92893 68.3934 9.51472L76.8787 18L68.3934 26.4853C67.8076 27.0711 67.8076 28.0208 68.3934 28.6066C68.9792 29.1924 69.9289 29.1924 70.5147 28.6066L80.0607 19.0607ZM12 19.5H79V16.5H12V19.5Z" fill="#0075FF"/>
</g>
<defs>
<filter id="filter0_d_42_2116" x="0.5" y="0.954102" width="90" height="42.0918" filterUnits="userSpaceOnUse" color-interpolation-filters="sRGB">
<feFlood flood-opacity="0" result="BackgroundImageFix"/>
<feColorMatrix in="SourceAlpha" type="matrix" values="0 0 0 0 0 0 0 0 0 0 0 0 0 0 0 0 0 0 127 0" result="hardAlpha"/>
<feOffset dy="4"/>
<feGaussianBlur stdDeviation="5"/>
<feComposite in2="hardAlpha" operator="out"/>
<feColorMatrix type="matrix" values="0 0 0 0 0 0 0 0 0 0 0 0 0 0 0 0 0 0 0.13 0"/>
<feBlend mode="normal" in2="BackgroundImageFix" result="effect1_dropShadow_42_2116"/>
<feBlend mode="normal" in="SourceGraphic" in2="effect1_dropShadow_42_2116" result="shape"/>
</filter>
</defs>
</svg>
