<svg width="1226" height="591" viewBox="0 0 1226 591" fill="none" xmlns="http://www.w3.org/2000/svg">
<g opacity="0.2" filter="url(#filter0_f_42_2120)">
<rect width="716.418" height="931.524" rx="31" transform="matrix(0.927881 -0.372877 0.383382 0.92359 115 382.233)" fill="#282828"/>
</g>
<rect width="727.442" height="886.891" rx="31" transform="matrix(0.927881 -0.372877 0.383382 0.92359 128.003 338.653)" fill="white"/>
<rect x="1.30545" y="0.563938" width="152.447" height="150.635" rx="29" transform="matrix(0.931577 -0.363543 0.37387 0.927481 181.14 359.739)" fill="white" stroke="#F6F6F6" stroke-width="2"/>
<path fill-rule="evenodd" clip-rule="evenodd" d="M180.003 314.474L198.189 299.402L207.631 310.25L189.445 325.322L180.003 314.474ZM187.764 315.103L190.065 317.747L199.87 309.62L197.569 306.977L187.764 315.103Z" fill="#414042"/>
<path d="M222.19 366.19C224.76 369.189 229.034 370.033 232.582 368.245L262.737 353.045L262.152 351.942L260.118 348.108L249.792 328.64L242.727 332.202L238.809 334.177L233.708 336.748L205.911 304.534L203.611 306.427L205.861 304.562L203.676 306.422L186.274 320.691L184.456 322.186L222.19 366.19ZM245.077 336.504L248.224 334.917L256.2 350.083L253.053 351.669L245.077 336.504ZM231.37 343.356L241.174 338.468L249.72 354.748L230.548 364.411C228.849 365.268 226.801 364.864 225.57 363.426L190.666 322.724L203.494 312.17L204.149 311.809L231.37 343.356Z" fill="#414042"/>
<ellipse cx="4.75695" cy="4.72231" rx="4.75695" ry="4.72231" transform="matrix(0.838199 -0.54166 0.556833 0.833021 314.44 409.899)" fill="#414042"/>
<ellipse cx="2.77489" cy="2.75468" rx="2.77489" ry="2.75468" transform="matrix(0.838199 -0.54166 0.556833 0.833021 308.736 404.217)" fill="#414042"/>
<ellipse cx="1.18924" cy="1.18058" rx="1.18924" ry="1.18058" transform="matrix(0.838199 -0.54166 0.556833 0.833021 326.628 403.901)" fill="#414042"/>
<ellipse cx="1.18924" cy="1.18058" rx="1.18924" ry="1.18058" transform="matrix(0.838199 -0.54166 0.556833 0.833021 315.487 418.606)" fill="#414042"/>
<ellipse cx="2.77489" cy="2.75468" rx="2.77489" ry="2.75468" transform="matrix(0.838199 -0.54166 0.556833 0.833021 315.39 399.913)" fill="#414042"/>
<ellipse cx="2.77489" cy="2.75468" rx="2.77489" ry="2.75468" transform="matrix(0.838199 -0.54166 0.556833 0.833021 327.655 415.422)" fill="#414042"/>
<path opacity="0.7" d="M286.403 505.007L293.314 522.151L290.345 523.31L283.434 506.166L286.403 505.007ZM296.476 509.321L300.515 519.341L297.665 520.453L292.529 507.713L295.214 506.665L296.476 509.321ZM297.249 512.698L296.322 513.046C295.966 512.141 295.758 511.263 295.699 510.414C295.647 509.562 295.733 508.779 295.956 508.065C296.187 507.348 296.556 506.723 297.061 506.19C297.564 505.648 298.198 505.228 298.963 504.93C299.578 504.69 300.168 504.559 300.735 504.538C301.306 504.506 301.845 504.609 302.351 504.848C302.866 505.083 303.339 505.466 303.772 505.996C304.202 506.519 304.593 507.216 304.944 508.087L308.262 516.318L305.399 517.435L302.077 509.192C301.83 508.58 301.545 508.133 301.221 507.85C300.902 507.557 300.543 507.402 300.144 507.385C299.749 507.357 299.304 507.44 298.807 507.634C298.318 507.825 297.922 508.098 297.618 508.453C297.314 508.807 297.099 509.214 296.973 509.672C296.855 510.126 296.819 510.613 296.864 511.132C296.908 511.65 297.037 512.172 297.249 512.698ZM307.664 495.62L314.954 513.706L312.116 514.814L304.826 496.728L307.664 495.62ZM311.7 507.059L310.773 507.407C310.426 506.525 310.221 505.665 310.157 504.827C310.101 503.985 310.179 503.206 310.391 502.487C310.608 501.757 310.964 501.123 311.458 500.585C311.95 500.039 312.57 499.62 313.319 499.327C313.95 499.081 314.552 498.946 315.127 498.922C315.709 498.894 316.263 499.001 316.788 499.241C317.311 499.473 317.79 499.858 318.226 500.397C318.667 500.924 319.063 501.624 319.414 502.495L322.713 510.678L319.851 511.795L316.542 503.588C316.296 502.976 316.009 502.525 315.682 502.234C315.363 501.941 315.002 501.782 314.6 501.757C314.194 501.725 313.747 501.804 313.258 501.995C312.746 502.195 312.334 502.474 312.022 502.831C311.718 503.186 311.507 503.591 311.389 504.046C311.271 504.501 311.239 504.986 311.291 505.501C311.352 506.014 311.488 506.533 311.7 507.059ZM332.752 503.804L330.302 497.728C330.119 497.273 329.878 496.912 329.579 496.647C329.281 496.382 328.926 496.226 328.514 496.177C328.11 496.126 327.656 496.199 327.151 496.396C326.686 496.577 326.316 496.813 326.04 497.102C325.764 497.391 325.585 497.706 325.504 498.047C325.422 498.388 325.449 498.727 325.585 499.065L322.747 500.172C322.544 499.67 322.471 499.135 322.525 498.569C322.58 498.003 322.765 497.444 323.082 496.894C323.398 496.343 323.837 495.836 324.398 495.372C324.959 494.908 325.642 494.518 326.446 494.205C327.408 493.829 328.324 493.658 329.195 493.69C330.074 493.72 330.857 493.977 331.546 494.463C332.239 494.937 332.782 495.661 333.174 496.635L335.457 502.298C335.691 502.879 335.941 503.386 336.207 503.818C336.477 504.24 336.759 504.588 337.053 504.864L337.128 505.053L334.207 506.193C333.95 505.939 333.687 505.592 333.418 505.152C333.154 504.7 332.932 504.251 332.752 503.804ZM331.072 498.45L331.803 500.195L329.757 500.993C329.229 501.199 328.784 501.432 328.423 501.691C328.059 501.942 327.781 502.214 327.589 502.507C327.397 502.8 327.288 503.106 327.261 503.425C327.235 503.745 327.289 504.073 327.426 504.41C327.562 504.748 327.765 505.027 328.037 505.248C328.305 505.462 328.621 505.588 328.984 505.628C329.355 505.665 329.757 505.599 330.191 505.43C330.774 505.202 331.235 504.886 331.574 504.481C331.917 504.066 332.146 503.636 332.259 503.192C332.369 502.74 332.368 502.354 332.257 502.034L333.688 502.934C333.723 503.293 333.7 503.701 333.62 504.16C333.541 504.618 333.383 505.088 333.149 505.57C332.919 506.041 332.591 506.483 332.164 506.895C331.744 507.304 331.204 507.637 330.541 507.896C329.706 508.222 328.894 508.348 328.107 508.274C327.316 508.191 326.622 507.94 326.023 507.519C325.422 507.091 324.976 506.516 324.684 505.794C324.412 505.118 324.298 504.473 324.341 503.856C324.39 503.229 324.591 502.641 324.945 502.094C325.307 501.544 325.815 501.037 326.467 500.574C327.117 500.102 327.907 499.685 328.837 499.322L331.072 498.45ZM336.354 484.424L343.644 502.51L340.782 503.627L333.492 485.541L336.354 484.424ZM353.471 498.947C352.525 499.317 351.608 499.497 350.72 499.49C349.836 499.471 349.014 499.288 348.253 498.94C347.501 498.589 346.83 498.092 346.243 497.449C345.655 496.806 345.186 496.049 344.834 495.178L344.645 494.707C344.243 493.71 344.025 492.75 343.99 491.828C343.956 490.905 344.084 490.056 344.373 489.28C344.659 488.496 345.096 487.812 345.682 487.229C346.268 486.646 346.975 486.193 347.803 485.87C348.718 485.513 349.58 485.354 350.389 485.392C351.198 485.431 351.94 485.641 352.614 486.023C353.293 486.394 353.896 486.917 354.424 487.593C354.959 488.265 355.412 489.06 355.782 489.978L356.271 491.191L346.384 495.05L345.563 493.013L352.635 490.253L352.545 490.029C352.324 489.525 352.028 489.086 351.659 488.712C351.297 488.336 350.872 488.084 350.382 487.957C349.893 487.83 349.333 487.889 348.702 488.135C348.229 488.32 347.849 488.587 347.56 488.935C347.277 489.273 347.089 489.678 346.996 490.15C346.904 490.623 346.898 491.152 346.979 491.738C347.065 492.313 347.241 492.93 347.507 493.59L347.696 494.061C347.921 494.618 348.205 495.107 348.548 495.527C348.895 495.937 349.29 496.26 349.732 496.496C350.174 496.732 350.649 496.869 351.157 496.907C351.662 496.937 352.186 496.846 352.73 496.634C353.416 496.366 353.972 495.99 354.397 495.506C354.823 495.022 355.131 494.452 355.323 493.796L357.409 494.658C357.294 495.166 357.091 495.691 356.798 496.232C356.502 496.766 356.08 497.271 355.533 497.748C354.994 498.221 354.307 498.621 353.471 498.947ZM360.394 484.036L364.552 494.351L361.701 495.463L356.566 482.723L359.286 481.661L360.394 484.036ZM363.297 480.001L364.337 482.647C364.151 482.684 363.952 482.734 363.741 482.798C363.537 482.859 363.337 482.929 363.14 483.005C362.651 483.196 362.25 483.435 361.936 483.72C361.62 483.999 361.387 484.316 361.239 484.674C361.096 485.02 361.03 485.4 361.042 485.814C361.053 486.227 361.138 486.662 361.294 487.119L360.663 487.42C360.34 486.619 360.12 485.847 360.002 485.102C359.885 484.358 359.879 483.665 359.986 483.024C360.1 482.379 360.339 481.818 360.703 481.34C361.075 480.859 361.58 480.494 362.219 480.244C362.392 480.177 362.584 480.12 362.794 480.075C363.011 480.026 363.179 480.001 363.297 480.001Z" fill="black"/>
<rect x="1.30545" y="0.563938" width="152.447" height="150.635" rx="29" transform="matrix(0.931577 -0.363543 0.37387 0.927481 408.384 271.058)" fill="white" stroke="#F6F6F6" stroke-width="2"/>
<path d="M447.509 249.643L447.733 249.839L436.249 245.263L424.486 216.406C423.81 214.748 421.89 213.933 420.2 214.585C418.508 215.238 417.686 217.111 418.362 218.769L430.125 247.627L424.885 258.37L428.949 264.42L428.771 264.243L435.424 251.936L448.739 256.679L448.509 255.305C448.509 255.305 447.671 249.863 447.509 249.643Z" fill="#414042"/>
<path d="M427.05 254.396L420.998 239.556C419.908 236.882 417.604 234.757 414.729 234.152C411.236 233.416 407.745 234.841 405.829 237.695C399.623 246.948 390.439 266.362 398.444 292.639C399.086 294.745 400.46 296.608 402.438 297.647C404.603 298.784 407.052 298.907 409.218 298.072C409.658 297.902 410.086 297.694 410.498 297.445L428.001 286.892C433.712 283.448 436.054 276.478 433.557 270.354L430.489 262.831L430.536 262.851L427.05 254.396ZM429.1 272.074C430.735 276.084 429.209 280.633 425.466 282.889L410.231 291.781C409.37 292.301 408.332 292.394 407.382 292.039C406.424 291.681 405.702 290.921 405.403 289.958C398.174 266.581 402.795 250.801 409.848 240.287C410.62 239.135 411.922 238.532 413.328 238.676C414.737 238.823 415.89 239.678 416.416 240.968L429.1 272.074Z" fill="#414042"/>
<path d="M443.304 248.053L437.253 233.212C436.162 230.538 436.356 227.449 438.049 225.082C440.105 222.206 443.689 220.901 447.126 221.69C458.262 224.253 478.795 232.204 491.51 256.665C492.529 258.625 492.835 260.9 492.112 262.981C491.32 265.259 489.601 266.99 487.41 267.835C486.966 268.007 486.503 268.142 486.022 268.238L465.63 272.304C458.976 273.63 452.309 270.135 449.812 264.011L446.744 256.488L446.723 256.534L443.304 248.053ZM454.318 262.273C455.954 266.283 460.304 268.566 464.663 267.695L482.431 263.616C483.435 263.417 484.267 262.789 484.715 261.894C485.169 260.991 485.163 259.955 484.701 259.055C473.469 237.221 458.652 229.18 445.997 226.268C444.611 225.948 443.224 226.383 442.288 227.431C441.353 228.482 441.108 229.876 441.634 231.166L454.318 262.273Z" fill="#414042"/>
<path opacity="0.7" d="M521.45 412.191L528.74 430.277L525.878 431.394L518.588 413.308L521.45 412.191ZM539.32 422.674L535.395 412.936L538.257 411.819L543.393 424.559L540.696 425.612L539.32 422.674ZM538.654 419.867L539.603 419.47C539.948 420.326 540.171 421.151 540.273 421.948C540.372 422.736 540.332 423.474 540.152 424.161C539.97 424.841 539.632 425.45 539.137 425.988C538.639 426.519 537.96 426.952 537.101 427.287C536.478 427.53 535.87 427.663 535.277 427.685C534.684 427.708 534.122 427.605 533.592 427.376C533.069 427.143 532.584 426.765 532.135 426.241C531.687 425.716 531.293 425.034 530.954 424.194L527.637 415.964L530.487 414.851L533.814 423.105C534.001 423.569 534.213 423.936 534.45 424.206C534.683 424.47 534.933 424.658 535.198 424.773C535.463 424.887 535.738 424.935 536.022 424.915C536.306 424.895 536.589 424.829 536.873 424.719C537.685 424.402 538.261 423.996 538.599 423.5C538.943 422.994 539.104 422.431 539.083 421.813C539.069 421.191 538.926 420.543 538.654 419.867ZM546.07 411.918L550.109 421.938L547.259 423.05L542.123 410.31L544.808 409.263L546.07 411.918ZM546.843 415.296L545.916 415.644C545.56 414.738 545.352 413.861 545.293 413.012C545.241 412.16 545.327 411.377 545.55 410.663C545.781 409.946 546.15 409.32 546.656 408.787C547.158 408.245 547.792 407.826 548.557 407.527C549.172 407.287 549.762 407.157 550.329 407.135C550.9 407.103 551.439 407.206 551.945 407.445C552.46 407.68 552.934 408.063 553.366 408.594C553.796 409.116 554.187 409.813 554.538 410.685L557.856 418.915L554.994 420.032L551.671 411.79C551.424 411.178 551.139 410.73 550.815 410.448C550.496 410.154 550.137 409.999 549.738 409.982C549.344 409.955 548.898 410.038 548.401 410.231C547.912 410.422 547.516 410.695 547.212 411.05C546.908 411.405 546.693 411.811 546.567 412.269C546.45 412.724 546.413 413.21 546.458 413.729C546.503 414.247 546.631 414.77 546.843 415.296ZM564.794 401.463L567.384 400.452L572.377 412.839C572.839 413.985 572.987 415.054 572.821 416.046C572.655 417.037 572.218 417.912 571.511 418.669C570.807 419.435 569.879 420.042 568.728 420.491C568.239 420.682 567.666 420.823 567.01 420.916C566.362 421.005 565.695 421.002 565.008 420.907C564.333 420.816 563.709 420.592 563.136 420.234L563.798 418.041C564.474 418.404 565.138 418.603 565.791 418.639C566.444 418.675 567.075 418.574 567.682 418.337C568.336 418.082 568.843 417.743 569.202 417.322C569.572 416.905 569.79 416.415 569.856 415.854C569.921 415.292 569.82 414.678 569.551 414.01L565.697 404.449L564.794 401.463ZM558.726 411.367L558.627 411.119C558.237 410.154 558.001 409.229 557.918 408.343C557.832 407.451 557.894 406.631 558.105 405.886C558.312 405.133 558.669 404.48 559.177 403.928C559.681 403.368 560.331 402.932 561.127 402.621C561.955 402.298 562.721 402.172 563.425 402.243C564.136 402.31 564.802 402.546 565.421 402.949C566.036 403.345 566.61 403.884 567.14 404.567C567.676 405.24 568.187 406.021 568.674 406.912L568.992 407.701C569.257 408.652 569.419 409.552 569.478 410.4C569.537 411.249 569.477 412.027 569.296 412.734C569.116 413.44 568.79 414.058 568.319 414.587C567.855 415.113 567.226 415.531 566.429 415.842C565.649 416.146 564.878 416.261 564.118 416.185C563.365 416.106 562.647 415.864 561.963 415.459C561.288 415.05 560.673 414.5 560.12 413.807C559.564 413.106 559.1 412.293 558.726 411.367ZM561.477 410.007L561.576 410.254C561.811 410.835 562.084 411.355 562.397 411.815C562.718 412.271 563.074 412.645 563.466 412.938C563.862 413.219 564.29 413.397 564.749 413.472C565.213 413.537 565.701 413.469 566.213 413.269C566.884 413.007 567.375 412.652 567.686 412.203C568.006 411.752 568.184 411.242 568.219 410.674C568.26 410.095 568.207 409.488 568.061 408.855L567.202 406.724C566.968 406.279 566.695 405.886 566.384 405.544C566.081 405.199 565.747 404.925 565.382 404.722C565.015 404.511 564.612 404.396 564.175 404.376C563.735 404.347 563.262 404.432 562.758 404.629C562.245 404.829 561.844 405.113 561.554 405.48C561.265 405.848 561.075 406.271 560.986 406.751C560.904 407.228 560.907 407.745 560.994 408.301C561.082 408.858 561.243 409.426 561.477 410.007ZM582.233 405.409C582.119 405.127 581.946 404.899 581.712 404.727C581.475 404.547 581.118 404.441 580.64 404.41C580.169 404.375 579.516 404.43 578.68 404.575C577.942 404.69 577.248 404.756 576.598 404.774C575.953 404.78 575.369 404.713 574.847 404.572C574.324 404.43 573.871 404.198 573.485 403.876C573.1 403.554 572.8 403.127 572.585 402.593C572.376 402.075 572.292 401.539 572.334 400.987C572.376 400.435 572.539 399.899 572.822 399.379C573.106 398.86 573.51 398.38 574.035 397.939C574.567 397.495 575.212 397.125 575.969 396.83C577.041 396.411 578.033 396.233 578.943 396.296C579.858 396.348 580.644 396.6 581.301 397.052C581.954 397.496 582.435 398.099 582.742 398.861L579.891 399.973C579.755 399.635 579.542 399.355 579.252 399.133C578.966 398.899 578.617 398.758 578.205 398.71C577.79 398.654 577.326 398.726 576.814 398.926C576.325 399.116 575.951 399.353 575.691 399.636C575.435 399.909 575.278 400.197 575.218 400.502C575.167 400.804 575.199 401.1 575.316 401.39C575.402 401.602 575.519 401.779 575.667 401.921C575.82 402.052 576.024 402.15 576.278 402.214C576.529 402.271 576.848 402.292 577.234 402.277C577.629 402.26 578.108 402.204 578.673 402.111C579.733 401.934 580.678 401.869 581.51 401.917C582.346 401.954 583.055 402.15 583.636 402.504C584.213 402.851 584.656 403.405 584.963 404.167C585.191 404.732 585.277 405.298 585.223 405.864C585.173 406.42 584.989 406.959 584.671 407.483C584.35 407.999 583.908 408.476 583.345 408.914C582.79 409.348 582.118 409.719 581.33 410.027C580.171 410.479 579.107 410.658 578.138 410.564C577.166 410.462 576.342 410.17 575.664 409.69C574.992 409.198 574.515 408.603 574.233 407.904L576.989 406.829C577.232 407.343 577.547 407.706 577.934 407.918C578.326 408.12 578.747 408.214 579.198 408.202C579.654 408.178 580.095 408.083 580.521 407.917C581.033 407.717 581.436 407.483 581.729 407.214C582.019 406.937 582.207 406.646 582.294 406.34C582.377 406.025 582.357 405.715 582.233 405.409Z" fill="black"/>
<g filter="url(#filter1_d_42_2120)">
<rect width="154.447" height="152.635" rx="30" transform="matrix(0.931577 -0.363543 0.37387 0.927481 636.489 181.573)" fill="white"/>
<rect x="1.30545" y="0.563938" width="152.447" height="150.635" rx="29" transform="matrix(0.931577 -0.363543 0.37387 0.927481 636.368 182.089)" stroke="#F6F6F6" stroke-width="2"/>
</g>
<path d="M658.986 138.424L658.991 138.41L647.69 133.623L641.458 130.975L615.408 190.292L619.767 192.145L616.783 198.941L623.389 201.742L613.111 225.146L613.115 225.156L616.406 223.886L625.693 202.72L631.818 205.324L634.808 198.536L639.157 200.392L665.204 141.066L658.986 138.424ZM629.844 200.482L621.729 197.033L623.205 193.674L631.319 197.121L629.844 200.482ZM654.993 154.978L648.382 152.17L647.386 154.422L654.004 157.227L651.087 163.871L642.788 160.344L641.804 162.601L650.1 166.12L647.031 173.108L640.421 170.298L639.423 172.55L646.044 175.355L643.126 181.999L634.827 178.472L633.844 180.731L642.138 184.249L637.179 195.54L620.354 188.384L643.436 135.825L660.258 142.974L654.993 154.978Z" fill="#414042"/>
<path d="M669.547 130.062L668.296 132.911L662.628 130.503L659.155 138.41L647.853 133.623L651.333 125.702L645.651 123.288L646.902 120.44L669.547 130.062Z" fill="#414042"/>
<path opacity="0.7" d="M731.189 331.432L738.099 348.576L735.131 349.734L728.22 332.591L731.189 331.432ZM741.262 335.745L745.301 345.766L742.451 346.878L737.315 334.138L740 333.09L741.262 335.745ZM742.035 339.123L741.108 339.471C740.752 338.565 740.544 337.688 740.484 336.839C740.433 335.987 740.519 335.204 740.742 334.49C740.973 333.773 741.342 333.148 741.847 332.614C742.35 332.073 742.984 331.653 743.749 331.355C744.363 331.115 744.954 330.984 745.52 330.963C746.092 330.931 746.63 331.034 747.137 331.272C747.652 331.508 748.125 331.89 748.558 332.421C748.988 332.944 749.378 333.641 749.73 334.512L753.047 342.743L750.185 343.86L746.863 335.617C746.616 335.005 746.331 334.558 746.007 334.275C745.688 333.982 745.329 333.827 744.93 333.81C744.535 333.782 744.09 333.865 743.593 334.059C743.104 334.25 742.708 334.522 742.404 334.877C742.1 335.232 741.885 335.639 741.759 336.096C741.641 336.551 741.605 337.038 741.65 337.556C741.694 338.075 741.823 338.597 742.035 339.123ZM751.932 328.434L754.794 327.317L760.376 341.164C760.727 342.035 760.873 342.827 760.814 343.541C760.758 344.262 760.5 344.89 760.04 345.424C759.583 345.965 758.933 346.401 758.089 346.73C757.837 346.829 757.569 346.91 757.285 346.976C756.996 347.052 756.717 347.107 756.447 347.139L755.567 344.921C755.745 344.888 755.932 344.842 756.128 344.784C756.318 344.737 756.497 344.681 756.662 344.616C757.001 344.484 757.261 344.314 757.442 344.107C757.624 343.9 757.723 343.648 757.74 343.351C757.757 343.053 757.681 342.697 757.514 342.281L751.932 328.434ZM750.336 325.187C750.162 324.755 750.163 324.341 750.341 323.944C750.516 323.54 750.856 323.239 751.36 323.042C751.873 322.842 752.329 322.832 752.73 323.012C753.136 323.181 753.426 323.481 753.6 323.913C753.771 324.337 753.767 324.747 753.589 325.143C753.419 325.537 753.078 325.833 752.566 326.033C752.061 326.23 751.606 326.244 751.2 326.076C750.795 325.907 750.506 325.61 750.336 325.187ZM769.71 336.513C768.763 336.882 767.846 337.063 766.958 337.055C766.075 337.037 765.252 336.853 764.492 336.505C763.739 336.154 763.068 335.657 762.481 335.014C761.893 334.371 761.424 333.614 761.073 332.743L760.883 332.272C760.481 331.275 760.263 330.315 760.229 329.393C760.194 328.471 760.322 327.621 760.611 326.845C760.898 326.061 761.334 325.378 761.92 324.795C762.506 324.212 763.213 323.759 764.041 323.436C764.956 323.079 765.818 322.919 766.627 322.958C767.436 322.996 768.178 323.206 768.852 323.588C769.531 323.959 770.134 324.483 770.662 325.158C771.198 325.83 771.65 326.625 772.021 327.544L772.51 328.757L762.622 332.615L761.801 330.578L768.874 327.818L768.784 327.594C768.562 327.09 768.267 326.651 767.897 326.278C767.535 325.901 767.11 325.649 766.621 325.522C766.131 325.395 765.571 325.455 764.941 325.701C764.468 325.885 764.087 326.152 763.799 326.501C763.515 326.839 763.327 327.244 763.234 327.716C763.142 328.188 763.136 328.717 763.217 329.303C763.303 329.878 763.479 330.496 763.745 331.155L763.935 331.626C764.159 332.183 764.443 332.672 764.786 333.093C765.133 333.502 765.528 333.825 765.97 334.061C766.412 334.298 766.887 334.435 767.395 334.473C767.9 334.503 768.425 334.412 768.969 334.199C769.655 333.932 770.21 333.556 770.636 333.072C771.061 332.588 771.37 332.018 771.561 331.361L773.647 332.224C773.532 332.732 773.329 333.256 773.036 333.798C772.74 334.331 772.319 334.836 771.772 335.313C771.233 335.787 770.545 336.187 769.71 336.513ZM782.339 328.968C782.804 328.786 783.186 328.533 783.483 328.208C783.786 327.872 783.985 327.494 784.081 327.075C784.184 326.653 784.161 326.222 784.011 325.781L786.695 324.733C787.012 325.564 787.07 326.409 786.869 327.268C786.668 328.128 786.258 328.91 785.638 329.615C785.016 330.312 784.232 330.846 783.286 331.215C782.308 331.596 781.39 331.764 780.532 331.717C779.67 331.663 778.88 331.435 778.162 331.034C777.444 330.633 776.808 330.095 776.253 329.422C775.706 328.745 775.256 327.967 774.901 327.087L774.735 326.675C774.381 325.796 774.167 324.926 774.093 324.064C774.025 323.192 774.112 322.367 774.356 321.591C774.599 320.814 775.017 320.12 775.61 319.507C776.199 318.886 776.979 318.387 777.948 318.008C778.973 317.608 779.954 317.462 780.892 317.568C781.826 317.667 782.659 317.991 783.392 318.541C784.129 319.08 784.697 319.822 785.096 320.765L782.411 321.813C782.198 321.351 781.908 320.973 781.544 320.68C781.184 320.375 780.768 320.183 780.298 320.103C779.836 320.02 779.345 320.08 778.824 320.283C778.249 320.507 777.819 320.811 777.536 321.195C777.249 321.57 777.08 321.999 777.028 322.483C776.974 322.958 776.999 323.462 777.103 323.993C777.213 324.514 777.374 325.037 777.586 325.563L777.752 325.975C777.964 326.501 778.213 326.994 778.499 327.455C778.785 327.916 779.113 328.301 779.485 328.61C779.86 328.909 780.285 329.102 780.758 329.19C781.229 329.27 781.755 329.196 782.339 328.968ZM792.282 312.687L793.117 314.76L785.903 317.575L785.067 315.503L792.282 312.687ZM785.891 311.57L788.741 310.458L793.716 322.798C793.874 323.19 794.051 323.471 794.247 323.64C794.447 323.798 794.664 323.872 794.898 323.863C795.131 323.853 795.386 323.795 795.662 323.687C795.859 323.61 796.043 323.524 796.215 323.43C796.387 323.336 796.523 323.255 796.624 323.189L797.509 325.351C797.301 325.514 797.051 325.684 796.758 325.862C796.472 326.037 796.128 326.203 795.726 326.36C795.072 326.615 794.447 326.728 793.85 326.697C793.251 326.658 792.703 326.431 792.207 326.016C791.711 325.601 791.288 324.958 790.937 324.087L785.891 311.57ZM798.502 310.26L803.637 323L800.775 324.117L795.639 311.377L798.502 310.26ZM794.102 308.107C793.928 307.675 793.926 307.263 794.096 306.869C794.271 306.465 794.614 306.163 795.127 305.963C795.631 305.766 796.088 305.756 796.497 305.932C796.903 306.101 797.192 306.401 797.366 306.833C797.537 307.257 797.534 307.667 797.356 308.063C797.178 308.46 796.837 308.757 796.332 308.954C795.82 309.154 795.361 309.169 794.955 309C794.557 308.829 794.273 308.531 794.102 308.107ZM804.673 315.387L804.564 315.116C804.194 314.198 803.985 313.294 803.936 312.404C803.885 311.507 803.994 310.669 804.265 309.892C804.54 309.103 804.979 308.404 805.583 307.796C806.191 307.178 806.96 306.687 807.891 306.323C808.829 305.957 809.731 305.796 810.597 305.84C811.468 305.872 812.278 306.083 813.028 306.472C813.775 306.852 814.442 307.387 815.03 308.075C815.614 308.756 816.092 309.555 816.462 310.473L816.571 310.744C816.941 311.663 817.15 312.567 817.199 313.456C817.247 314.346 817.134 315.185 816.859 315.974C816.58 316.755 816.141 317.453 815.541 318.069C814.937 318.677 814.17 319.162 813.24 319.525C812.302 319.892 811.397 320.058 810.526 320.026C809.66 319.982 808.854 319.77 808.107 319.389C807.357 319 806.69 318.466 806.105 317.785C805.521 317.105 805.044 316.306 804.673 315.387ZM807.414 314.004L807.524 314.275C807.755 314.848 808.032 315.367 808.356 315.831C808.68 316.295 809.046 316.67 809.453 316.956C809.86 317.242 810.305 317.418 810.788 317.484C811.271 317.55 811.784 317.477 812.328 317.265C812.857 317.059 813.27 316.77 813.567 316.4C813.873 316.026 814.075 315.598 814.172 315.115C814.269 314.631 814.274 314.112 814.187 313.555C814.107 312.996 813.952 312.43 813.721 311.857L813.612 311.586C813.384 311.021 813.106 310.511 812.777 310.058C812.453 309.594 812.082 309.217 811.663 308.926C811.253 308.632 810.806 308.452 810.323 308.386C809.845 308.309 809.338 308.375 808.802 308.584C808.266 308.793 807.847 309.089 807.544 309.47C807.246 309.841 807.05 310.272 806.956 310.763C806.862 311.254 806.859 311.777 806.946 312.334C807.031 312.882 807.187 313.439 807.414 314.004ZM821.227 304.539L825.266 314.56L822.416 315.672L817.28 302.932L819.965 301.884L821.227 304.539ZM822 307.917L821.073 308.265C820.717 307.359 820.509 306.482 820.45 305.633C820.398 304.781 820.484 303.998 820.707 303.284C820.938 302.567 821.307 301.942 821.813 301.408C822.315 300.867 822.949 300.447 823.714 300.149C824.329 299.909 824.919 299.778 825.486 299.757C826.057 299.725 826.596 299.828 827.102 300.066C827.617 300.302 828.091 300.684 828.524 301.215C828.953 301.738 829.344 302.435 829.695 303.306L833.013 311.537L830.151 312.654L826.828 304.411C826.581 303.799 826.296 303.352 825.972 303.069C825.653 302.776 825.294 302.621 824.895 302.604C824.501 302.576 824.055 302.659 823.558 302.853C823.07 303.044 822.673 303.316 822.369 303.671C822.065 304.026 821.85 304.433 821.724 304.89C821.607 305.345 821.57 305.832 821.615 306.35C821.66 306.869 821.788 307.391 822 307.917Z" fill="black"/>
<rect x="1.30545" y="0.563938" width="152.447" height="150.635" rx="29" transform="matrix(0.931577 -0.363543 0.37387 0.927481 274.485 590.504)" fill="white" stroke="#F6F6F6" stroke-width="2"/>
<path d="M334.781 519.85L343.255 540.771C342.254 542.054 341.943 543.804 342.601 545.42C343.598 547.867 346.427 549.069 348.923 548.106C351.416 547.143 352.63 544.379 351.633 541.932C350.975 540.316 349.516 539.249 347.884 538.984L339.29 517.888L334.781 519.85ZM339.018 530.373L334.66 519.675L339.018 530.373Z" fill="#414042"/>
<path d="M346.398 542.124C347.263 541.791 348.247 542.208 348.593 543.057C348.939 543.905 348.517 544.865 347.652 545.199C346.787 545.533 345.803 545.115 345.457 544.266C345.111 543.418 345.533 542.458 346.398 542.124Z" fill="white"/>
<path d="M276.728 542.322L285.203 563.243C284.202 564.526 283.891 566.277 284.549 567.892C285.546 570.339 288.375 571.542 290.87 570.578C293.364 569.615 294.578 566.851 293.581 564.404C292.923 562.789 291.463 561.721 289.831 561.456L281.238 540.36L276.728 542.322ZM280.966 552.846L276.608 542.148L280.966 552.846Z" fill="#414042"/>
<path d="M288.401 564.913C289.208 564.602 290.124 564.991 290.446 565.782C290.768 566.572 290.376 567.466 289.57 567.777C288.763 568.088 287.847 567.699 287.525 566.909C287.203 566.118 287.595 565.224 288.401 564.913Z" fill="white"/>
<path d="M340.027 531.174L341.179 534.006L286.699 555.082L285.548 552.25L340.027 531.174Z" fill="#414042"/>
<path d="M348.331 494.223C346.312 493.755 344.297 494.976 343.828 496.95L340.711 510.092L266.172 538.891C264.246 539.635 263.31 541.768 264.079 543.656C264.848 545.545 267.03 546.473 268.956 545.729L278.574 542.013L339.531 518.462L347.135 515.524L351.138 498.646C351.605 496.672 350.348 494.692 348.331 494.223ZM283.219 540.218L334.884 520.257L283.219 540.218Z" fill="#414042"/>
<path d="M340.231 509.917C340.512 510.607 340.169 511.388 339.466 511.66L268.691 539.046C267.988 539.318 267.19 538.979 266.909 538.289C266.629 537.599 266.972 536.818 267.674 536.546L338.45 509.16C339.153 508.888 339.951 509.227 340.231 509.917Z" fill="#414042"/>
<path d="M344.926 498.499L343.951 505.919C343.778 507.236 342.539 508.165 341.186 507.993C339.833 507.821 338.875 506.613 339.048 505.296L340.024 497.876C340.197 496.56 341.436 495.631 342.788 495.803C344.141 495.975 345.099 497.183 344.926 498.499Z" fill="#414042"/>
<rect x="1.30545" y="0.563938" width="152.447" height="150.635" rx="29" transform="matrix(0.931577 -0.363543 0.37387 0.927481 501.728 501.823)" fill="white" stroke="#F6F6F6" stroke-width="2"/>
<path d="M536.664 418.822L523.731 423.809L520.498 415.88L487.932 428.44L491.165 436.369L478.233 441.357C472.851 443.433 470.269 449.528 472.477 454.944L491.89 502.552L569.845 472.487L550.432 424.879C548.224 419.463 542.047 416.745 536.664 418.822ZM495.371 431.712L517.39 423.22L518.459 425.843L496.44 434.335L495.371 431.712ZM562.408 469.216L495.001 495.213L477.751 452.91C476.735 450.419 477.921 447.616 480.396 446.662L538.827 424.127C541.303 423.172 544.143 424.422 545.158 426.913L562.408 469.216Z" fill="#414042"/>
<path d="M535.135 458.56L530.972 448.318L521.725 451.898L518.151 443.106L507.943 447.058L511.517 455.851L502.271 459.431L506.33 469.419L515.577 465.839L519.254 474.885L529.462 470.933L525.888 462.14L535.135 458.56Z" fill="#414042"/>
<rect x="1.30545" y="0.563938" width="152.447" height="150.635" rx="29" transform="matrix(0.931577 -0.363543 0.37387 0.927481 822.778 643.727)" fill="white" stroke="#F6F6F6" stroke-width="2"/>
<path d="M827.636 532.914C823.256 531.054 820.615 529.562 818.736 533.838L814.561 540.55L831.993 547.954L834.324 539.861C836.203 535.585 833.584 535.441 829.202 533.58L827.636 532.914Z" fill="#414042"/>
<path d="M804.607 545.148L809.134 547.071L784.979 602.043L785.996 602.475L783.413 608.355L787.604 610.134L780.923 625.34C780.286 626.787 780.266 628.393 780.865 629.861C781.463 631.33 782.61 632.485 784.093 633.115C785.623 633.765 787.277 633.746 788.714 633.192C790.149 632.638 791.366 631.548 792.023 630.055L798.706 614.849L802.896 616.629L805.481 610.751L806.499 611.182L830.655 556.21L835.182 558.133L838.428 550.746L807.852 537.761L804.607 545.148ZM787.934 628.318C787.589 629.106 786.652 629.467 785.847 629.124C785.457 628.958 785.155 628.653 784.997 628.267C784.84 627.881 784.845 627.458 785.013 627.078L791.695 611.872L794.616 613.113L787.934 628.318ZM800.561 610.901L800.46 610.858L789.359 606.143L789.257 606.101L790.086 604.212L795.738 606.613L801.391 609.013L800.561 610.901ZM804.839 605.978L791.078 599.94L790.822 599.788L813.224 548.807L826.565 554.474L804.839 605.978Z" fill="#414042"/>
<rect x="1.30545" y="0.563938" width="152.447" height="150.635" rx="29" transform="matrix(0.931577 -0.363543 0.37387 0.927481 725.602 402.657)" fill="white" stroke="#F6F6F6" stroke-width="2"/>
<path d="M719.421 317.035C712.84 319.573 707.638 324.478 704.792 330.715C698.315 328.074 691.067 327.971 684.488 330.508C670.665 335.839 663.924 351.19 669.451 364.744C681.384 394.008 732.538 407.689 734.711 408.261L736.612 408.747L737.641 407.131C738.821 405.265 766.441 361.205 754.507 331.94C748.981 318.387 733.242 311.705 719.421 317.035ZM690.993 382.328L685.878 378.181C685.723 378.028 685.564 377.887 685.418 377.753C684.637 377.046 683.888 376.328 683.168 375.598C683.104 375.523 683.035 375.47 682.992 375.419C682.943 375.381 682.901 375.33 682.871 375.287L682.861 375.291L682.838 375.266C679.182 371.504 676.225 367.358 674.383 362.842C669.945 351.958 675.362 339.625 686.46 335.345C692.506 333.013 699.253 333.455 704.97 336.558L707.803 338.098L708.779 335.089C710.746 329.023 715.346 324.205 721.393 321.872C732.501 317.588 745.137 322.959 749.575 333.843C750.798 336.842 751.545 340.047 751.906 343.367L751.9 343.379L751.913 343.41C751.912 343.433 751.918 343.474 751.916 343.53C752.163 345.787 752.218 348.105 752.138 350.455L751.644 356.243L751.306 358.522L751.644 356.243C751.541 356.998 751.428 357.758 751.306 358.522C750.738 362.055 749.906 365.59 748.904 369.044C748.908 369.054 748.903 369.066 748.898 369.078C744.487 384.383 736.876 398.056 734.143 402.692C728.131 400.913 709.225 394.815 693.882 384.374C692.747 383.603 691.622 382.805 690.533 381.981" fill="#414042"/>
<path fill-rule="evenodd" clip-rule="evenodd" d="M730.577 338.285C731.223 338.027 731.966 338.234 732.378 338.786L742.639 352.535L739.705 341.136C739.537 340.483 739.84 339.802 740.442 339.476C741.044 339.151 741.795 339.263 742.272 339.749L747.542 345.12L754.26 342.519C755.039 342.218 755.921 342.591 756.231 343.354C756.541 344.116 756.16 344.978 755.381 345.28L747.716 348.247C747.142 348.469 746.488 348.329 746.06 347.894L744.046 345.841L747.488 359.215C747.665 359.904 747.318 360.619 746.66 360.92C746.003 361.221 745.218 361.023 744.79 360.449L733.547 345.385L734.85 354.043C734.953 354.723 734.563 355.383 733.909 355.636L727.388 358.161L729.699 371.218C729.818 371.895 729.447 372.563 728.801 372.833C728.155 373.103 727.404 372.904 726.985 372.352L716.896 359.068L720.04 369.789C720.224 370.417 719.967 371.088 719.406 371.442C718.845 371.797 718.113 371.751 717.602 371.329L709.866 364.944L699.212 369.068C698.701 369.266 698.12 369.178 697.693 368.838L696.006 367.493L699.306 380.834C699.476 381.519 699.13 382.225 698.479 382.524C697.828 382.824 697.05 382.634 696.617 382.071L684.466 366.247L685.939 374.994C686.055 375.683 685.665 376.357 685.002 376.613L678.952 378.955L677.83 376.195L682.745 374.292L680.465 360.757C680.352 360.082 680.724 359.42 681.366 359.152C682.009 358.884 682.756 359.081 683.176 359.628L694.626 374.538L691.996 363.906C691.843 363.287 692.111 362.641 692.662 362.303C693.213 361.964 693.924 362.007 694.429 362.41L698.918 365.987L709.589 361.856C710.108 361.655 710.7 361.75 711.128 362.103L715.747 365.916L711.678 352.037C711.476 351.347 711.807 350.616 712.464 350.299C713.122 349.982 713.918 350.17 714.356 350.747L725.621 365.581L724.187 357.474C724.064 356.782 724.454 356.102 725.122 355.843L731.672 353.308L729.65 339.873C729.548 339.197 729.931 338.542 730.577 338.285Z" fill="#414042"/>
<path opacity="0.7" d="M849.709 548.857L850.653 551.2L841.511 554.767L840.567 552.424L849.709 548.857ZM838.414 544.979L845.325 562.123L842.357 563.281L835.446 546.138L838.414 544.979ZM849.106 540.807L856.016 557.951L853.06 559.105L846.149 541.961L849.106 540.807ZM865.974 554.337C865.028 554.707 864.111 554.887 863.222 554.88C862.339 554.861 861.517 554.678 860.756 554.33C860.003 553.979 859.333 553.482 858.745 552.839C858.157 552.196 857.688 551.439 857.337 550.568L857.147 550.097C856.745 549.1 856.527 548.14 856.493 547.218C856.459 546.295 856.586 545.446 856.876 544.67C857.162 543.886 857.598 543.202 858.184 542.619C858.77 542.036 859.478 541.583 860.305 541.26C861.22 540.903 862.082 540.744 862.891 540.782C863.701 540.821 864.442 541.031 865.116 541.413C865.795 541.784 866.398 542.307 866.926 542.983C867.462 543.655 867.915 544.45 868.285 545.368L868.774 546.581L858.887 550.44L858.066 548.403L865.138 545.643L865.048 545.419C864.826 544.915 864.531 544.476 864.161 544.102C863.799 543.726 863.374 543.474 862.885 543.347C862.396 543.22 861.836 543.279 861.205 543.526C860.732 543.71 860.351 543.977 860.063 544.325C859.779 544.663 859.591 545.068 859.499 545.54C859.406 546.013 859.4 546.542 859.482 547.128C859.567 547.703 859.743 548.32 860.009 548.98L860.199 549.451C860.424 550.008 860.707 550.497 861.05 550.917C861.398 551.327 861.792 551.65 862.234 551.886C862.676 552.122 863.151 552.259 863.659 552.297C864.164 552.327 864.689 552.236 865.233 552.024C865.919 551.756 866.474 551.38 866.9 550.896C867.325 550.412 867.634 549.842 867.825 549.186L869.911 550.048C869.797 550.556 869.593 551.081 869.3 551.622C869.004 552.156 868.583 552.661 868.036 553.138C867.497 553.611 866.81 554.011 865.974 554.337ZM880.376 545.487L877.927 539.412C877.744 538.956 877.503 538.596 877.204 538.331C876.906 538.066 876.551 537.909 876.139 537.861C875.735 537.81 875.281 537.883 874.776 538.08C874.311 538.261 873.94 538.496 873.665 538.786C873.389 539.075 873.21 539.39 873.129 539.731C873.047 540.072 873.074 540.411 873.21 540.748L870.372 541.856C870.169 541.354 870.095 540.819 870.15 540.253C870.204 539.686 870.39 539.128 870.706 538.578C871.023 538.027 871.462 537.52 872.023 537.055C872.584 536.591 873.266 536.202 874.071 535.888C875.033 535.513 875.949 535.342 876.82 535.374C877.699 535.404 878.482 535.661 879.171 536.147C879.864 536.621 880.406 537.345 880.799 538.318L883.082 543.982C883.316 544.563 883.566 545.069 883.831 545.502C884.102 545.923 884.384 546.272 884.677 546.548L884.753 546.736L881.832 547.876C881.575 547.622 881.312 547.275 881.043 546.835C880.779 546.384 880.557 545.935 880.376 545.487ZM878.697 540.133L879.428 541.878L877.382 542.677C876.854 542.883 876.409 543.116 876.048 543.375C875.684 543.626 875.406 543.898 875.214 544.191C875.022 544.484 874.912 544.79 874.886 545.109C874.859 545.428 874.914 545.757 875.05 546.094C875.186 546.432 875.39 546.711 875.662 546.932C875.93 547.145 876.246 547.272 876.609 547.312C876.98 547.349 877.382 547.283 877.815 547.114C878.399 546.886 878.86 546.57 879.199 546.165C879.542 545.749 879.77 545.32 879.883 544.876C879.993 544.424 879.993 544.038 879.882 543.718L881.312 544.618C881.348 544.977 881.325 545.385 881.245 545.843C881.165 546.301 881.008 546.772 880.774 547.254C880.544 547.725 880.215 548.167 879.788 548.579C879.369 548.987 878.828 549.321 878.166 549.579C877.33 549.906 876.519 550.032 875.732 549.957C874.941 549.875 874.247 549.624 873.648 549.203C873.047 548.775 872.6 548.199 872.309 547.477C872.037 546.802 871.923 546.156 871.966 545.54C872.014 544.912 872.216 544.325 872.57 543.778C872.932 543.228 873.44 542.721 874.092 542.257C874.742 541.786 875.532 541.369 876.462 541.006L878.697 540.133ZM886.922 533.953L891.08 544.268L888.229 545.38L883.094 532.64L885.814 531.578L886.922 533.953ZM889.825 529.917L890.865 532.564C890.679 532.6 890.48 532.651 890.269 532.715C890.065 532.776 889.865 532.845 889.668 532.922C889.179 533.113 888.778 533.351 888.464 533.637C888.148 533.915 887.915 534.233 887.767 534.59C887.624 534.937 887.558 535.317 887.57 535.73C887.581 536.144 887.665 536.579 887.822 537.036L887.191 537.336C886.868 536.536 886.648 535.763 886.53 535.019C886.413 534.274 886.407 533.581 886.514 532.94C886.628 532.296 886.867 531.735 887.231 531.257C887.603 530.776 888.108 530.41 888.747 530.161C888.92 530.093 889.112 530.037 889.321 529.991C889.539 529.943 889.707 529.918 889.825 529.917ZM899.071 526.405L899.906 528.477L892.692 531.292L891.856 529.22L899.071 526.405ZM892.68 525.287L895.53 524.175L900.505 536.515C900.663 536.908 900.84 537.188 901.036 537.357C901.236 537.515 901.453 537.589 901.687 537.58C901.92 537.571 902.175 537.512 902.451 537.404C902.648 537.327 902.832 537.242 903.004 537.148C903.176 537.053 903.312 536.973 903.413 536.906L904.298 539.068C904.09 539.231 903.84 539.401 903.547 539.58C903.261 539.754 902.917 539.92 902.515 540.077C901.861 540.333 901.236 540.445 900.639 540.414C900.04 540.376 899.492 540.149 898.996 539.734C898.5 539.319 898.077 538.675 897.726 537.804L892.68 525.287Z" fill="black"/>
<defs>
<filter id="filter0_f_42_2120" x="0.518127" y="0.402588" width="1250.84" height="1356.87" filterUnits="userSpaceOnUse" color-interpolation-filters="sRGB">
<feFlood flood-opacity="0" result="BackgroundImageFix"/>
<feBlend mode="normal" in="SourceGraphic" in2="BackgroundImageFix" result="shape"/>
<feGaussianBlur stdDeviation="62" result="effect1_foregroundBlur_42_2120"/>
</filter>
<filter id="filter1_d_42_2120" x="601.531" y="124.262" width="270.862" height="268.04" filterUnits="userSpaceOnUse" color-interpolation-filters="sRGB">
<feFlood flood-opacity="0" result="BackgroundImageFix"/>
<feColorMatrix in="SourceAlpha" type="matrix" values="0 0 0 0 0 0 0 0 0 0 0 0 0 0 0 0 0 0 127 0" result="hardAlpha"/>
<feOffset dy="34"/>
<feGaussianBlur stdDeviation="22"/>
<feComposite in2="hardAlpha" operator="out"/>
<feColorMatrix type="matrix" values="0 0 0 0 0 0 0 0 0 0 0 0 0 0 0 0 0 0 0.1 0"/>
<feBlend mode="normal" in2="BackgroundImageFix" result="effect1_dropShadow_42_2120"/>
<feBlend mode="normal" in="SourceGraphic" in2="effect1_dropShadow_42_2120" result="shape"/>
</filter>
</defs>
</svg>
