<svg width="237" height="29" viewBox="0 0 237 29" fill="none" xmlns="http://www.w3.org/2000/svg">
<path d="M0.206638 22V0.399999H4.04664V13.15L9.32664 7.12H13.8866L7.79664 13.9L14.8766 22H10.0766L4.04664 14.53V22H0.206638ZM24.0374 22.36C22.1774 22.36 20.7374 21.78 19.7174 20.62C18.7174 19.46 18.2174 17.76 18.2174 15.52V7.12H22.0274V15.16C22.0274 16.44 22.2874 17.42 22.8074 18.1C23.3274 18.78 24.1474 19.12 25.2674 19.12C26.3274 19.12 27.1974 18.74 27.8774 17.98C28.5774 17.22 28.9274 16.16 28.9274 14.8V7.12H32.7674V22H29.3774L29.0774 19.48C28.6174 20.36 27.9474 21.06 27.0674 21.58C26.2074 22.1 25.1974 22.36 24.0374 22.36ZM37.9094 22V7.12H41.3294L41.6894 9.91C42.2294 8.95 42.9594 8.19 43.8794 7.63C44.8194 7.05 45.9194 6.76 47.1794 6.76V10.81H46.0994C45.2594 10.81 44.5094 10.94 43.8494 11.2C43.1894 11.46 42.6694 11.91 42.2894 12.55C41.9294 13.19 41.7494 14.08 41.7494 15.22V22H37.9094ZM56.1339 22.36C54.8539 22.36 53.8039 22.16 52.9839 21.76C52.1639 21.34 51.5539 20.79 51.1539 20.11C50.7539 19.43 50.5539 18.68 50.5539 17.86C50.5539 16.48 51.0939 15.36 52.1739 14.5C53.2539 13.64 54.8739 13.21 57.0339 13.21H60.8139V12.85C60.8139 11.83 60.5239 11.08 59.9439 10.6C59.3639 10.12 58.6439 9.88 57.7839 9.88C57.0039 9.88 56.3239 10.07 55.7439 10.45C55.1639 10.81 54.8039 11.35 54.6639 12.07H50.9139C51.0139 10.99 51.3739 10.05 51.9939 9.25C52.6339 8.45 53.4539 7.84 54.4539 7.42C55.4539 6.98 56.5739 6.76 57.8139 6.76C59.9339 6.76 61.6039 7.29 62.8239 8.35C64.0439 9.41 64.6539 10.91 64.6539 12.85V22H61.3839L61.0239 19.6C60.5839 20.4 59.9639 21.06 59.1639 21.58C58.3839 22.1 57.3739 22.36 56.1339 22.36ZM57.0039 19.36C58.1039 19.36 58.9539 19 59.5539 18.28C60.1739 17.56 60.5639 16.67 60.7239 15.61H57.4539C56.4339 15.61 55.7039 15.8 55.2639 16.18C54.8239 16.54 54.6039 16.99 54.6039 17.53C54.6039 18.11 54.8239 18.56 55.2639 18.88C55.7039 19.2 56.2839 19.36 57.0039 19.36ZM69.5184 22V7.12H72.9084L73.2084 9.64C73.6684 8.76 74.3284 8.06 75.1884 7.54C76.0684 7.02 77.0984 6.76 78.2784 6.76C80.1184 6.76 81.5484 7.34 82.5684 8.5C83.5884 9.66 84.0984 11.36 84.0984 13.6V22H80.2584V13.96C80.2584 12.68 79.9984 11.7 79.4784 11.02C78.9584 10.34 78.1484 10 77.0484 10C75.9684 10 75.0784 10.38 74.3784 11.14C73.6984 11.9 73.3584 12.96 73.3584 14.32V22H69.5184ZM95.2703 17.56C94.5503 17.56 93.8803 17.48 93.2603 17.32L92.1503 18.43C92.4903 18.61 92.9503 18.76 93.5303 18.88C94.1103 19 95.0503 19.12 96.3503 19.24C98.3303 19.42 99.7703 19.89 100.67 20.65C101.57 21.41 102.02 22.46 102.02 23.8C102.02 24.68 101.78 25.51 101.3 26.29C100.82 27.09 100.08 27.73 99.0803 28.21C98.0803 28.71 96.8003 28.96 95.2403 28.96C93.1203 28.96 91.4103 28.56 90.1103 27.76C88.8103 26.98 88.1603 25.8 88.1603 24.22C88.1603 22.88 88.8103 21.72 90.1103 20.74C89.7103 20.56 89.3603 20.37 89.0603 20.17C88.7803 19.97 88.5303 19.76 88.3103 19.54V18.85L90.9203 16.09C89.7603 15.07 89.1803 13.76 89.1803 12.16C89.1803 11.16 89.4203 10.25 89.9003 9.43C90.4003 8.61 91.1003 7.96 92.0003 7.48C92.9003 7 93.9903 6.76 95.2703 6.76C96.1103 6.76 96.8903 6.88 97.6103 7.12H103.25V9.46L100.7 9.64C101.1 10.4 101.3 11.24 101.3 12.16C101.3 13.16 101.06 14.07 100.58 14.89C100.1 15.71 99.4003 16.36 98.4803 16.84C97.5803 17.32 96.5103 17.56 95.2703 17.56ZM95.2703 14.62C96.0503 14.62 96.6903 14.41 97.1903 13.99C97.7103 13.57 97.9703 12.97 97.9703 12.19C97.9703 11.41 97.7103 10.81 97.1903 10.39C96.6903 9.97 96.0503 9.76 95.2703 9.76C94.4503 9.76 93.7903 9.97 93.2903 10.39C92.7903 10.81 92.5403 11.41 92.5403 12.19C92.5403 12.97 92.7903 13.57 93.2903 13.99C93.7903 14.41 94.4503 14.62 95.2703 14.62ZM91.6703 23.83C91.6703 24.57 92.0103 25.12 92.6903 25.48C93.3903 25.86 94.2403 26.05 95.2403 26.05C96.2003 26.05 96.9803 25.85 97.5803 25.45C98.1803 25.07 98.4803 24.55 98.4803 23.89C98.4803 23.35 98.2803 22.9 97.8803 22.54C97.5003 22.18 96.7303 21.96 95.5703 21.88C94.7503 21.82 93.9903 21.73 93.2903 21.61C92.7103 21.93 92.2903 22.28 92.0303 22.66C91.7903 23.04 91.6703 23.43 91.6703 23.83ZM121.749 22.36C120.429 22.36 119.269 22.15 118.269 21.73C117.269 21.29 116.469 20.69 115.869 19.93C115.269 19.17 114.909 18.29 114.789 17.29H118.659C118.779 17.87 119.099 18.37 119.619 18.79C120.159 19.19 120.849 19.39 121.689 19.39C122.529 19.39 123.139 19.22 123.519 18.88C123.919 18.54 124.119 18.15 124.119 17.71C124.119 17.07 123.839 16.64 123.279 16.42C122.719 16.18 121.939 15.95 120.939 15.73C120.299 15.59 119.649 15.42 118.989 15.22C118.329 15.02 117.719 14.77 117.159 14.47C116.619 14.15 116.179 13.75 115.839 13.27C115.499 12.77 115.329 12.16 115.329 11.44C115.329 10.12 115.849 9.01 116.889 8.11C117.949 7.21 119.429 6.76 121.329 6.76C123.089 6.76 124.489 7.17 125.529 7.99C126.589 8.81 127.219 9.94 127.419 11.38H123.789C123.569 10.28 122.739 9.73 121.299 9.73C120.579 9.73 120.019 9.87 119.619 10.15C119.239 10.43 119.049 10.78 119.049 11.2C119.049 11.64 119.339 11.99 119.919 12.25C120.499 12.51 121.269 12.75 122.229 12.97C123.269 13.21 124.219 13.48 125.079 13.78C125.959 14.06 126.659 14.49 127.179 15.07C127.699 15.63 127.959 16.44 127.959 17.5C127.979 18.42 127.739 19.25 127.239 19.99C126.739 20.73 126.019 21.31 125.079 21.73C124.139 22.15 123.029 22.36 121.749 22.36ZM138.722 22C137.162 22 135.912 21.62 134.972 20.86C134.032 20.1 133.562 18.75 133.562 16.81V10.33H131.012V7.12H133.562L134.012 3.13H137.402V7.12H141.422V10.33H137.402V16.84C137.402 17.56 137.552 18.06 137.852 18.34C138.172 18.6 138.712 18.73 139.472 18.73H141.332V22H138.722ZM151.049 22.36C149.769 22.36 148.719 22.16 147.899 21.76C147.079 21.34 146.469 20.79 146.069 20.11C145.669 19.43 145.469 18.68 145.469 17.86C145.469 16.48 146.009 15.36 147.089 14.5C148.169 13.64 149.789 13.21 151.949 13.21H155.729V12.85C155.729 11.83 155.439 11.08 154.859 10.6C154.279 10.12 153.559 9.88 152.699 9.88C151.919 9.88 151.239 10.07 150.659 10.45C150.079 10.81 149.719 11.35 149.579 12.07H145.829C145.929 10.99 146.289 10.05 146.909 9.25C147.549 8.45 148.369 7.84 149.369 7.42C150.369 6.98 151.489 6.76 152.729 6.76C154.849 6.76 156.519 7.29 157.739 8.35C158.959 9.41 159.569 10.91 159.569 12.85V22H156.299L155.939 19.6C155.499 20.4 154.879 21.06 154.079 21.58C153.299 22.1 152.289 22.36 151.049 22.36ZM151.919 19.36C153.019 19.36 153.869 19 154.469 18.28C155.089 17.56 155.479 16.67 155.639 15.61H152.369C151.349 15.61 150.619 15.8 150.179 16.18C149.739 16.54 149.519 16.99 149.519 17.53C149.519 18.11 149.739 18.56 150.179 18.88C150.619 19.2 151.199 19.36 151.919 19.36ZM164.433 22V7.12H167.823L168.153 9.13C168.633 8.41 169.263 7.84 170.043 7.42C170.843 6.98 171.763 6.76 172.803 6.76C175.103 6.76 176.733 7.65 177.693 9.43C178.233 8.61 178.953 7.96 179.853 7.48C180.773 7 181.773 6.76 182.853 6.76C184.793 6.76 186.283 7.34 187.323 8.5C188.363 9.66 188.883 11.36 188.883 13.6V22H185.043V13.96C185.043 12.68 184.793 11.7 184.293 11.02C183.813 10.34 183.063 10 182.043 10C181.003 10 180.163 10.38 179.523 11.14C178.903 11.9 178.593 12.96 178.593 14.32V22H174.753V13.96C174.753 12.68 174.503 11.7 174.003 11.02C173.503 10.34 172.733 10 171.693 10C170.673 10 169.843 10.38 169.203 11.14C168.583 11.9 168.273 12.96 168.273 14.32V22H164.433ZM195.799 4.81C195.099 4.81 194.519 4.6 194.059 4.18C193.619 3.76 193.399 3.23 193.399 2.59C193.399 1.95 193.619 1.43 194.059 1.03C194.519 0.609999 195.099 0.399999 195.799 0.399999C196.499 0.399999 197.069 0.609999 197.509 1.03C197.969 1.43 198.199 1.95 198.199 2.59C198.199 3.23 197.969 3.76 197.509 4.18C197.069 4.6 196.499 4.81 195.799 4.81ZM193.879 22V7.12H197.719V22H193.879ZM202.927 22V7.12H206.317L206.617 9.64C207.077 8.76 207.737 8.06 208.597 7.54C209.477 7.02 210.507 6.76 211.687 6.76C213.527 6.76 214.957 7.34 215.977 8.5C216.997 9.66 217.507 11.36 217.507 13.6V22H213.667V13.96C213.667 12.68 213.407 11.7 212.887 11.02C212.367 10.34 211.557 10 210.457 10C209.377 10 208.487 10.38 207.787 11.14C207.107 11.9 206.767 12.96 206.767 14.32V22H202.927ZM227.509 22.36C226.229 22.36 225.179 22.16 224.359 21.76C223.539 21.34 222.929 20.79 222.529 20.11C222.129 19.43 221.929 18.68 221.929 17.86C221.929 16.48 222.469 15.36 223.549 14.5C224.629 13.64 226.249 13.21 228.409 13.21H232.189V12.85C232.189 11.83 231.899 11.08 231.319 10.6C230.739 10.12 230.019 9.88 229.159 9.88C228.379 9.88 227.699 10.07 227.119 10.45C226.539 10.81 226.179 11.35 226.039 12.07H222.289C222.389 10.99 222.749 10.05 223.369 9.25C224.009 8.45 224.829 7.84 225.829 7.42C226.829 6.98 227.949 6.76 229.189 6.76C231.309 6.76 232.979 7.29 234.199 8.35C235.419 9.41 236.029 10.91 236.029 12.85V22H232.759L232.399 19.6C231.959 20.4 231.339 21.06 230.539 21.58C229.759 22.1 228.749 22.36 227.509 22.36ZM228.379 19.36C229.479 19.36 230.329 19 230.929 18.28C231.549 17.56 231.939 16.67 232.099 15.61H228.829C227.809 15.61 227.079 15.8 226.639 16.18C226.199 16.54 225.979 16.99 225.979 17.53C225.979 18.11 226.199 18.56 226.639 18.88C227.079 19.2 227.659 19.36 228.379 19.36Z" fill="black"/>
</svg>
