<svg width="685" height="153" viewBox="0 0 685 153" fill="none" xmlns="http://www.w3.org/2000/svg">
<path d="M28.944 37.166C28.372 37.65 27.624 38.046 26.7 38.354C25.82 38.618 24.786 38.75 23.598 38.75C22.014 38.75 20.694 38.552 19.638 38.156C18.626 37.76 17.966 37.078 17.658 36.11C16.426 32.238 15.414 29.114 14.622 26.738C13.83 24.318 13.214 22.206 12.774 20.402H12.444C12.312 22.998 12.202 25.374 12.114 27.53C12.07 29.642 12.026 31.71 11.982 33.734C11.982 35.758 11.938 37.804 11.85 39.872C11.806 41.94 11.718 44.228 11.586 46.736C11.014 46.956 10.266 47.132 9.342 47.264C8.418 47.44 7.494 47.528 6.57 47.528C4.634 47.528 3.116 47.22 2.016 46.604C0.96 45.988 0.432 44.866 0.432 43.238L2.346 9.578C2.698 9.006 3.468 8.39 4.656 7.73C5.844 7.07 7.516 6.74 9.672 6.74C12.004 6.74 13.83 7.114 15.15 7.862C16.47 8.566 17.438 9.732 18.054 11.36C18.45 12.416 18.868 13.626 19.308 14.99C19.792 16.354 20.254 17.762 20.694 19.214C21.178 20.666 21.64 22.118 22.08 23.57C22.52 24.978 22.916 26.254 23.268 27.398H23.598C24.654 23.702 25.71 20.138 26.766 16.706C27.822 13.23 28.79 10.326 29.67 7.994C30.33 7.642 31.166 7.356 32.178 7.136C33.234 6.872 34.4 6.74 35.676 6.74C37.832 6.74 39.592 7.07 40.956 7.73C42.32 8.346 43.112 9.248 43.332 10.436C43.508 11.316 43.684 12.68 43.86 14.528C44.08 16.332 44.3 18.378 44.52 20.666C44.74 22.954 44.96 25.374 45.18 27.926C45.4 30.478 45.598 32.942 45.774 35.318C45.994 37.65 46.17 39.806 46.302 41.786C46.434 43.722 46.522 45.218 46.566 46.274C45.818 46.714 45.026 47.022 44.19 47.198C43.398 47.418 42.364 47.528 41.088 47.528C39.416 47.528 38.008 47.242 36.864 46.67C35.72 46.098 35.104 44.976 35.016 43.304C34.752 38.508 34.576 34.196 34.488 30.368C34.444 26.54 34.356 23.328 34.224 20.732H33.894C33.454 22.448 32.816 24.604 31.98 27.2C31.144 29.796 30.132 33.118 28.944 37.166ZM69.3938 39.872C70.1418 39.872 70.9558 39.806 71.8358 39.674C72.7598 39.498 73.4418 39.278 73.8817 39.014V33.734L69.1298 34.13C67.8978 34.218 66.8858 34.482 66.0937 34.922C65.3017 35.362 64.9057 36.022 64.9057 36.902C64.9057 37.782 65.2357 38.508 65.8958 39.08C66.5997 39.608 67.7658 39.872 69.3938 39.872ZM68.8657 13.934C71.2418 13.934 73.3978 14.176 75.3338 14.66C77.3138 15.144 78.9858 15.892 80.3498 16.904C81.7578 17.872 82.8358 19.126 83.5838 20.666C84.3318 22.162 84.7058 23.944 84.7058 26.012V40.796C84.7058 41.94 84.3758 42.886 83.7158 43.634C83.0998 44.338 82.3518 44.954 81.4718 45.482C78.6118 47.198 74.5858 48.056 69.3938 48.056C67.0618 48.056 64.9498 47.836 63.0577 47.396C61.2097 46.956 59.6037 46.296 58.2397 45.416C56.9197 44.536 55.8857 43.414 55.1377 42.05C54.4337 40.686 54.0817 39.102 54.0817 37.298C54.0817 34.262 54.9837 31.93 56.7877 30.302C58.5917 28.674 61.3857 27.662 65.1698 27.266L73.8158 26.342V25.88C73.8158 24.604 73.2438 23.702 72.0998 23.174C70.9998 22.602 69.3938 22.316 67.2818 22.316C65.6098 22.316 63.9818 22.492 62.3978 22.844C60.8138 23.196 59.3837 23.636 58.1077 24.164C57.5357 23.768 57.0517 23.174 56.6557 22.382C56.2597 21.546 56.0617 20.688 56.0617 19.808C56.0617 18.664 56.3257 17.762 56.8537 17.102C57.4257 16.398 58.2837 15.804 59.4277 15.32C60.7037 14.836 62.1997 14.484 63.9157 14.264C65.6757 14.044 67.3257 13.934 68.8657 13.934ZM105.426 46.934C104.986 47.066 104.282 47.198 103.314 47.33C102.39 47.462 101.422 47.528 100.41 47.528C99.4421 47.528 98.5621 47.462 97.7701 47.33C97.0221 47.198 96.3841 46.934 95.8561 46.538C95.3281 46.142 94.9101 45.614 94.6021 44.954C94.3381 44.25 94.2061 43.348 94.2061 42.248V22.448C94.2061 21.436 94.3821 20.578 94.7341 19.874C95.1301 19.126 95.6801 18.466 96.3841 17.894C97.0881 17.322 97.9461 16.816 98.9581 16.376C100.014 15.892 101.136 15.474 102.324 15.122C103.512 14.77 104.744 14.506 106.02 14.33C107.296 14.11 108.572 14 109.848 14C111.96 14 113.632 14.418 114.864 15.254C116.096 16.046 116.712 17.366 116.712 19.214C116.712 19.83 116.624 20.446 116.448 21.062C116.272 21.634 116.052 22.162 115.788 22.646C114.864 22.646 113.918 22.69 112.95 22.778C111.982 22.866 111.036 22.998 110.112 23.174C109.188 23.35 108.308 23.548 107.472 23.768C106.68 23.944 105.998 24.164 105.426 24.428V46.934ZM123.717 6.014C123.717 4.342 124.267 2.934 125.367 1.79C126.511 0.645998 128.007 0.0739983 129.855 0.0739983C131.703 0.0739983 133.177 0.645998 134.277 1.79C135.421 2.934 135.993 4.342 135.993 6.014C135.993 7.686 135.421 9.094 134.277 10.238C133.177 11.382 131.703 11.954 129.855 11.954C128.007 11.954 126.511 11.382 125.367 10.238C124.267 9.094 123.717 7.686 123.717 6.014ZM135.465 46.934C134.981 47.022 134.255 47.132 133.287 47.264C132.363 47.44 131.417 47.528 130.449 47.528C129.481 47.528 128.601 47.462 127.809 47.33C127.061 47.198 126.423 46.934 125.895 46.538C125.367 46.142 124.949 45.614 124.641 44.954C124.377 44.25 124.245 43.348 124.245 42.248V15.386C124.729 15.298 125.433 15.188 126.357 15.056C127.325 14.88 128.293 14.792 129.261 14.792C130.229 14.792 131.087 14.858 131.835 14.99C132.627 15.122 133.287 15.386 133.815 15.782C134.343 16.178 134.739 16.728 135.003 17.432C135.311 18.092 135.465 18.972 135.465 20.072V46.934ZM173.575 32.15V46.736C173.091 46.868 172.321 47 171.265 47.132C170.209 47.264 169.175 47.33 168.163 47.33C167.151 47.33 166.249 47.242 165.457 47.066C164.709 46.934 164.071 46.67 163.543 46.274C163.015 45.878 162.619 45.328 162.355 44.624C162.091 43.92 161.959 42.996 161.959 41.852V7.004C162.443 6.916 163.213 6.806 164.269 6.674C165.325 6.498 166.337 6.41 167.305 6.41C168.317 6.41 169.197 6.498 169.945 6.674C170.737 6.806 171.397 7.07 171.925 7.466C172.453 7.862 172.849 8.412 173.113 9.116C173.377 9.82 173.509 10.744 173.509 11.888V22.382L187.237 6.608C190.229 6.608 192.363 7.18 193.639 8.324C194.959 9.424 195.619 10.744 195.619 12.284C195.619 13.428 195.333 14.506 194.761 15.518C194.189 16.53 193.265 17.674 191.989 18.95L183.739 27.2C184.839 28.432 185.983 29.708 187.171 31.028C188.403 32.348 189.591 33.646 190.735 34.922C191.923 36.154 193.045 37.342 194.101 38.486C195.201 39.63 196.147 40.62 196.939 41.456C196.939 42.424 196.763 43.282 196.411 44.03C196.059 44.778 195.575 45.416 194.959 45.944C194.387 46.472 193.727 46.868 192.979 47.132C192.231 47.396 191.439 47.528 190.603 47.528C188.799 47.528 187.325 47.088 186.181 46.208C185.037 45.284 183.937 44.206 182.881 42.974L173.575 32.15ZM203.76 6.014C203.76 4.342 204.31 2.934 205.41 1.79C206.554 0.645998 208.05 0.0739983 209.898 0.0739983C211.746 0.0739983 213.22 0.645998 214.32 1.79C215.464 2.934 216.036 4.342 216.036 6.014C216.036 7.686 215.464 9.094 214.32 10.238C213.22 11.382 211.746 11.954 209.898 11.954C208.05 11.954 206.554 11.382 205.41 10.238C204.31 9.094 203.76 7.686 203.76 6.014ZM215.508 46.934C215.024 47.022 214.298 47.132 213.33 47.264C212.406 47.44 211.46 47.528 210.492 47.528C209.524 47.528 208.644 47.462 207.852 47.33C207.104 47.198 206.466 46.934 205.938 46.538C205.41 46.142 204.992 45.614 204.684 44.954C204.42 44.25 204.288 43.348 204.288 42.248V15.386C204.772 15.298 205.476 15.188 206.4 15.056C207.368 14.88 208.336 14.792 209.304 14.792C210.272 14.792 211.13 14.858 211.878 14.99C212.67 15.122 213.33 15.386 213.858 15.782C214.386 16.178 214.782 16.728 215.046 17.432C215.354 18.092 215.508 18.972 215.508 20.072V46.934ZM236.511 35.978C236.511 37.122 236.863 37.936 237.567 38.42C238.315 38.904 239.349 39.146 240.669 39.146C241.329 39.146 242.011 39.102 242.715 39.014C243.419 38.882 244.035 38.728 244.563 38.552C244.959 39.036 245.289 39.586 245.553 40.202C245.861 40.774 246.015 41.478 246.015 42.314C246.015 43.986 245.377 45.35 244.101 46.406C242.869 47.462 240.669 47.99 237.501 47.99C233.629 47.99 230.637 47.11 228.525 45.35C226.457 43.59 225.423 40.73 225.423 36.77V8.522C225.907 8.39 226.589 8.258 227.469 8.126C228.393 7.95 229.361 7.862 230.373 7.862C232.309 7.862 233.805 8.214 234.861 8.918C235.961 9.578 236.511 11.008 236.511 13.208V17.432H245.157C245.421 17.916 245.663 18.532 245.883 19.28C246.147 19.984 246.279 20.776 246.279 21.656C246.279 23.196 245.927 24.318 245.223 25.022C244.563 25.682 243.661 26.012 242.517 26.012H236.511V35.978ZM268.085 39.872C268.833 39.872 269.647 39.806 270.527 39.674C271.451 39.498 272.133 39.278 272.573 39.014V33.734L267.821 34.13C266.589 34.218 265.577 34.482 264.785 34.922C263.993 35.362 263.597 36.022 263.597 36.902C263.597 37.782 263.927 38.508 264.587 39.08C265.291 39.608 266.457 39.872 268.085 39.872ZM267.557 13.934C269.933 13.934 272.089 14.176 274.025 14.66C276.005 15.144 277.677 15.892 279.041 16.904C280.449 17.872 281.527 19.126 282.275 20.666C283.023 22.162 283.397 23.944 283.397 26.012V40.796C283.397 41.94 283.067 42.886 282.407 43.634C281.791 44.338 281.043 44.954 280.163 45.482C277.303 47.198 273.277 48.056 268.085 48.056C265.753 48.056 263.641 47.836 261.749 47.396C259.901 46.956 258.295 46.296 256.931 45.416C255.611 44.536 254.577 43.414 253.829 42.05C253.125 40.686 252.773 39.102 252.773 37.298C252.773 34.262 253.675 31.93 255.479 30.302C257.283 28.674 260.077 27.662 263.861 27.266L272.507 26.342V25.88C272.507 24.604 271.935 23.702 270.791 23.174C269.691 22.602 268.085 22.316 265.973 22.316C264.301 22.316 262.673 22.492 261.089 22.844C259.505 23.196 258.075 23.636 256.799 24.164C256.227 23.768 255.743 23.174 255.347 22.382C254.951 21.546 254.753 20.688 254.753 19.808C254.753 18.664 255.017 17.762 255.545 17.102C256.117 16.398 256.975 15.804 258.119 15.32C259.395 14.836 260.891 14.484 262.607 14.264C264.367 14.044 266.017 13.934 267.557 13.934ZM324.59 25.55C326.438 25.55 327.846 25.132 328.814 24.296C329.826 23.416 330.332 22.096 330.332 20.336C330.332 18.664 329.804 17.388 328.748 16.508C327.736 15.584 326.24 15.122 324.26 15.122C323.556 15.122 322.962 15.144 322.478 15.188C322.038 15.188 321.576 15.232 321.092 15.32V25.55H324.59ZM321.158 46.736C320.674 46.868 319.904 47 318.848 47.132C317.836 47.264 316.824 47.33 315.812 47.33C314.8 47.33 313.898 47.242 313.106 47.066C312.358 46.934 311.72 46.67 311.192 46.274C310.664 45.878 310.268 45.328 310.004 44.624C309.74 43.92 309.608 42.996 309.608 41.852V10.766C309.608 9.842 309.85 9.138 310.334 8.654C310.862 8.126 311.566 7.708 312.446 7.4C313.942 6.872 315.636 6.498 317.528 6.278C319.464 6.014 321.4 5.882 323.336 5.882C329.408 5.882 334.05 7.18 337.262 9.776C340.474 12.372 342.08 15.892 342.08 20.336C342.08 22.492 341.728 24.45 341.024 26.21C340.364 27.926 339.352 29.422 337.988 30.698C336.668 31.93 334.974 32.898 332.906 33.602C330.882 34.262 328.528 34.592 325.844 34.592H321.158V46.736ZM365.735 48.056C363.139 48.056 360.719 47.704 358.475 47C356.275 46.252 354.339 45.152 352.667 43.7C351.039 42.248 349.741 40.422 348.773 38.222C347.849 36.022 347.387 33.448 347.387 30.5C347.387 27.596 347.849 25.11 348.773 23.042C349.741 20.93 350.995 19.214 352.535 17.894C354.075 16.53 355.835 15.54 357.815 14.924C359.795 14.264 361.819 13.934 363.887 13.934C366.219 13.934 368.331 14.286 370.223 14.99C372.159 15.694 373.809 16.662 375.173 17.894C376.581 19.126 377.659 20.6 378.407 22.316C379.199 24.032 379.595 25.902 379.595 27.926C379.595 29.422 379.177 30.566 378.341 31.358C377.505 32.15 376.339 32.656 374.843 32.876L358.541 35.318C359.025 36.77 360.015 37.87 361.511 38.618C363.007 39.322 364.723 39.674 366.659 39.674C368.463 39.674 370.157 39.454 371.741 39.014C373.369 38.53 374.689 37.98 375.701 37.364C376.405 37.804 376.999 38.42 377.483 39.212C377.967 40.004 378.209 40.84 378.209 41.72C378.209 43.7 377.285 45.174 375.437 46.142C374.029 46.89 372.445 47.396 370.685 47.66C368.925 47.924 367.275 48.056 365.735 48.056ZM363.887 22.118C362.831 22.118 361.907 22.294 361.115 22.646C360.367 22.998 359.751 23.46 359.267 24.032C358.783 24.56 358.409 25.176 358.145 25.88C357.925 26.54 357.793 27.222 357.749 27.926L369.035 26.078C368.903 25.198 368.419 24.318 367.583 23.438C366.747 22.558 365.515 22.118 363.887 22.118ZM398.855 46.934C398.415 47.066 397.711 47.198 396.743 47.33C395.819 47.462 394.851 47.528 393.839 47.528C392.871 47.528 391.991 47.462 391.199 47.33C390.451 47.198 389.813 46.934 389.285 46.538C388.757 46.142 388.339 45.614 388.031 44.954C387.767 44.25 387.635 43.348 387.635 42.248V22.448C387.635 21.436 387.811 20.578 388.163 19.874C388.559 19.126 389.109 18.466 389.813 17.894C390.517 17.322 391.375 16.816 392.387 16.376C393.443 15.892 394.565 15.474 395.753 15.122C396.941 14.77 398.173 14.506 399.449 14.33C400.725 14.11 402.001 14 403.277 14C405.389 14 407.061 14.418 408.293 15.254C409.525 16.046 410.141 17.366 410.141 19.214C410.141 19.83 410.053 20.446 409.877 21.062C409.701 21.634 409.481 22.162 409.217 22.646C408.293 22.646 407.347 22.69 406.379 22.778C405.411 22.866 404.465 22.998 403.541 23.174C402.617 23.35 401.737 23.548 400.901 23.768C400.109 23.944 399.427 24.164 398.855 24.428V46.934ZM449.09 46.934C448.65 47.066 447.946 47.198 446.978 47.33C446.054 47.462 445.086 47.528 444.074 47.528C443.106 47.528 442.226 47.462 441.434 47.33C440.686 47.198 440.048 46.934 439.52 46.538C438.992 46.142 438.574 45.614 438.266 44.954C438.002 44.25 437.87 43.348 437.87 42.248V27.596C437.87 25.792 437.408 24.538 436.484 23.834C435.604 23.086 434.504 22.712 433.184 22.712C432.304 22.712 431.468 22.822 430.676 23.042C429.884 23.262 429.246 23.526 428.762 23.834V46.934C428.322 47.066 427.618 47.198 426.65 47.33C425.726 47.462 424.758 47.528 423.746 47.528C422.778 47.528 421.898 47.462 421.106 47.33C420.358 47.198 419.72 46.934 419.192 46.538C418.664 46.142 418.246 45.614 417.938 44.954C417.674 44.25 417.542 43.348 417.542 42.248V3.968C418.026 3.88 418.73 3.77 419.654 3.638C420.622 3.462 421.59 3.374 422.558 3.374C423.526 3.374 424.384 3.44 425.132 3.572C425.924 3.704 426.584 3.968 427.112 4.364C427.64 4.76 428.036 5.31 428.3 6.014C428.608 6.674 428.762 7.554 428.762 8.654V15.122C429.334 14.902 430.192 14.66 431.336 14.396C432.524 14.088 433.822 13.934 435.23 13.934C439.586 13.934 442.974 15.034 445.394 17.234C447.858 19.39 449.09 22.624 449.09 26.936V46.934ZM472.386 39.872C473.134 39.872 473.948 39.806 474.828 39.674C475.752 39.498 476.434 39.278 476.874 39.014V33.734L472.122 34.13C470.89 34.218 469.878 34.482 469.086 34.922C468.294 35.362 467.898 36.022 467.898 36.902C467.898 37.782 468.228 38.508 468.888 39.08C469.592 39.608 470.758 39.872 472.386 39.872ZM471.858 13.934C474.234 13.934 476.39 14.176 478.326 14.66C480.306 15.144 481.978 15.892 483.342 16.904C484.75 17.872 485.828 19.126 486.576 20.666C487.324 22.162 487.698 23.944 487.698 26.012V40.796C487.698 41.94 487.368 42.886 486.708 43.634C486.092 44.338 485.344 44.954 484.464 45.482C481.604 47.198 477.578 48.056 472.386 48.056C470.054 48.056 467.942 47.836 466.05 47.396C464.202 46.956 462.596 46.296 461.232 45.416C459.912 44.536 458.878 43.414 458.13 42.05C457.426 40.686 457.074 39.102 457.074 37.298C457.074 34.262 457.976 31.93 459.78 30.302C461.584 28.674 464.378 27.662 468.162 27.266L476.808 26.342V25.88C476.808 24.604 476.236 23.702 475.092 23.174C473.992 22.602 472.386 22.316 470.274 22.316C468.602 22.316 466.974 22.492 465.39 22.844C463.806 23.196 462.376 23.636 461.1 24.164C460.528 23.768 460.044 23.174 459.648 22.382C459.252 21.546 459.054 20.688 459.054 19.808C459.054 18.664 459.318 17.762 459.846 17.102C460.418 16.398 461.276 15.804 462.42 15.32C463.696 14.836 465.192 14.484 466.908 14.264C468.668 14.044 470.318 13.934 471.858 13.934ZM508.418 35.978C508.418 37.122 508.77 37.936 509.474 38.42C510.222 38.904 511.256 39.146 512.576 39.146C513.236 39.146 513.918 39.102 514.622 39.014C515.326 38.882 515.942 38.728 516.47 38.552C516.866 39.036 517.196 39.586 517.46 40.202C517.768 40.774 517.922 41.478 517.922 42.314C517.922 43.986 517.284 45.35 516.008 46.406C514.776 47.462 512.576 47.99 509.408 47.99C505.536 47.99 502.544 47.11 500.432 45.35C498.364 43.59 497.33 40.73 497.33 36.77V8.522C497.814 8.39 498.496 8.258 499.376 8.126C500.3 7.95 501.268 7.862 502.28 7.862C504.216 7.862 505.712 8.214 506.768 8.918C507.868 9.578 508.418 11.008 508.418 13.208V17.432H517.064C517.328 17.916 517.57 18.532 517.79 19.28C518.054 19.984 518.186 20.776 518.186 21.656C518.186 23.196 517.834 24.318 517.13 25.022C516.47 25.682 515.568 26.012 514.424 26.012H508.418V35.978ZM526 6.014C526 4.342 526.55 2.934 527.65 1.79C528.794 0.645998 530.29 0.0739983 532.138 0.0739983C533.986 0.0739983 535.46 0.645998 536.56 1.79C537.704 2.934 538.276 4.342 538.276 6.014C538.276 7.686 537.704 9.094 536.56 10.238C535.46 11.382 533.986 11.954 532.138 11.954C530.29 11.954 528.794 11.382 527.65 10.238C526.55 9.094 526 7.686 526 6.014ZM537.748 46.934C537.264 47.022 536.538 47.132 535.57 47.264C534.646 47.44 533.7 47.528 532.732 47.528C531.764 47.528 530.884 47.462 530.092 47.33C529.344 47.198 528.706 46.934 528.178 46.538C527.65 46.142 527.232 45.614 526.924 44.954C526.66 44.25 526.528 43.348 526.528 42.248V15.386C527.012 15.298 527.716 15.188 528.64 15.056C529.608 14.88 530.576 14.792 531.544 14.792C532.512 14.792 533.37 14.858 534.118 14.99C534.91 15.122 535.57 15.386 536.098 15.782C536.626 16.178 537.022 16.728 537.286 17.432C537.594 18.092 537.748 18.972 537.748 20.072V46.934ZM578.881 41.192C578.661 43.26 578.045 44.844 577.033 45.944C576.065 47.044 574.635 47.594 572.743 47.594C571.335 47.594 570.081 47.264 568.981 46.604C567.881 45.9 566.693 44.734 565.417 43.106L558.883 34.922V46.934C558.399 47.022 557.673 47.132 556.705 47.264C555.781 47.44 554.835 47.528 553.867 47.528C552.899 47.528 552.019 47.462 551.227 47.33C550.479 47.198 549.841 46.934 549.313 46.538C548.785 46.142 548.367 45.614 548.059 44.954C547.795 44.25 547.663 43.348 547.663 42.248V4.034C548.147 3.902 548.851 3.77 549.775 3.638C550.743 3.462 551.711 3.374 552.679 3.374C553.647 3.374 554.505 3.44 555.253 3.572C556.045 3.704 556.705 3.968 557.233 4.364C557.761 4.76 558.157 5.31 558.421 6.014C558.729 6.674 558.883 7.554 558.883 8.654V26.078L570.235 14.462C572.523 14.462 574.349 14.968 575.713 15.98C577.121 16.992 577.825 18.268 577.825 19.808C577.825 20.468 577.715 21.084 577.495 21.656C577.275 22.184 576.923 22.734 576.439 23.306C575.999 23.878 575.405 24.494 574.657 25.154C573.953 25.77 573.117 26.496 572.149 27.332L568.321 30.632L578.881 41.192ZM600.637 39.872C601.385 39.872 602.199 39.806 603.079 39.674C604.003 39.498 604.685 39.278 605.125 39.014V33.734L600.373 34.13C599.141 34.218 598.129 34.482 597.337 34.922C596.545 35.362 596.149 36.022 596.149 36.902C596.149 37.782 596.479 38.508 597.139 39.08C597.843 39.608 599.009 39.872 600.637 39.872ZM600.109 13.934C602.485 13.934 604.641 14.176 606.577 14.66C608.557 15.144 610.229 15.892 611.593 16.904C613.001 17.872 614.079 19.126 614.827 20.666C615.575 22.162 615.949 23.944 615.949 26.012V40.796C615.949 41.94 615.619 42.886 614.959 43.634C614.343 44.338 613.595 44.954 612.715 45.482C609.855 47.198 605.829 48.056 600.637 48.056C598.305 48.056 596.193 47.836 594.301 47.396C592.453 46.956 590.847 46.296 589.483 45.416C588.163 44.536 587.129 43.414 586.381 42.05C585.677 40.686 585.325 39.102 585.325 37.298C585.325 34.262 586.227 31.93 588.031 30.302C589.835 28.674 592.629 27.662 596.413 27.266L605.059 26.342V25.88C605.059 24.604 604.487 23.702 603.343 23.174C602.243 22.602 600.637 22.316 598.525 22.316C596.853 22.316 595.225 22.492 593.641 22.844C592.057 23.196 590.627 23.636 589.351 24.164C588.779 23.768 588.295 23.174 587.899 22.382C587.503 21.546 587.305 20.688 587.305 19.808C587.305 18.664 587.569 17.762 588.097 17.102C588.669 16.398 589.527 15.804 590.671 15.32C591.947 14.836 593.443 14.484 595.159 14.264C596.919 14.044 598.569 13.934 600.109 13.934ZM645.777 26.672C645.777 25.308 645.381 24.318 644.589 23.702C643.841 23.042 642.807 22.712 641.487 22.712C640.607 22.712 639.727 22.822 638.847 23.042C638.011 23.262 637.285 23.592 636.669 24.032V46.934C636.229 47.066 635.525 47.198 634.557 47.33C633.633 47.462 632.665 47.528 631.653 47.528C630.685 47.528 629.805 47.462 629.013 47.33C628.265 47.198 627.627 46.934 627.099 46.538C626.571 46.142 626.153 45.614 625.845 44.954C625.581 44.25 625.449 43.348 625.449 42.248V22.448C625.449 21.26 625.691 20.292 626.175 19.544C626.703 18.796 627.407 18.114 628.287 17.498C629.783 16.442 631.653 15.584 633.897 14.924C636.185 14.264 638.715 13.934 641.487 13.934C646.459 13.934 650.287 15.034 652.971 17.234C655.655 19.39 656.997 22.404 656.997 26.276V46.934C656.557 47.066 655.853 47.198 654.885 47.33C653.961 47.462 652.993 47.528 651.981 47.528C651.013 47.528 650.133 47.462 649.341 47.33C648.593 47.198 647.955 46.934 647.427 46.538C646.899 46.142 646.481 45.614 646.173 44.954C645.909 44.25 645.777 43.348 645.777 42.248V26.672ZM53.3769 144.466C53.3769 145.83 53.1349 146.842 52.6509 147.502C52.1669 148.162 51.3969 148.8 50.3409 149.416C49.7249 149.768 48.9549 150.12 48.0309 150.472C47.1069 150.78 46.0949 151.044 44.9949 151.264C43.8949 151.528 42.7289 151.726 41.4969 151.858C40.3089 151.99 39.1209 152.056 37.9329 152.056C34.7649 152.056 31.7949 151.638 29.0229 150.802C26.2509 149.922 23.8309 148.624 21.7629 146.908C19.7389 145.148 18.1329 142.97 16.9449 140.374C15.7569 137.778 15.1629 134.764 15.1629 131.332C15.1629 127.724 15.8009 124.578 17.0769 121.894C18.3969 119.21 20.1129 116.988 22.2249 115.228C24.3809 113.424 26.8229 112.082 29.5509 111.202C32.3229 110.322 35.1609 109.882 38.0649 109.882C42.2449 109.882 45.5449 110.564 47.9649 111.928C50.4289 113.248 51.6609 114.986 51.6609 117.142C51.6609 118.286 51.3749 119.276 50.8029 120.112C50.2309 120.948 49.5709 121.608 48.8229 122.092C47.7229 121.432 46.3369 120.794 44.6649 120.178C43.0369 119.518 41.1889 119.188 39.1209 119.188C35.4249 119.188 32.4769 120.244 30.2769 122.356C28.1209 124.468 27.0429 127.394 27.0429 131.134C27.0429 133.158 27.3289 134.918 27.9009 136.414C28.5169 137.866 29.3309 139.076 30.3429 140.044C31.3549 140.968 32.5209 141.672 33.8409 142.156C35.1609 142.596 36.5689 142.816 38.0649 142.816C39.0329 142.816 39.8909 142.728 40.6389 142.552C41.3869 142.376 41.9589 142.178 42.3549 141.958V135.754H35.2929C35.0289 135.27 34.7649 134.632 34.5009 133.84C34.2809 133.048 34.1709 132.212 34.1709 131.332C34.1709 129.748 34.5229 128.604 35.2269 127.9C35.9749 127.196 36.9209 126.844 38.0649 126.844H49.2189C50.5389 126.844 51.5509 127.218 52.2549 127.966C53.0029 128.67 53.3769 129.682 53.3769 131.002V144.466ZM62.489 110.014C62.489 108.342 63.039 106.934 64.139 105.79C65.283 104.646 66.779 104.074 68.627 104.074C70.475 104.074 71.949 104.646 73.049 105.79C74.193 106.934 74.765 108.342 74.765 110.014C74.765 111.686 74.193 113.094 73.049 114.238C71.949 115.382 70.475 115.954 68.627 115.954C66.779 115.954 65.283 115.382 64.139 114.238C63.039 113.094 62.489 111.686 62.489 110.014ZM74.237 150.934C73.753 151.022 73.027 151.132 72.059 151.264C71.135 151.44 70.189 151.528 69.221 151.528C68.253 151.528 67.373 151.462 66.581 151.33C65.833 151.198 65.195 150.934 64.667 150.538C64.139 150.142 63.721 149.614 63.413 148.954C63.149 148.25 63.017 147.348 63.017 146.248V119.386C63.501 119.298 64.205 119.188 65.129 119.056C66.097 118.88 67.065 118.792 68.033 118.792C69.001 118.792 69.859 118.858 70.607 118.99C71.399 119.122 72.059 119.386 72.587 119.782C73.115 120.178 73.511 120.728 73.775 121.432C74.083 122.092 74.237 122.972 74.237 124.072V150.934ZM85.142 151C84.438 150.384 83.866 149.658 83.426 148.822C83.03 147.986 82.832 147.04 82.832 145.984C82.832 145.104 83.03 144.246 83.426 143.41C83.866 142.53 84.394 141.716 85.01 140.968L96.362 127.636H84.218C83.954 127.152 83.69 126.536 83.426 125.788C83.206 125.04 83.096 124.226 83.096 123.346C83.096 121.806 83.426 120.706 84.086 120.046C84.79 119.342 85.714 118.99 86.858 118.99H107.648C108.352 119.606 108.902 120.332 109.298 121.168C109.738 122.004 109.958 122.95 109.958 124.006C109.958 124.886 109.738 125.766 109.298 126.646C108.902 127.482 108.396 128.274 107.78 129.022L96.692 142.354H109.628C109.892 142.838 110.134 143.454 110.354 144.202C110.618 144.95 110.75 145.764 110.75 146.644C110.75 148.184 110.398 149.306 109.694 150.01C109.034 150.67 108.132 151 106.988 151H85.142ZM118.171 110.014C118.171 108.342 118.721 106.934 119.821 105.79C120.965 104.646 122.461 104.074 124.309 104.074C126.157 104.074 127.631 104.646 128.731 105.79C129.875 106.934 130.447 108.342 130.447 110.014C130.447 111.686 129.875 113.094 128.731 114.238C127.631 115.382 126.157 115.954 124.309 115.954C122.461 115.954 120.965 115.382 119.821 114.238C118.721 113.094 118.171 111.686 118.171 110.014ZM129.919 150.934C129.435 151.022 128.709 151.132 127.741 151.264C126.817 151.44 125.871 151.528 124.903 151.528C123.935 151.528 123.055 151.462 122.263 151.33C121.515 151.198 120.877 150.934 120.349 150.538C119.821 150.142 119.403 149.614 119.095 148.954C118.831 148.25 118.699 147.348 118.699 146.248V119.386C119.183 119.298 119.887 119.188 120.811 119.056C121.779 118.88 122.747 118.792 123.715 118.792C124.683 118.792 125.541 118.858 126.289 118.99C127.081 119.122 127.741 119.386 128.269 119.782C128.797 120.178 129.193 120.728 129.457 121.432C129.765 122.092 129.919 122.972 129.919 124.072V150.934ZM164.927 112.192C165.675 111.752 166.797 111.334 168.293 110.938C169.833 110.542 171.373 110.344 172.913 110.344C175.113 110.344 177.049 110.674 178.721 111.334C180.437 111.95 181.537 112.94 182.021 114.304C182.813 116.592 183.671 119.254 184.595 122.29C185.519 125.326 186.443 128.472 187.367 131.728C188.291 134.94 189.193 138.13 190.073 141.298C190.953 144.422 191.723 147.194 192.383 149.614C191.855 150.23 191.063 150.714 190.007 151.066C188.951 151.462 187.697 151.66 186.245 151.66C185.189 151.66 184.287 151.572 183.539 151.396C182.835 151.22 182.241 150.956 181.757 150.604C181.317 150.252 180.943 149.79 180.635 149.218C180.371 148.646 180.129 147.986 179.909 147.238L178.721 142.684H166.775C166.423 144.004 166.071 145.368 165.719 146.776C165.367 148.184 165.015 149.548 164.663 150.868C164.047 151.088 163.387 151.264 162.683 151.396C162.023 151.572 161.209 151.66 160.241 151.66C157.997 151.66 156.325 151.286 155.225 150.538C154.169 149.746 153.641 148.668 153.641 147.304C153.641 146.688 153.729 146.072 153.905 145.456C154.081 144.84 154.279 144.114 154.499 143.278C154.807 142.09 155.225 140.616 155.753 138.856C156.325 137.096 156.941 135.204 157.601 133.18C158.261 131.112 158.965 129 159.713 126.844C160.461 124.688 161.165 122.664 161.825 120.772C162.485 118.836 163.079 117.12 163.607 115.624C164.179 114.128 164.619 112.984 164.927 112.192ZM172.847 120.706C172.231 122.554 171.527 124.622 170.735 126.91C169.987 129.154 169.305 131.442 168.689 133.774H176.873C176.257 131.398 175.619 129.088 174.959 126.844C174.343 124.556 173.771 122.51 173.243 120.706H172.847ZM219.902 130.672C219.902 129.308 219.506 128.318 218.714 127.702C217.966 127.042 216.932 126.712 215.612 126.712C214.732 126.712 213.852 126.822 212.972 127.042C212.136 127.262 211.41 127.592 210.794 128.032V150.934C210.354 151.066 209.65 151.198 208.682 151.33C207.758 151.462 206.79 151.528 205.778 151.528C204.81 151.528 203.93 151.462 203.138 151.33C202.39 151.198 201.752 150.934 201.224 150.538C200.696 150.142 200.278 149.614 199.97 148.954C199.706 148.25 199.574 147.348 199.574 146.248V126.448C199.574 125.26 199.816 124.292 200.3 123.544C200.828 122.796 201.532 122.114 202.412 121.498C203.908 120.442 205.778 119.584 208.022 118.924C210.31 118.264 212.84 117.934 215.612 117.934C220.584 117.934 224.412 119.034 227.096 121.234C229.78 123.39 231.122 126.404 231.122 130.276V150.934C230.682 151.066 229.978 151.198 229.01 151.33C228.086 151.462 227.118 151.528 226.106 151.528C225.138 151.528 224.258 151.462 223.466 151.33C222.718 151.198 222.08 150.934 221.552 150.538C221.024 150.142 220.606 149.614 220.298 148.954C220.034 148.25 219.902 147.348 219.902 146.248V130.672ZM254.421 143.872C255.169 143.872 255.983 143.806 256.863 143.674C257.787 143.498 258.469 143.278 258.909 143.014V137.734L254.157 138.13C252.925 138.218 251.913 138.482 251.121 138.922C250.329 139.362 249.933 140.022 249.933 140.902C249.933 141.782 250.263 142.508 250.923 143.08C251.627 143.608 252.793 143.872 254.421 143.872ZM253.893 117.934C256.269 117.934 258.425 118.176 260.361 118.66C262.341 119.144 264.013 119.892 265.377 120.904C266.785 121.872 267.863 123.126 268.611 124.666C269.359 126.162 269.733 127.944 269.733 130.012V144.796C269.733 145.94 269.403 146.886 268.743 147.634C268.127 148.338 267.379 148.954 266.499 149.482C263.639 151.198 259.613 152.056 254.421 152.056C252.089 152.056 249.977 151.836 248.085 151.396C246.237 150.956 244.631 150.296 243.267 149.416C241.947 148.536 240.913 147.414 240.165 146.05C239.461 144.686 239.109 143.102 239.109 141.298C239.109 138.262 240.011 135.93 241.815 134.302C243.619 132.674 246.413 131.662 250.197 131.266L258.843 130.342V129.88C258.843 128.604 258.271 127.702 257.127 127.174C256.027 126.602 254.421 126.316 252.309 126.316C250.637 126.316 249.009 126.492 247.425 126.844C245.841 127.196 244.411 127.636 243.135 128.164C242.563 127.768 242.079 127.174 241.683 126.382C241.287 125.546 241.089 124.688 241.089 123.808C241.089 122.664 241.353 121.762 241.881 121.102C242.453 120.398 243.311 119.804 244.455 119.32C245.731 118.836 247.227 118.484 248.943 118.264C250.703 118.044 252.353 117.934 253.893 117.934ZM310.583 145.192C310.363 147.26 309.747 148.844 308.735 149.944C307.767 151.044 306.337 151.594 304.445 151.594C303.037 151.594 301.783 151.264 300.683 150.604C299.583 149.9 298.395 148.734 297.119 147.106L290.585 138.922V150.934C290.101 151.022 289.375 151.132 288.407 151.264C287.483 151.44 286.537 151.528 285.569 151.528C284.601 151.528 283.721 151.462 282.929 151.33C282.181 151.198 281.543 150.934 281.015 150.538C280.487 150.142 280.069 149.614 279.761 148.954C279.497 148.25 279.365 147.348 279.365 146.248V108.034C279.849 107.902 280.553 107.77 281.477 107.638C282.445 107.462 283.413 107.374 284.381 107.374C285.349 107.374 286.207 107.44 286.955 107.572C287.747 107.704 288.407 107.968 288.935 108.364C289.463 108.76 289.859 109.31 290.123 110.014C290.431 110.674 290.585 111.554 290.585 112.654V130.078L301.937 118.462C304.225 118.462 306.051 118.968 307.415 119.98C308.823 120.992 309.527 122.268 309.527 123.808C309.527 124.468 309.417 125.084 309.197 125.656C308.977 126.184 308.625 126.734 308.141 127.306C307.701 127.878 307.107 128.494 306.359 129.154C305.655 129.77 304.819 130.496 303.851 131.332L300.023 134.632L310.583 145.192ZM346.413 142.75C347.029 142.926 347.821 143.058 348.789 143.146C349.757 143.19 350.681 143.212 351.561 143.212C353.321 143.212 354.773 142.86 355.917 142.156C357.105 141.408 357.699 140.264 357.699 138.724C357.699 137.272 357.215 136.238 356.247 135.622C355.279 135.006 353.805 134.698 351.825 134.698H346.413V142.75ZM346.413 126.646H351.231C353.123 126.646 354.487 126.294 355.323 125.59C356.203 124.886 356.643 123.852 356.643 122.488C356.643 121.3 356.137 120.354 355.125 119.65C354.157 118.946 352.683 118.594 350.703 118.594C350.043 118.594 349.273 118.616 348.393 118.66C347.557 118.704 346.897 118.77 346.413 118.858V126.646ZM350.703 152.056C349.955 152.056 349.075 152.034 348.063 151.99C347.051 151.946 345.995 151.858 344.895 151.726C343.839 151.594 342.783 151.418 341.727 151.198C340.671 151.022 339.703 150.758 338.823 150.406C336.403 149.482 335.193 147.876 335.193 145.588V114.766C335.193 113.842 335.435 113.138 335.919 112.654C336.447 112.126 337.151 111.708 338.031 111.4C339.527 110.872 341.397 110.498 343.641 110.278C345.885 110.014 348.195 109.882 350.571 109.882C356.203 109.882 360.537 110.828 363.573 112.72C366.609 114.612 368.127 117.538 368.127 121.498C368.127 123.478 367.555 125.194 366.411 126.646C365.267 128.054 363.727 129.088 361.791 129.748C363.991 130.364 365.817 131.486 367.269 133.114C368.765 134.742 369.513 136.788 369.513 139.252C369.513 143.608 367.885 146.842 364.629 148.954C361.417 151.022 356.775 152.056 350.703 152.056ZM391.567 143.872C392.315 143.872 393.129 143.806 394.009 143.674C394.933 143.498 395.615 143.278 396.055 143.014V137.734L391.303 138.13C390.071 138.218 389.059 138.482 388.267 138.922C387.475 139.362 387.079 140.022 387.079 140.902C387.079 141.782 387.409 142.508 388.069 143.08C388.773 143.608 389.939 143.872 391.567 143.872ZM391.039 117.934C393.415 117.934 395.571 118.176 397.507 118.66C399.487 119.144 401.159 119.892 402.523 120.904C403.931 121.872 405.009 123.126 405.757 124.666C406.505 126.162 406.879 127.944 406.879 130.012V144.796C406.879 145.94 406.549 146.886 405.889 147.634C405.273 148.338 404.525 148.954 403.645 149.482C400.785 151.198 396.759 152.056 391.567 152.056C389.235 152.056 387.123 151.836 385.231 151.396C383.383 150.956 381.777 150.296 380.413 149.416C379.093 148.536 378.059 147.414 377.311 146.05C376.607 144.686 376.255 143.102 376.255 141.298C376.255 138.262 377.157 135.93 378.961 134.302C380.765 132.674 383.559 131.662 387.343 131.266L395.989 130.342V129.88C395.989 128.604 395.417 127.702 394.273 127.174C393.173 126.602 391.567 126.316 389.455 126.316C387.783 126.316 386.155 126.492 384.571 126.844C382.987 127.196 381.557 127.636 380.281 128.164C379.709 127.768 379.225 127.174 378.829 126.382C378.433 125.546 378.235 124.688 378.235 123.808C378.235 122.664 378.499 121.762 379.027 121.102C379.599 120.398 380.457 119.804 381.601 119.32C382.877 118.836 384.373 118.484 386.089 118.264C387.849 118.044 389.499 117.934 391.039 117.934ZM427.797 150.934C427.313 151.022 426.587 151.132 425.619 151.264C424.695 151.44 423.749 151.528 422.781 151.528C421.813 151.528 420.933 151.462 420.141 151.33C419.393 151.198 418.755 150.934 418.227 150.538C417.699 150.142 417.281 149.614 416.973 148.954C416.709 148.25 416.577 147.348 416.577 146.248V107.968C417.061 107.88 417.765 107.77 418.689 107.638C419.657 107.462 420.625 107.374 421.593 107.374C422.561 107.374 423.419 107.44 424.167 107.572C424.959 107.704 425.619 107.968 426.147 108.364C426.675 108.76 427.071 109.31 427.335 110.014C427.643 110.674 427.797 111.554 427.797 112.654V150.934ZM437.253 110.014C437.253 108.342 437.803 106.934 438.903 105.79C440.047 104.646 441.543 104.074 443.391 104.074C445.239 104.074 446.713 104.646 447.813 105.79C448.957 106.934 449.529 108.342 449.529 110.014C449.529 111.686 448.957 113.094 447.813 114.238C446.713 115.382 445.239 115.954 443.391 115.954C441.543 115.954 440.047 115.382 438.903 114.238C437.803 113.094 437.253 111.686 437.253 110.014ZM449.001 150.934C448.517 151.022 447.791 151.132 446.823 151.264C445.899 151.44 444.953 151.528 443.985 151.528C443.017 151.528 442.137 151.462 441.345 151.33C440.597 151.198 439.959 150.934 439.431 150.538C438.903 150.142 438.485 149.614 438.177 148.954C437.913 148.25 437.781 147.348 437.781 146.248V119.386C438.265 119.298 438.969 119.188 439.893 119.056C440.861 118.88 441.829 118.792 442.797 118.792C443.765 118.792 444.623 118.858 445.371 118.99C446.163 119.122 446.823 119.386 447.351 119.782C447.879 120.178 448.275 120.728 448.539 121.432C448.847 122.092 449.001 122.972 449.001 124.072V150.934ZM470.004 139.978C470.004 141.122 470.356 141.936 471.06 142.42C471.808 142.904 472.842 143.146 474.162 143.146C474.822 143.146 475.504 143.102 476.208 143.014C476.912 142.882 477.528 142.728 478.056 142.552C478.452 143.036 478.782 143.586 479.046 144.202C479.354 144.774 479.508 145.478 479.508 146.314C479.508 147.986 478.87 149.35 477.594 150.406C476.362 151.462 474.162 151.99 470.994 151.99C467.122 151.99 464.13 151.11 462.018 149.35C459.95 147.59 458.916 144.73 458.916 140.77V112.522C459.4 112.39 460.082 112.258 460.962 112.126C461.886 111.95 462.854 111.862 463.866 111.862C465.802 111.862 467.298 112.214 468.354 112.918C469.454 113.578 470.004 115.008 470.004 117.208V121.432H478.65C478.914 121.916 479.156 122.532 479.376 123.28C479.64 123.984 479.772 124.776 479.772 125.656C479.772 127.196 479.42 128.318 478.716 129.022C478.056 129.682 477.154 130.012 476.01 130.012H470.004V139.978ZM501.578 143.872C502.326 143.872 503.14 143.806 504.02 143.674C504.944 143.498 505.626 143.278 506.066 143.014V137.734L501.314 138.13C500.082 138.218 499.07 138.482 498.278 138.922C497.486 139.362 497.09 140.022 497.09 140.902C497.09 141.782 497.42 142.508 498.08 143.08C498.784 143.608 499.95 143.872 501.578 143.872ZM501.05 117.934C503.426 117.934 505.582 118.176 507.518 118.66C509.498 119.144 511.17 119.892 512.534 120.904C513.942 121.872 515.02 123.126 515.768 124.666C516.516 126.162 516.89 127.944 516.89 130.012V144.796C516.89 145.94 516.56 146.886 515.9 147.634C515.284 148.338 514.536 148.954 513.656 149.482C510.796 151.198 506.77 152.056 501.578 152.056C499.246 152.056 497.134 151.836 495.242 151.396C493.394 150.956 491.788 150.296 490.424 149.416C489.104 148.536 488.07 147.414 487.322 146.05C486.618 144.686 486.266 143.102 486.266 141.298C486.266 138.262 487.168 135.93 488.972 134.302C490.776 132.674 493.57 131.662 497.354 131.266L506 130.342V129.88C506 128.604 505.428 127.702 504.284 127.174C503.184 126.602 501.578 126.316 499.466 126.316C497.794 126.316 496.166 126.492 494.582 126.844C492.998 127.196 491.568 127.636 490.292 128.164C489.72 127.768 489.236 127.174 488.84 126.382C488.444 125.546 488.246 124.688 488.246 123.808C488.246 122.664 488.51 121.762 489.038 121.102C489.61 120.398 490.468 119.804 491.612 119.32C492.888 118.836 494.384 118.484 496.1 118.264C497.86 118.044 499.51 117.934 501.05 117.934ZM554.717 136.15V150.736C554.233 150.868 553.463 151 552.407 151.132C551.351 151.264 550.317 151.33 549.305 151.33C548.293 151.33 547.391 151.242 546.599 151.066C545.851 150.934 545.213 150.67 544.685 150.274C544.157 149.878 543.761 149.328 543.497 148.624C543.233 147.92 543.101 146.996 543.101 145.852V111.004C543.585 110.916 544.355 110.806 545.411 110.674C546.467 110.498 547.479 110.41 548.447 110.41C549.459 110.41 550.339 110.498 551.087 110.674C551.879 110.806 552.539 111.07 553.067 111.466C553.595 111.862 553.991 112.412 554.255 113.116C554.519 113.82 554.651 114.744 554.651 115.888V126.382L568.379 110.608C571.371 110.608 573.505 111.18 574.781 112.324C576.101 113.424 576.761 114.744 576.761 116.284C576.761 117.428 576.475 118.506 575.903 119.518C575.331 120.53 574.407 121.674 573.131 122.95L564.881 131.2C565.981 132.432 567.125 133.708 568.313 135.028C569.545 136.348 570.733 137.646 571.877 138.922C573.065 140.154 574.187 141.342 575.243 142.486C576.343 143.63 577.289 144.62 578.081 145.456C578.081 146.424 577.905 147.282 577.553 148.03C577.201 148.778 576.717 149.416 576.101 149.944C575.529 150.472 574.869 150.868 574.121 151.132C573.373 151.396 572.581 151.528 571.745 151.528C569.941 151.528 568.467 151.088 567.323 150.208C566.179 149.284 565.079 148.206 564.023 146.974L554.717 136.15ZM584.902 110.014C584.902 108.342 585.452 106.934 586.552 105.79C587.696 104.646 589.192 104.074 591.04 104.074C592.888 104.074 594.362 104.646 595.462 105.79C596.606 106.934 597.178 108.342 597.178 110.014C597.178 111.686 596.606 113.094 595.462 114.238C594.362 115.382 592.888 115.954 591.04 115.954C589.192 115.954 587.696 115.382 586.552 114.238C585.452 113.094 584.902 111.686 584.902 110.014ZM596.65 150.934C596.166 151.022 595.44 151.132 594.472 151.264C593.548 151.44 592.602 151.528 591.634 151.528C590.666 151.528 589.786 151.462 588.994 151.33C588.246 151.198 587.608 150.934 587.08 150.538C586.552 150.142 586.134 149.614 585.826 148.954C585.562 148.25 585.43 147.348 585.43 146.248V119.386C585.914 119.298 586.618 119.188 587.542 119.056C588.51 118.88 589.478 118.792 590.446 118.792C591.414 118.792 592.272 118.858 593.02 118.99C593.812 119.122 594.472 119.386 595 119.782C595.528 120.178 595.924 120.728 596.188 121.432C596.496 122.092 596.65 122.972 596.65 124.072V150.934ZM617.653 139.978C617.653 141.122 618.005 141.936 618.709 142.42C619.457 142.904 620.491 143.146 621.811 143.146C622.471 143.146 623.153 143.102 623.857 143.014C624.561 142.882 625.177 142.728 625.705 142.552C626.101 143.036 626.431 143.586 626.695 144.202C627.003 144.774 627.157 145.478 627.157 146.314C627.157 147.986 626.519 149.35 625.243 150.406C624.011 151.462 621.811 151.99 618.643 151.99C614.771 151.99 611.779 151.11 609.667 149.35C607.599 147.59 606.565 144.73 606.565 140.77V112.522C607.049 112.39 607.731 112.258 608.611 112.126C609.535 111.95 610.503 111.862 611.515 111.862C613.451 111.862 614.947 112.214 616.003 112.918C617.103 113.578 617.653 115.008 617.653 117.208V121.432H626.299C626.563 121.916 626.805 122.532 627.025 123.28C627.289 123.984 627.421 124.776 627.421 125.656C627.421 127.196 627.069 128.318 626.365 129.022C625.705 129.682 624.803 130.012 623.659 130.012H617.653V139.978ZM649.227 143.872C649.975 143.872 650.789 143.806 651.669 143.674C652.593 143.498 653.275 143.278 653.715 143.014V137.734L648.963 138.13C647.731 138.218 646.719 138.482 645.927 138.922C645.135 139.362 644.739 140.022 644.739 140.902C644.739 141.782 645.069 142.508 645.729 143.08C646.433 143.608 647.599 143.872 649.227 143.872ZM648.699 117.934C651.075 117.934 653.231 118.176 655.167 118.66C657.147 119.144 658.819 119.892 660.183 120.904C661.591 121.872 662.669 123.126 663.417 124.666C664.165 126.162 664.539 127.944 664.539 130.012V144.796C664.539 145.94 664.209 146.886 663.549 147.634C662.933 148.338 662.185 148.954 661.305 149.482C658.445 151.198 654.419 152.056 649.227 152.056C646.895 152.056 644.783 151.836 642.891 151.396C641.043 150.956 639.437 150.296 638.073 149.416C636.753 148.536 635.719 147.414 634.971 146.05C634.267 144.686 633.915 143.102 633.915 141.298C633.915 138.262 634.817 135.93 636.621 134.302C638.425 132.674 641.219 131.662 645.003 131.266L653.649 130.342V129.88C653.649 128.604 653.077 127.702 651.933 127.174C650.833 126.602 649.227 126.316 647.115 126.316C645.443 126.316 643.815 126.492 642.231 126.844C640.647 127.196 639.217 127.636 637.941 128.164C637.369 127.768 636.885 127.174 636.489 126.382C636.093 125.546 635.895 124.688 635.895 123.808C635.895 122.664 636.159 121.762 636.687 121.102C637.259 120.398 638.117 119.804 639.261 119.32C640.537 118.836 642.033 118.484 643.749 118.264C645.509 118.044 647.159 117.934 648.699 117.934ZM672.059 145.654C672.059 143.806 672.631 142.266 673.775 141.034C674.919 139.802 676.481 139.186 678.461 139.186C680.441 139.186 682.003 139.802 683.147 141.034C684.291 142.266 684.863 143.806 684.863 145.654C684.863 147.502 684.291 149.042 683.147 150.274C682.003 151.506 680.441 152.122 678.461 152.122C676.481 152.122 674.919 151.506 673.775 150.274C672.631 149.042 672.059 147.502 672.059 145.654Z" fill="white"/>
</svg>
