<svg width="1041" height="221" viewBox="0 0 1041 221" fill="none" xmlns="http://www.w3.org/2000/svg">
<path d="M0 0H1041C1041 122.055 942.055 221 820 221H0V0Z" fill="#0075FF"/>
<path d="M146.087 127V71H165.207C171.767 71 177.154 72.1733 181.367 74.52C185.634 76.8133 188.78 80.0667 190.807 84.28C192.887 88.44 193.927 93.3467 193.927 99C193.927 104.653 192.887 109.587 190.807 113.8C188.78 117.96 185.634 121.213 181.367 123.56C177.154 125.853 171.767 127 165.207 127H146.087ZM156.327 118.2H164.727C169.42 118.2 173.127 117.453 175.847 115.96C178.567 114.413 180.514 112.227 181.687 109.4C182.86 106.52 183.447 103.053 183.447 99C183.447 95 182.86 91.56 181.687 88.68C180.514 85.8 178.567 83.5867 175.847 82.04C173.127 80.4933 169.42 79.72 164.727 79.72H156.327V118.2ZM219.602 127.96C216.189 127.96 213.389 127.427 211.202 126.36C209.015 125.24 207.389 123.773 206.322 121.96C205.255 120.147 204.722 118.147 204.722 115.96C204.722 112.28 206.162 109.293 209.042 107C211.922 104.707 216.242 103.56 222.002 103.56H232.082V102.6C232.082 99.88 231.309 97.88 229.762 96.6C228.215 95.32 226.295 94.68 224.002 94.68C221.922 94.68 220.109 95.1867 218.562 96.2C217.015 97.16 216.055 98.6 215.682 100.52H205.682C205.949 97.64 206.909 95.1333 208.562 93C210.269 90.8667 212.455 89.24 215.122 88.12C217.789 86.9467 220.775 86.36 224.082 86.36C229.735 86.36 234.189 87.7733 237.442 90.6C240.695 93.4267 242.322 97.4267 242.322 102.6V127H233.602L232.642 120.6C231.469 122.733 229.815 124.493 227.682 125.88C225.602 127.267 222.909 127.96 219.602 127.96ZM221.922 119.96C224.855 119.96 227.122 119 228.722 117.08C230.375 115.16 231.415 112.787 231.842 109.96H223.122C220.402 109.96 218.455 110.467 217.282 111.48C216.109 112.44 215.522 113.64 215.522 115.08C215.522 116.627 216.109 117.827 217.282 118.68C218.455 119.533 220.002 119.96 221.922 119.96ZM272.427 127C268.267 127 264.934 125.987 262.427 123.96C259.92 121.933 258.667 118.333 258.667 113.16V95.88H251.867V87.32H258.667L259.867 76.68H268.907V87.32H279.627V95.88H268.907V113.24C268.907 115.16 269.307 116.493 270.107 117.24C270.96 117.933 272.4 118.28 274.427 118.28H279.387V127H272.427ZM305.299 127.96C301.885 127.96 299.085 127.427 296.899 126.36C294.712 125.24 293.085 123.773 292.019 121.96C290.952 120.147 290.419 118.147 290.419 115.96C290.419 112.28 291.859 109.293 294.739 107C297.619 104.707 301.939 103.56 307.699 103.56H317.779V102.6C317.779 99.88 317.005 97.88 315.459 96.6C313.912 95.32 311.992 94.68 309.699 94.68C307.619 94.68 305.805 95.1867 304.259 96.2C302.712 97.16 301.752 98.6 301.379 100.52H291.379C291.645 97.64 292.605 95.1333 294.259 93C295.965 90.8667 298.152 89.24 300.819 88.12C303.485 86.9467 306.472 86.36 309.779 86.36C315.432 86.36 319.885 87.7733 323.139 90.6C326.392 93.4267 328.019 97.4267 328.019 102.6V127H319.299L318.339 120.6C317.165 122.733 315.512 124.493 313.379 125.88C311.299 127.267 308.605 127.96 305.299 127.96ZM307.619 119.96C310.552 119.96 312.819 119 314.419 117.08C316.072 115.16 317.112 112.787 317.539 109.96H308.819C306.099 109.96 304.152 110.467 302.979 111.48C301.805 112.44 301.219 113.64 301.219 115.08C301.219 116.627 301.805 117.827 302.979 118.68C304.152 119.533 305.699 119.96 307.619 119.96ZM363.493 127V71H382.613C389.173 71 394.56 72.1733 398.773 74.52C403.04 76.8133 406.186 80.0667 408.213 84.28C410.293 88.44 411.333 93.3467 411.333 99C411.333 104.653 410.293 109.587 408.213 113.8C406.186 117.96 403.04 121.213 398.773 123.56C394.56 125.853 389.173 127 382.613 127H363.493ZM373.733 118.2H382.133C386.826 118.2 390.533 117.453 393.253 115.96C395.973 114.413 397.92 112.227 399.093 109.4C400.266 106.52 400.853 103.053 400.853 99C400.853 95 400.266 91.56 399.093 88.68C397.92 85.8 395.973 83.5867 393.253 82.04C390.533 80.4933 386.826 79.72 382.133 79.72H373.733V118.2ZM428.848 81.16C426.981 81.16 425.435 80.6 424.208 79.48C423.035 78.36 422.448 76.9467 422.448 75.24C422.448 73.5333 423.035 72.1467 424.208 71.08C425.435 69.96 426.981 69.4 428.848 69.4C430.715 69.4 432.235 69.96 433.408 71.08C434.635 72.1467 435.248 73.5333 435.248 75.24C435.248 76.9467 434.635 78.36 433.408 79.48C432.235 80.6 430.715 81.16 428.848 81.16ZM423.728 127V87.32H433.968V127H423.728ZM461.536 127.96C458.123 127.96 455.323 127.427 453.136 126.36C450.95 125.24 449.323 123.773 448.256 121.96C447.19 120.147 446.656 118.147 446.656 115.96C446.656 112.28 448.096 109.293 450.976 107C453.856 104.707 458.176 103.56 463.936 103.56H474.016V102.6C474.016 99.88 473.243 97.88 471.696 96.6C470.15 95.32 468.23 94.68 465.936 94.68C463.856 94.68 462.043 95.1867 460.496 96.2C458.95 97.16 457.99 98.6 457.616 100.52H447.616C447.883 97.64 448.843 95.1333 450.496 93C452.203 90.8667 454.39 89.24 457.056 88.12C459.723 86.9467 462.71 86.36 466.016 86.36C471.67 86.36 476.123 87.7733 479.376 90.6C482.63 93.4267 484.256 97.4267 484.256 102.6V127H475.536L474.576 120.6C473.403 122.733 471.75 124.493 469.616 125.88C467.536 127.267 464.843 127.96 461.536 127.96ZM463.856 119.96C466.79 119.96 469.056 119 470.656 117.08C472.31 115.16 473.35 112.787 473.776 109.96H465.056C462.336 109.96 460.39 110.467 459.216 111.48C458.043 112.44 457.456 113.64 457.456 115.08C457.456 116.627 458.043 117.827 459.216 118.68C460.39 119.533 461.936 119.96 463.856 119.96ZM514.028 115.16C512.108 115.16 510.321 114.947 508.668 114.52L505.708 117.48C506.615 117.96 507.841 118.36 509.388 118.68C510.935 119 513.441 119.32 516.908 119.64C522.188 120.12 526.028 121.373 528.428 123.4C530.828 125.427 532.028 128.227 532.028 131.8C532.028 134.147 531.388 136.36 530.108 138.44C528.828 140.573 526.855 142.28 524.188 143.56C521.521 144.893 518.108 145.56 513.948 145.56C508.295 145.56 503.735 144.493 500.268 142.36C496.801 140.28 495.068 137.133 495.068 132.92C495.068 129.347 496.801 126.253 500.268 123.64C499.201 123.16 498.268 122.653 497.468 122.12C496.721 121.587 496.055 121.027 495.468 120.44V118.6L502.428 111.24C499.335 108.52 497.788 105.027 497.788 100.76C497.788 98.0933 498.428 95.6667 499.708 93.48C501.041 91.2933 502.908 89.56 505.308 88.28C507.708 87 510.615 86.36 514.028 86.36C516.268 86.36 518.348 86.68 520.268 87.32H535.308V93.56L528.508 94.04C529.575 96.0667 530.108 98.3067 530.108 100.76C530.108 103.427 529.468 105.853 528.188 108.04C526.908 110.227 525.041 111.96 522.588 113.24C520.188 114.52 517.335 115.16 514.028 115.16ZM514.028 107.32C516.108 107.32 517.815 106.76 519.148 105.64C520.535 104.52 521.228 102.92 521.228 100.84C521.228 98.76 520.535 97.16 519.148 96.04C517.815 94.92 516.108 94.36 514.028 94.36C511.841 94.36 510.081 94.92 508.748 96.04C507.415 97.16 506.748 98.76 506.748 100.84C506.748 102.92 507.415 104.52 508.748 105.64C510.081 106.76 511.841 107.32 514.028 107.32ZM504.428 131.88C504.428 133.853 505.335 135.32 507.148 136.28C509.015 137.293 511.281 137.8 513.948 137.8C516.508 137.8 518.588 137.267 520.188 136.2C521.788 135.187 522.588 133.8 522.588 132.04C522.588 130.6 522.055 129.4 520.988 128.44C519.975 127.48 517.921 126.893 514.828 126.68C512.641 126.52 510.615 126.28 508.748 125.96C507.201 126.813 506.081 127.747 505.388 128.76C504.748 129.773 504.428 130.813 504.428 131.88ZM545.975 127V87.32H555.015L555.815 94.04C557.042 91.6933 558.802 89.8267 561.095 88.44C563.442 87.0533 566.188 86.36 569.335 86.36C574.242 86.36 578.055 87.9067 580.775 91C583.495 94.0933 584.855 98.6267 584.855 104.6V127H574.615V105.56C574.615 102.147 573.922 99.5333 572.535 97.72C571.148 95.9067 568.988 95 566.055 95C563.175 95 560.802 96.0133 558.935 98.04C557.122 100.067 556.215 102.893 556.215 106.52V127H545.975ZM616.887 127.96C613.047 127.96 609.58 127.08 606.487 125.32C603.447 123.56 601.02 121.133 599.207 118.04C597.447 114.893 596.567 111.267 596.567 107.16C596.567 103.053 597.474 99.4533 599.287 96.36C601.1 93.2133 603.527 90.76 606.567 89C609.66 87.24 613.127 86.36 616.967 86.36C620.754 86.36 624.167 87.24 627.207 89C630.3 90.76 632.727 93.2133 634.487 96.36C636.3 99.4533 637.207 103.053 637.207 107.16C637.207 111.267 636.3 114.893 634.487 118.04C632.727 121.133 630.3 123.56 627.207 125.32C624.114 127.08 620.674 127.96 616.887 127.96ZM616.887 119.08C619.554 119.08 621.874 118.093 623.847 116.12C625.82 114.093 626.807 111.107 626.807 107.16C626.807 103.213 625.82 100.253 623.847 98.28C621.874 96.2533 619.58 95.24 616.967 95.24C614.247 95.24 611.9 96.2533 609.927 98.28C608.007 100.253 607.047 103.213 607.047 107.16C607.047 111.107 608.007 114.093 609.927 116.12C611.9 118.093 614.22 119.08 616.887 119.08ZM665.963 127.96C662.443 127.96 659.349 127.4 656.683 126.28C654.016 125.107 651.883 123.507 650.283 121.48C648.683 119.453 647.723 117.107 647.403 114.44H657.723C658.043 115.987 658.896 117.32 660.283 118.44C661.723 119.507 663.563 120.04 665.803 120.04C668.043 120.04 669.669 119.587 670.683 118.68C671.749 117.773 672.283 116.733 672.283 115.56C672.283 113.853 671.536 112.707 670.043 112.12C668.549 111.48 666.469 110.867 663.803 110.28C662.096 109.907 660.363 109.453 658.603 108.92C656.843 108.387 655.216 107.72 653.723 106.92C652.283 106.067 651.109 105 650.203 103.72C649.296 102.387 648.843 100.76 648.843 98.84C648.843 95.32 650.229 92.36 653.003 89.96C655.829 87.56 659.776 86.36 664.843 86.36C669.536 86.36 673.269 87.4533 676.043 89.64C678.869 91.8267 680.549 94.84 681.083 98.68H671.403C670.816 95.7467 668.603 94.28 664.763 94.28C662.843 94.28 661.349 94.6533 660.283 95.4C659.269 96.1467 658.763 97.08 658.763 98.2C658.763 99.3733 659.536 100.307 661.083 101C662.629 101.693 664.683 102.333 667.243 102.92C670.016 103.56 672.549 104.28 674.843 105.08C677.189 105.827 679.056 106.973 680.443 108.52C681.829 110.013 682.523 112.173 682.523 115C682.576 117.453 681.936 119.667 680.603 121.64C679.269 123.613 677.349 125.16 674.843 126.28C672.336 127.4 669.376 127.96 665.963 127.96ZM700.314 81.16C698.447 81.16 696.9 80.6 695.674 79.48C694.5 78.36 693.914 76.9467 693.914 75.24C693.914 73.5333 694.5 72.1467 695.674 71.08C696.9 69.96 698.447 69.4 700.314 69.4C702.18 69.4 703.7 69.96 704.874 71.08C706.1 72.1467 706.714 73.5333 706.714 75.24C706.714 76.9467 706.1 78.36 704.874 79.48C703.7 80.6 702.18 81.16 700.314 81.16ZM695.194 127V87.32H705.434V127H695.194ZM735.722 127.96C732.202 127.96 729.108 127.4 726.442 126.28C723.775 125.107 721.642 123.507 720.042 121.48C718.442 119.453 717.482 117.107 717.162 114.44H727.482C727.802 115.987 728.655 117.32 730.042 118.44C731.482 119.507 733.322 120.04 735.562 120.04C737.802 120.04 739.428 119.587 740.442 118.68C741.508 117.773 742.042 116.733 742.042 115.56C742.042 113.853 741.295 112.707 739.802 112.12C738.308 111.48 736.228 110.867 733.562 110.28C731.855 109.907 730.122 109.453 728.362 108.92C726.602 108.387 724.975 107.72 723.482 106.92C722.042 106.067 720.868 105 719.962 103.72C719.055 102.387 718.602 100.76 718.602 98.84C718.602 95.32 719.988 92.36 722.762 89.96C725.588 87.56 729.535 86.36 734.602 86.36C739.295 86.36 743.028 87.4533 745.802 89.64C748.628 91.8267 750.308 94.84 750.842 98.68H741.162C740.575 95.7467 738.362 94.28 734.522 94.28C732.602 94.28 731.108 94.6533 730.042 95.4C729.028 96.1467 728.522 97.08 728.522 98.2C728.522 99.3733 729.295 100.307 730.842 101C732.388 101.693 734.442 102.333 737.002 102.92C739.775 103.56 742.308 104.28 744.602 105.08C746.948 105.827 748.815 106.973 750.202 108.52C751.588 110.013 752.282 112.173 752.282 115C752.335 117.453 751.695 119.667 750.362 121.64C749.028 123.613 747.108 125.16 744.602 126.28C742.095 127.4 739.135 127.96 735.722 127.96Z" fill="white"/>
</svg>
