<svg width="190" height="23" viewBox="0 0 190 23" fill="none" xmlns="http://www.w3.org/2000/svg">
<path d="M6.97199 22V4.09H0.851992V0.999999H16.962V4.09H10.812V22H6.97199ZM25.0025 22.36C23.1425 22.36 21.7025 21.78 20.6825 20.62C19.6825 19.46 19.1825 17.76 19.1825 15.52V7.12H22.9925V15.16C22.9925 16.44 23.2525 17.42 23.7725 18.1C24.2925 18.78 25.1125 19.12 26.2325 19.12C27.2925 19.12 28.1625 18.74 28.8425 17.98C29.5425 17.22 29.8925 16.16 29.8925 14.8V7.12H33.7325V22H30.3425L30.0425 19.48C29.5825 20.36 28.9125 21.06 28.0325 21.58C27.1725 22.1 26.1625 22.36 25.0025 22.36ZM47.6944 22.36C46.5744 22.36 45.5944 22.15 44.7544 21.73C43.9144 21.31 43.2344 20.72 42.7144 19.96L42.2944 22H38.8744V0.399999H42.7144V9.25C43.1944 8.59 43.8244 8.01 44.6044 7.51C45.4044 7.01 46.4344 6.76 47.6944 6.76C49.0944 6.76 50.3444 7.1 51.4444 7.78C52.5444 8.46 53.4144 9.39 54.0544 10.57C54.6944 11.75 55.0144 13.09 55.0144 14.59C55.0144 16.09 54.6944 17.43 54.0544 18.61C53.4144 19.77 52.5444 20.69 51.4444 21.37C50.3444 22.03 49.0944 22.36 47.6944 22.36ZM46.8844 19C48.1044 19 49.1144 18.59 49.9144 17.77C50.7144 16.95 51.1144 15.89 51.1144 14.59C51.1144 13.29 50.7144 12.22 49.9144 11.38C49.1144 10.54 48.1044 10.12 46.8844 10.12C45.6444 10.12 44.6244 10.54 43.8244 11.38C43.0444 12.2 42.6544 13.26 42.6544 14.56C42.6544 15.86 43.0444 16.93 43.8244 17.77C44.6244 18.59 45.6444 19 46.8844 19ZM65.2247 22.36C63.3647 22.36 61.9247 21.78 60.9047 20.62C59.9047 19.46 59.4047 17.76 59.4047 15.52V7.12H63.2147V15.16C63.2147 16.44 63.4747 17.42 63.9947 18.1C64.5147 18.78 65.3347 19.12 66.4547 19.12C67.5147 19.12 68.3847 18.74 69.0647 17.98C69.7647 17.22 70.1147 16.16 70.1147 14.8V7.12H73.9547V22H70.5647L70.2647 19.48C69.8047 20.36 69.1347 21.06 68.2547 21.58C67.3947 22.1 66.3847 22.36 65.2247 22.36ZM79.0967 22V0.399999H82.9367V9.4C83.4367 8.58 84.1067 7.94 84.9467 7.48C85.8067 7 86.7867 6.76 87.8867 6.76C89.7267 6.76 91.1467 7.34 92.1467 8.5C93.1667 9.66 93.6767 11.36 93.6767 13.6V22H89.8667V13.96C89.8667 12.68 89.6067 11.7 89.0867 11.02C88.5867 10.34 87.7867 10 86.6867 10C85.6067 10 84.7067 10.38 83.9867 11.14C83.2867 11.9 82.9367 12.96 82.9367 14.32V22H79.0967ZM106.897 22V0.399999H110.737V13.15L116.017 7.12H120.577L114.487 13.9L121.567 22H116.767L110.737 14.53V22H106.897ZM130.728 22.36C128.868 22.36 127.428 21.78 126.408 20.62C125.408 19.46 124.908 17.76 124.908 15.52V7.12H128.718V15.16C128.718 16.44 128.978 17.42 129.498 18.1C130.018 18.78 130.838 19.12 131.958 19.12C133.018 19.12 133.888 18.74 134.568 17.98C135.268 17.22 135.618 16.16 135.618 14.8V7.12H139.458V22H136.068L135.768 19.48C135.308 20.36 134.638 21.06 133.758 21.58C132.898 22.1 131.888 22.36 130.728 22.36ZM144.6 22V7.12H148.02L148.38 9.91C148.92 8.95 149.65 8.19 150.57 7.63C151.51 7.05 152.61 6.76 153.87 6.76V10.81H152.79C151.95 10.81 151.2 10.94 150.54 11.2C149.88 11.46 149.36 11.91 148.98 12.55C148.62 13.19 148.44 14.08 148.44 15.22V22H144.6ZM163.274 22.36C161.414 22.36 159.974 21.78 158.954 20.62C157.954 19.46 157.454 17.76 157.454 15.52V7.12H161.264V15.16C161.264 16.44 161.524 17.42 162.044 18.1C162.564 18.78 163.384 19.12 164.504 19.12C165.564 19.12 166.434 18.74 167.114 17.98C167.814 17.22 168.164 16.16 168.164 14.8V7.12H172.004V22H168.614L168.314 19.48C167.854 20.36 167.184 21.06 166.304 21.58C165.444 22.1 164.434 22.36 163.274 22.36ZM183.296 22.36C181.976 22.36 180.816 22.15 179.816 21.73C178.816 21.29 178.016 20.69 177.416 19.93C176.816 19.17 176.456 18.29 176.336 17.29H180.206C180.326 17.87 180.646 18.37 181.166 18.79C181.706 19.19 182.396 19.39 183.236 19.39C184.076 19.39 184.686 19.22 185.066 18.88C185.466 18.54 185.666 18.15 185.666 17.71C185.666 17.07 185.386 16.64 184.826 16.42C184.266 16.18 183.486 15.95 182.486 15.73C181.846 15.59 181.196 15.42 180.536 15.22C179.876 15.02 179.266 14.77 178.706 14.47C178.166 14.15 177.726 13.75 177.386 13.27C177.046 12.77 176.876 12.16 176.876 11.44C176.876 10.12 177.396 9.01 178.436 8.11C179.496 7.21 180.976 6.76 182.876 6.76C184.636 6.76 186.036 7.17 187.076 7.99C188.136 8.81 188.766 9.94 188.966 11.38H185.336C185.116 10.28 184.286 9.73 182.846 9.73C182.126 9.73 181.566 9.87 181.166 10.15C180.786 10.43 180.596 10.78 180.596 11.2C180.596 11.64 180.886 11.99 181.466 12.25C182.046 12.51 182.816 12.75 183.776 12.97C184.816 13.21 185.766 13.48 186.626 13.78C187.506 14.06 188.206 14.49 188.726 15.07C189.246 15.63 189.506 16.44 189.506 17.5C189.526 18.42 189.286 19.25 188.786 19.99C188.286 20.73 187.566 21.31 186.626 21.73C185.686 22.15 184.576 22.36 183.296 22.36Z" fill="black"/>
</svg>
