<svg width="387" height="176" viewBox="0 0 387 176" fill="none" xmlns="http://www.w3.org/2000/svg">
<g filter="url(#filter0_d_42_2111)">
<rect x="44" y="26" width="299" height="72" rx="36" fill="white"/>
</g>
<g filter="url(#filter1_d_42_2111)">
<path d="M240 60.5C239.172 60.5 238.5 61.1716 238.5 62C238.5 62.8284 239.172 63.5 240 63.5V60.5ZM308.061 63.0607C308.646 62.4749 308.646 61.5251 308.061 60.9393L298.515 51.3934C297.929 50.8076 296.979 50.8076 296.393 51.3934C295.808 51.9792 295.808 52.9289 296.393 53.5147L304.879 62L296.393 70.4853C295.808 71.0711 295.808 72.0208 296.393 72.6066C296.979 73.1924 297.929 73.1924 298.515 72.6066L308.061 63.0607ZM240 63.5H307V60.5H240V63.5Z" fill="#0075FF"/>
</g>
<g filter="url(#filter2_d_42_2111)">
<path d="M103.828 67.3438V71H92.375V67.3438H103.828ZM93.8906 48.25V71H89.2031V48.25H93.8906ZM115.359 67.1875V59.6562C115.359 59.1146 115.271 58.651 115.094 58.2656C114.917 57.8698 114.641 57.5625 114.266 57.3438C113.901 57.125 113.427 57.0156 112.844 57.0156C112.344 57.0156 111.911 57.1042 111.547 57.2812C111.182 57.4479 110.901 57.6927 110.703 58.0156C110.505 58.3281 110.406 58.6979 110.406 59.125H105.906C105.906 58.4062 106.073 57.724 106.406 57.0781C106.74 56.4323 107.224 55.8646 107.859 55.375C108.495 54.875 109.25 54.4844 110.125 54.2031C111.01 53.9219 112 53.7812 113.094 53.7812C114.406 53.7812 115.573 54 116.594 54.4375C117.615 54.875 118.417 55.5312 119 56.4062C119.594 57.2812 119.891 58.375 119.891 59.6875V66.9219C119.891 67.849 119.948 68.6094 120.062 69.2031C120.177 69.7865 120.344 70.2969 120.562 70.7344V71H116.016C115.797 70.5417 115.63 69.9688 115.516 69.2812C115.411 68.5833 115.359 67.8854 115.359 67.1875ZM115.953 60.7031L115.984 63.25H113.469C112.875 63.25 112.359 63.3177 111.922 63.4531C111.484 63.5885 111.125 63.7812 110.844 64.0312C110.562 64.2708 110.354 64.5521 110.219 64.875C110.094 65.1979 110.031 65.5521 110.031 65.9375C110.031 66.3229 110.12 66.6719 110.297 66.9844C110.474 67.2865 110.729 67.526 111.062 67.7031C111.396 67.8698 111.786 67.9531 112.234 67.9531C112.911 67.9531 113.5 67.8177 114 67.5469C114.5 67.276 114.885 66.9427 115.156 66.5469C115.438 66.151 115.583 65.776 115.594 65.4219L116.781 67.3281C116.615 67.7552 116.385 68.1979 116.094 68.6562C115.812 69.1146 115.453 69.5469 115.016 69.9531C114.578 70.349 114.052 70.6771 113.438 70.9375C112.823 71.1875 112.094 71.3125 111.25 71.3125C110.177 71.3125 109.203 71.099 108.328 70.6719C107.464 70.2344 106.776 69.6354 106.266 68.875C105.766 68.1042 105.516 67.2292 105.516 66.25C105.516 65.3646 105.682 64.5781 106.016 63.8906C106.349 63.2031 106.839 62.625 107.484 62.1562C108.141 61.6771 108.958 61.3177 109.938 61.0781C110.917 60.8281 112.052 60.7031 113.344 60.7031H115.953ZM127.766 57.7031V71H123.266V54.0938H127.484L127.766 57.7031ZM127.109 61.9531H125.891C125.891 60.7031 126.052 59.5781 126.375 58.5781C126.698 57.5677 127.151 56.7083 127.734 56C128.318 55.2812 129.01 54.7344 129.812 54.3594C130.625 53.974 131.531 53.7812 132.531 53.7812C133.323 53.7812 134.047 53.8958 134.703 54.125C135.359 54.3542 135.922 54.7188 136.391 55.2188C136.87 55.7188 137.234 56.3802 137.484 57.2031C137.745 58.026 137.875 59.0312 137.875 60.2188V71H133.344V60.2031C133.344 59.4531 133.24 58.8698 133.031 58.4531C132.823 58.0365 132.516 57.7448 132.109 57.5781C131.714 57.401 131.224 57.3125 130.641 57.3125C130.036 57.3125 129.51 57.4323 129.062 57.6719C128.625 57.9115 128.26 58.2448 127.969 58.6719C127.688 59.0885 127.474 59.5781 127.328 60.1406C127.182 60.7031 127.109 61.3073 127.109 61.9531ZM141.547 54.0938H146.062V72.0156C146.062 73.2656 145.833 74.3229 145.375 75.1875C144.917 76.0521 144.255 76.7083 143.391 77.1562C142.526 77.6042 141.479 77.8281 140.25 77.8281C139.865 77.8281 139.49 77.8073 139.125 77.7656C138.75 77.724 138.365 77.6562 137.969 77.5625L137.984 74.1094C138.234 74.151 138.479 74.1823 138.719 74.2031C138.948 74.2344 139.182 74.25 139.422 74.25C139.891 74.25 140.281 74.1719 140.594 74.0156C140.906 73.8594 141.141 73.6146 141.297 73.2812C141.464 72.9583 141.547 72.5365 141.547 72.0156V54.0938ZM141.188 49.6875C141.188 49.0312 141.417 48.4896 141.875 48.0625C142.344 47.6354 142.958 47.4219 143.719 47.4219C144.49 47.4219 145.104 47.6354 145.562 48.0625C146.021 48.4896 146.25 49.0312 146.25 49.6875C146.25 50.3438 146.021 50.8854 145.562 51.3125C145.104 51.7396 144.49 51.9531 143.719 51.9531C142.958 51.9531 142.344 51.7396 141.875 51.3125C141.417 50.8854 141.188 50.3438 141.188 49.6875ZM159.641 66.9531V54.0938H164.141V71H159.906L159.641 66.9531ZM160.141 63.4844L161.469 63.4531C161.469 64.5781 161.339 65.625 161.078 66.5938C160.818 67.5521 160.427 68.3854 159.906 69.0938C159.385 69.7917 158.729 70.3385 157.938 70.7344C157.146 71.1198 156.214 71.3125 155.141 71.3125C154.318 71.3125 153.557 71.1979 152.859 70.9688C152.172 70.7292 151.578 70.3594 151.078 69.8594C150.589 69.349 150.203 68.6979 149.922 67.9062C149.651 67.1042 149.516 66.1406 149.516 65.0156V54.0938H154.016V65.0469C154.016 65.5469 154.073 65.9688 154.188 66.3125C154.312 66.6562 154.484 66.9375 154.703 67.1562C154.922 67.375 155.177 67.5312 155.469 67.625C155.771 67.7188 156.104 67.7656 156.469 67.7656C157.396 67.7656 158.125 67.5781 158.656 67.2031C159.198 66.8281 159.578 66.3177 159.797 65.6719C160.026 65.0156 160.141 64.2865 160.141 63.4844ZM175.859 54.0938V57.2812H166.016V54.0938H175.859ZM168.453 49.9219H172.953V65.9062C172.953 66.3958 173.016 66.7708 173.141 67.0312C173.276 67.2917 173.474 67.474 173.734 67.5781C173.995 67.6719 174.323 67.7188 174.719 67.7188C175 67.7188 175.25 67.7083 175.469 67.6875C175.698 67.6562 175.891 67.625 176.047 67.5938L176.062 70.9062C175.677 71.0312 175.26 71.1302 174.812 71.2031C174.365 71.276 173.87 71.3125 173.328 71.3125C172.339 71.3125 171.474 71.151 170.734 70.8281C170.005 70.4948 169.443 69.9635 169.047 69.2344C168.651 68.5052 168.453 67.5469 168.453 66.3594V49.9219ZM182.922 46.9844V71H178.422V46.9844H182.922ZM193.578 54.0938L186.234 62.4688L182.297 66.4531L180.656 63.2031L183.781 59.2344L188.172 54.0938H193.578ZM188.906 71L183.906 63.1875L187.016 60.4688L194.094 71H188.906ZM204.641 67.1875V59.6562C204.641 59.1146 204.552 58.651 204.375 58.2656C204.198 57.8698 203.922 57.5625 203.547 57.3438C203.182 57.125 202.708 57.0156 202.125 57.0156C201.625 57.0156 201.193 57.1042 200.828 57.2812C200.464 57.4479 200.182 57.6927 199.984 58.0156C199.786 58.3281 199.688 58.6979 199.688 59.125H195.188C195.188 58.4062 195.354 57.724 195.688 57.0781C196.021 56.4323 196.505 55.8646 197.141 55.375C197.776 54.875 198.531 54.4844 199.406 54.2031C200.292 53.9219 201.281 53.7812 202.375 53.7812C203.688 53.7812 204.854 54 205.875 54.4375C206.896 54.875 207.698 55.5312 208.281 56.4062C208.875 57.2812 209.172 58.375 209.172 59.6875V66.9219C209.172 67.849 209.229 68.6094 209.344 69.2031C209.458 69.7865 209.625 70.2969 209.844 70.7344V71H205.297C205.078 70.5417 204.911 69.9688 204.797 69.2812C204.693 68.5833 204.641 67.8854 204.641 67.1875ZM205.234 60.7031L205.266 63.25H202.75C202.156 63.25 201.641 63.3177 201.203 63.4531C200.766 63.5885 200.406 63.7812 200.125 64.0312C199.844 64.2708 199.635 64.5521 199.5 64.875C199.375 65.1979 199.312 65.5521 199.312 65.9375C199.312 66.3229 199.401 66.6719 199.578 66.9844C199.755 67.2865 200.01 67.526 200.344 67.7031C200.677 67.8698 201.068 67.9531 201.516 67.9531C202.193 67.9531 202.781 67.8177 203.281 67.5469C203.781 67.276 204.167 66.9427 204.438 66.5469C204.719 66.151 204.865 65.776 204.875 65.4219L206.062 67.3281C205.896 67.7552 205.667 68.1979 205.375 68.6562C205.094 69.1146 204.734 69.5469 204.297 69.9531C203.859 70.349 203.333 70.6771 202.719 70.9375C202.104 71.1875 201.375 71.3125 200.531 71.3125C199.458 71.3125 198.484 71.099 197.609 70.6719C196.745 70.2344 196.057 69.6354 195.547 68.875C195.047 68.1042 194.797 67.2292 194.797 66.25C194.797 65.3646 194.964 64.5781 195.297 63.8906C195.63 63.2031 196.12 62.625 196.766 62.1562C197.422 61.6771 198.24 61.3177 199.219 61.0781C200.198 60.8281 201.333 60.7031 202.625 60.7031H205.234ZM217.047 57.7031V71H212.547V54.0938H216.766L217.047 57.7031ZM216.391 61.9531H215.172C215.172 60.7031 215.333 59.5781 215.656 58.5781C215.979 57.5677 216.432 56.7083 217.016 56C217.599 55.2812 218.292 54.7344 219.094 54.3594C219.906 53.974 220.812 53.7812 221.812 53.7812C222.604 53.7812 223.328 53.8958 223.984 54.125C224.641 54.3542 225.203 54.7188 225.672 55.2188C226.151 55.7188 226.516 56.3802 226.766 57.2031C227.026 58.026 227.156 59.0312 227.156 60.2188V71H222.625V60.2031C222.625 59.4531 222.521 58.8698 222.312 58.4531C222.104 58.0365 221.797 57.7448 221.391 57.5781C220.995 57.401 220.505 57.3125 219.922 57.3125C219.318 57.3125 218.792 57.4323 218.344 57.6719C217.906 57.9115 217.542 58.2448 217.25 58.6719C216.969 59.0885 216.755 59.5781 216.609 60.1406C216.464 60.7031 216.391 61.3073 216.391 61.9531Z" fill="#0075FF"/>
</g>
<defs>
<filter id="filter0_d_42_2111" x="0" y="16" width="387" height="160" filterUnits="userSpaceOnUse" color-interpolation-filters="sRGB">
<feFlood flood-opacity="0" result="BackgroundImageFix"/>
<feColorMatrix in="SourceAlpha" type="matrix" values="0 0 0 0 0 0 0 0 0 0 0 0 0 0 0 0 0 0 127 0" result="hardAlpha"/>
<feOffset dy="34"/>
<feGaussianBlur stdDeviation="22"/>
<feComposite in2="hardAlpha" operator="out"/>
<feColorMatrix type="matrix" values="0 0 0 0 0 0 0 0 0 0 0 0 0 0 0 0 0 0 0.1 0"/>
<feBlend mode="normal" in2="BackgroundImageFix" result="effect1_dropShadow_42_2111"/>
<feBlend mode="normal" in="SourceGraphic" in2="effect1_dropShadow_42_2111" result="shape"/>
</filter>
<filter id="filter1_d_42_2111" x="228.5" y="44.9541" width="90" height="42.0918" filterUnits="userSpaceOnUse" color-interpolation-filters="sRGB">
<feFlood flood-opacity="0" result="BackgroundImageFix"/>
<feColorMatrix in="SourceAlpha" type="matrix" values="0 0 0 0 0 0 0 0 0 0 0 0 0 0 0 0 0 0 127 0" result="hardAlpha"/>
<feOffset dy="4"/>
<feGaussianBlur stdDeviation="5"/>
<feComposite in2="hardAlpha" operator="out"/>
<feColorMatrix type="matrix" values="0 0 0 0 0 0 0 0 0 0 0 0 0 0 0 0 0 0 0.13 0"/>
<feBlend mode="normal" in2="BackgroundImageFix" result="effect1_dropShadow_42_2111"/>
<feBlend mode="normal" in="SourceGraphic" in2="effect1_dropShadow_42_2111" result="shape"/>
</filter>
<filter id="filter2_d_42_2111" x="39.2031" y="0.984375" width="237.953" height="130.844" filterUnits="userSpaceOnUse" color-interpolation-filters="sRGB">
<feFlood flood-opacity="0" result="BackgroundImageFix"/>
<feColorMatrix in="SourceAlpha" type="matrix" values="0 0 0 0 0 0 0 0 0 0 0 0 0 0 0 0 0 0 127 0" result="hardAlpha"/>
<feOffset dy="4"/>
<feGaussianBlur stdDeviation="25"/>
<feComposite in2="hardAlpha" operator="out"/>
<feColorMatrix type="matrix" values="0 0 0 0 0 0 0 0 0 0 0 0 0 0 0 0 0 0 0.25 0"/>
<feBlend mode="normal" in2="BackgroundImageFix" result="effect1_dropShadow_42_2111"/>
<feBlend mode="normal" in="SourceGraphic" in2="effect1_dropShadow_42_2111" result="shape"/>
</filter>
</defs>
</svg>
